<svg width="356" height="241" viewBox="0 0 356 241" fill="none" xmlns="http://www.w3.org/2000/svg">
<path d="M356 44.3338V194.281C356 218.327 334.981 234.544 309.588 237.819C279.656 241.686 248.393 239.983 187.036 236.049C152.079 233.804 81.3303 239.206 46.2402 239.5C20.605 239.714 0 218.333 0 194.281V44.3338C0 20.2892 20.8234 -0.618903 46.4124 0.796883C70.1747 2.09816 102.783 14.1984 139.218 11.0159C182.551 7.22807 267.147 -2.88386 309.588 0.790934C335.109 3.00087 356 20.2833 356 44.3338Z" fill="#F4F2FF" fill-opacity="0.45"/>
<g opacity="0.6">
<path opacity="0.6" d="M191.299 194.225C191.299 194.225 222.178 85.1908 251.447 94.6888C280.716 104.187 214.567 163.165 206.585 195.192L191.299 194.225Z" fill="#5A71E5"/>
</g>
<path d="M168.739 218.511C168.739 218.511 122.743 131.841 98.1954 144.563C73.6473 157.284 142.705 196.161 155.243 221.794L168.739 218.511Z" fill="#8E86D8"/>
<path d="M174.572 223.59C174.572 223.59 98.9708 133.122 70.9169 157.588C42.863 182.054 137.349 205.326 158.377 232.464L174.572 223.59Z" fill="#7165E3"/>
<path d="M147.533 85.0497L125.833 68.8557C121.287 66.0662 115.648 59.1433 118.546 54.6526C121.446 50.1636 129.446 51.5807 133.995 54.3684L161.335 71.1109C169.275 76.136 169.795 84.4492 165.123 91.6759C158.517 101.885 151.93 87.7445 147.533 85.0497Z" fill="#FAC8AF"/>
<path d="M235.381 209.587L163.829 229.008C163.829 229.008 158.356 229.955 154.435 220.67C151.551 213.843 153.669 198.207 148.487 190.03C146.391 186.693 144.002 188.453 139.093 180.022C129.698 163.98 134.136 136.514 134.136 136.514C134.136 136.514 198.01 101.912 198.955 91.6831C199.797 82.3656 211.295 77.6568 214.085 81.4256C214.373 81.8263 214.562 82.2901 214.635 82.7784C215.021 85.1319 216.002 90.1391 217.383 96.0023C219.338 104.296 222.092 114.289 225.087 120.858C233.485 139.3 232.413 144.859 227.247 159.189C223.53 169.461 226.711 177.302 228.194 183.995C232.247 202.331 235.381 209.587 235.381 209.587Z" fill="#FAC8AF"/>
<path d="M183.449 186.979C183.338 186.992 183.226 186.978 183.123 186.938C183.019 186.897 182.927 186.833 182.854 186.749C182.718 186.591 179.484 182.848 177.876 176.538C176.931 172.829 176.749 168.966 177.339 165.185C178.07 160.417 180.002 155.628 183.081 150.949C183.13 150.872 183.195 150.806 183.27 150.755C183.346 150.703 183.431 150.667 183.521 150.65C183.611 150.632 183.703 150.633 183.793 150.652C183.882 150.671 183.967 150.707 184.042 150.76C184.195 150.871 184.298 151.037 184.331 151.223C184.365 151.408 184.325 151.6 184.221 151.757C181.26 156.257 179.396 160.851 178.703 165.408C178.143 168.994 178.316 172.656 179.212 176.173C180.736 182.149 183.847 185.751 183.879 185.787C184.002 185.93 184.066 186.114 184.057 186.303C184.048 186.491 183.967 186.668 183.831 186.799C183.726 186.897 183.592 186.96 183.449 186.979Z" fill="#E7B79F"/>
<path d="M212.194 159.765L210.495 140.663L205.265 81.9581L204.266 70.7411L203.085 57.4314C202.973 56.2459 202.607 55.0983 202.013 54.0664V54.0575C199.926 50.5424 195.487 49.6382 192.287 50.0171L190.482 50.2351L174.42 52.1865L155.214 54.5185L154.557 54.6133L141.902 56.1465L138.318 56.5808C138.139 56.604 137.942 56.6362 137.758 56.6719C133.992 57.4296 131.372 61.0715 131.826 65.0709L132.282 70.2175L132.539 72.9802L132.623 73.9184L132.757 75.4588L133.177 80.1568L134.513 94.9891L134.951 99.7729V99.7925L135.28 103.426L135.482 105.616V105.824L135.938 110.827L136.76 119.995L137.181 124.641V124.661L137.235 125.207V125.331L137.989 133.694V133.715L138.005 133.844L138.014 133.953L138.051 134.359L138.371 137.834L138.729 141.945L138.784 142.506V142.524L141.295 170.506C141.77 174.69 145.74 177.129 149.8 176.638L177.154 172.528H177.175L178.524 172.319L188.509 170.825L199.357 169.202L203.299 168.609L205.701 168.251C206.084 168.205 206.463 168.128 206.834 168.021C208.003 167.672 209.07 167.044 209.942 166.19C210.814 165.336 211.464 164.283 211.837 163.121C212.197 162.041 212.319 160.896 212.194 159.765Z" fill="#546187"/>
<path d="M192.528 51.9488L138.507 58.5089C137.052 58.6919 135.728 59.4412 134.822 60.5944C133.915 61.7476 133.5 63.2115 133.667 64.6688L143.494 165.351C144.222 172.236 147.767 171.538 150.785 171.171L205.052 163.001C208.07 162.644 210.184 158.744 209.841 155.708L200.894 57.1562C200.549 54.1182 195.546 51.5771 192.528 51.9434V51.9488Z" fill="#E4DFFF"/>
<path d="M118.244 116.967L133.852 123.83C137.741 126.582 143.051 125.554 145.714 121.532C148.376 117.509 147.383 112.016 143.494 109.26L133.416 102.121C126.498 97.3675 120.333 95.2517 116.05 101.731C109.999 110.881 114.481 114.303 118.244 116.967Z" fill="#FFB27D"/>
<path d="M253 241C200.793 239.711 193.429 240.424 141.5 241C142.163 235.225 145.32 199.23 147.114 197.621C150.712 194.398 174.184 201.2 197.082 194.667C197.758 194.477 200.361 193.688 204.022 192.743C210.902 190.973 221.996 188.578 229.375 189.064H229.391C231.996 189.235 234.494 189.792 235.082 191.362C236.366 194.709 246.351 223.536 253 241Z" fill="#EF7E29"/>
<path d="M140.194 121.026C140.13 121.027 140.067 121.02 140.005 121.006C139.771 120.963 135.144 120.091 133.036 118.531C132.264 117.961 132.255 116.671 133.007 114.895C134.09 112.345 136.499 109.473 138.01 109.473C138.07 109.472 138.13 109.477 138.189 109.487C140.585 109.893 144.098 112.153 144.039 114.444C143.991 116.342 142.445 119.589 141.089 120.651C140.84 120.871 140.526 121.003 140.194 121.026ZM137.991 109.818C136.654 109.818 134.358 112.596 133.325 115.03C132.652 116.621 132.621 117.793 133.241 118.247C135.296 119.764 140.031 120.651 140.071 120.659C140.294 120.72 140.566 120.615 140.875 120.372C142.145 119.376 143.646 116.215 143.693 114.432C143.746 112.346 140.355 110.2 138.13 109.823C138.084 109.818 138.037 109.816 137.991 109.818Z" fill="#F59A6D"/>
<path d="M119.18 95.2249L133.677 104.339C134.49 105.121 135.453 105.731 136.508 106.131C137.563 106.53 138.688 106.711 139.816 106.663C140.943 106.615 142.048 106.339 143.066 105.851C144.083 105.363 144.99 104.673 145.733 103.824C148.926 100.237 148.703 94.6531 145.237 91.3507L136.252 82.7891C130.062 77.0581 124.255 74.0524 119.12 79.8298C111.869 87.9804 115.828 92.0315 119.18 95.2249Z" fill="#FAC8AF"/>
<path d="M140.487 102.509C140.375 102.509 140.263 102.489 140.158 102.45C139.931 102.373 135.477 100.822 133.604 98.967C132.912 98.2808 133.091 96.9852 134.112 95.3161C135.627 92.8304 138.505 90.3125 139.965 90.7824C142.288 91.5384 145.444 94.2939 145.069 96.5545C144.758 98.4166 142.783 101.399 141.295 102.255C141.052 102.408 140.774 102.495 140.487 102.509ZM139.56 91.0719C138.209 91.0719 135.716 93.3575 134.406 95.5002C133.495 96.9959 133.29 98.17 133.847 98.7168C135.673 100.527 140.228 102.112 140.28 102.121C140.5 102.21 140.782 102.146 141.121 101.942C142.515 101.144 144.434 98.2361 144.726 96.4866C145.067 94.4297 142.008 91.8046 139.856 91.1023C139.76 91.075 139.66 91.0635 139.56 91.0684V91.0719Z" fill="#F59A6D"/>
<path d="M125.526 138.656L139.39 142.113C142.985 143.839 147.252 142.225 148.921 138.506C150.592 134.788 149.032 130.374 145.438 128.646L136.122 124.167C129.746 121.217 124.35 120.347 121.666 126.335C117.874 134.789 122.05 136.986 125.526 138.656Z" fill="#FAC8AF"/>
<path d="M144.154 138.917H144.123C143.918 138.917 139.96 138.851 137.996 137.858C137.281 137.5 137.087 136.439 137.46 134.884C138.028 132.481 139.77 129.571 141.082 129.566H141.1C143.155 129.566 146.369 130.946 146.629 132.865C146.841 134.45 145.994 137.375 145.006 138.456C144.717 138.762 144.432 138.917 144.154 138.917ZM141.093 129.913H141.077C140.058 129.913 138.37 132.513 137.791 134.963C137.469 136.326 137.601 137.268 138.148 137.547C140.049 138.512 144.084 138.569 144.123 138.569H144.147C144.37 138.569 144.59 138.379 144.736 138.212C145.653 137.209 146.471 134.382 146.271 132.902C146.044 131.192 142.978 129.913 141.091 129.913H141.093Z" fill="#D0A48D"/>
<path d="M139.277 107.275C133.332 107.275 122.915 98.3218 122.447 97.9179C122.348 97.8202 122.29 97.6885 122.284 97.5495C122.278 97.4105 122.326 97.2746 122.417 97.1692C122.507 97.0638 122.635 96.9969 122.773 96.982C122.911 96.967 123.05 97.0052 123.161 97.0888C123.279 97.1924 134.983 107.252 140.112 106.094C140.182 106.076 140.255 106.072 140.327 106.083C140.398 106.094 140.467 106.12 140.528 106.158C140.59 106.197 140.643 106.247 140.684 106.307C140.726 106.366 140.755 106.434 140.769 106.505C140.801 106.646 140.776 106.795 140.699 106.919C140.621 107.042 140.498 107.129 140.357 107.162C140.002 107.239 139.64 107.277 139.277 107.275Z" fill="#F59A6D"/>
<path d="M138.393 126.01C134.774 126.01 128.989 122.336 128.719 122.162C128.597 122.084 128.511 121.96 128.479 121.818C128.448 121.676 128.475 121.527 128.553 121.405C128.59 121.343 128.64 121.289 128.699 121.247C128.758 121.205 128.825 121.176 128.896 121.16C128.967 121.145 129.04 121.144 129.111 121.158C129.182 121.172 129.25 121.2 129.31 121.24C131.235 122.471 136.761 125.529 139.181 124.814C139.251 124.79 139.326 124.78 139.4 124.785C139.475 124.79 139.547 124.81 139.614 124.845C139.68 124.879 139.739 124.926 139.786 124.984C139.833 125.042 139.869 125.108 139.889 125.18C139.91 125.252 139.916 125.327 139.906 125.401C139.897 125.475 139.873 125.546 139.835 125.611C139.797 125.675 139.746 125.731 139.686 125.775C139.626 125.819 139.557 125.85 139.485 125.867C139.129 125.965 138.762 126.013 138.393 126.01Z" fill="#F59A6D"/>
<path d="M216.165 96.2542C214.14 96.2542 211.655 95.6395 211.099 93.7345C209.133 87.0207 211.581 83.2644 213.981 81.2951L214.122 81.179L214.231 81.3255C214.537 81.7485 214.736 82.2389 214.812 82.7551C215.237 85.3302 216.241 90.4107 217.56 95.9612L217.603 96.1399L217.415 96.1667C217.001 96.224 216.583 96.2533 216.165 96.2542ZM214.049 81.6919C211.78 83.6272 209.555 87.2495 211.424 93.6452C212.023 95.6949 215.177 96.0791 217.171 95.8593C215.881 90.375 214.883 85.3695 214.462 82.8141C214.401 82.4162 214.26 82.0345 214.049 81.6919Z" fill="#D0A48D"/>
<path d="M155.336 191.28C155.295 191.285 155.254 191.285 155.213 191.28C149.084 190.891 145.369 188.62 143.33 186.783C141.084 184.758 140.319 182.814 140.292 182.731C140.221 182.557 140.222 182.361 140.295 182.187C140.367 182.013 140.506 181.875 140.68 181.802C140.765 181.769 140.855 181.752 140.946 181.754C141.037 181.756 141.127 181.776 141.21 181.813C141.293 181.85 141.368 181.903 141.431 181.969C141.493 182.036 141.542 182.114 141.573 182.199C141.573 182.217 142.288 183.959 144.304 185.759C146.176 187.426 149.605 189.488 155.297 189.851C155.486 189.846 155.67 189.916 155.808 190.046C155.946 190.177 156.026 190.356 156.031 190.546C156.036 190.736 155.966 190.919 155.836 191.057C155.705 191.195 155.525 191.275 155.336 191.28Z" fill="#E7B79F"/>
<path d="M141.652 143.501H141.606C137.966 143.483 124.761 138.803 124.202 138.605C124.074 138.55 123.971 138.45 123.914 138.323C123.858 138.196 123.852 138.052 123.897 137.92C123.942 137.789 124.036 137.68 124.159 137.615C124.282 137.55 124.425 137.534 124.559 137.57C124.695 137.618 138.139 142.395 141.602 142.406H141.643C144.899 142.406 146.507 140.797 146.521 140.776C146.623 140.672 146.761 140.612 146.906 140.61C147.051 140.607 147.192 140.662 147.297 140.762C147.35 140.81 147.392 140.869 147.421 140.935C147.451 141.001 147.467 141.071 147.468 141.143C147.47 141.215 147.457 141.287 147.43 141.353C147.403 141.42 147.364 141.481 147.313 141.532C147.241 141.614 145.405 143.501 141.652 143.501Z" fill="#E7B79F"/>
<path d="M241.37 30.3974H176.996C174.432 30.3974 172.352 32.4768 172.352 35.0418V65.7856C172.352 68.3507 174.432 70.4301 176.996 70.4301H241.37C243.935 70.4301 246.014 68.3507 246.014 65.7856V35.0418C246.014 32.4768 243.935 30.3974 241.37 30.3974Z" fill="#EF7E29"/>
<path d="M186.955 85.0353L190.339 66.5076L204.464 67.3743L186.955 85.0353Z" fill="#EF8062"/>
<path d="M260.143 32.7741C260.143 36.88 258.926 40.8936 256.645 44.3074C254.364 47.7212 251.121 50.3818 247.328 51.9527C243.535 53.5236 239.361 53.9342 235.335 53.1327C231.308 52.3312 227.61 50.3535 224.707 47.4497C221.805 44.5459 219.829 40.8465 219.029 36.8194C218.228 32.7923 218.641 28.6184 220.213 24.8255C221.785 21.0326 224.446 17.7911 227.86 15.5111C231.275 13.231 235.288 12.0148 239.394 12.0162C242.122 12.0053 244.826 12.5349 247.349 13.5743C249.872 14.6137 252.164 16.1424 254.093 18.0722C256.022 20.002 257.549 22.2948 258.588 24.8181C259.626 27.3414 260.155 30.0455 260.143 32.7741Z" fill="#4656CC"/>
<path d="M247.328 42C250 43 253 43.5 255.5 45.5C253.219 48.9138 251.121 50.3818 247.328 51.9527C243.535 53.5236 239.361 53.9342 235.335 53.1327C231.308 52.3312 227.61 50.3535 224.707 47.4497C222.5 45.5 225.5 45 227 44.5C228.5 44.5 230.928 46.2929 232.5 42.5C235.5 45.5 226.586 48.2801 230 46C233.414 43.7199 238.394 44.9986 242.5 45C245.228 44.9891 241.477 42.4606 244 43.5C246.523 44.5394 243.571 43.0702 245.5 45C247.429 46.9298 245.962 42.4767 247 45C248.039 47.5234 243.828 43 247.328 42Z" fill="#2A2E40"/>
<path d="M217.319 45.2868H187.669C187.276 45.2868 186.956 45.606 186.956 45.9998V46.0624C186.956 46.4562 187.276 46.7754 187.669 46.7754H217.319C217.713 46.7754 218.032 46.4562 218.032 46.0624V45.9998C218.032 45.606 217.713 45.2868 217.319 45.2868Z" fill="#FFD1B1"/>
<path d="M217.319 52.4045H187.669C187.276 52.4045 186.956 52.7237 186.956 53.1175V53.1801C186.956 53.5739 187.276 53.8931 187.669 53.8931H217.319C217.713 53.8931 218.032 53.5739 218.032 53.1801V53.1175C218.032 52.7237 217.713 52.4045 217.319 52.4045Z" fill="#FFD1B1"/>
<path d="M208.022 59.5204H187.267C186.936 59.5204 186.667 59.7892 186.667 60.1208V60.4085C186.667 60.7401 186.936 61.009 187.267 61.009H208.022C208.353 61.009 208.622 60.7401 208.622 60.4085V60.1208C208.622 59.7892 208.353 59.5204 208.022 59.5204Z" fill="#FFD1B1"/>
<path d="M232.486 59.5204H211.731C211.4 59.5204 211.131 59.7892 211.131 60.1208V60.4085C211.131 60.7401 211.4 61.009 211.731 61.009H232.486C232.818 61.009 233.086 60.7401 233.086 60.4085V60.1208C233.086 59.7892 232.818 59.5204 232.486 59.5204Z" fill="#FFD1B1"/>
<path d="M105.352 125.583L174.198 125.583C176.942 125.583 179.166 123.358 179.166 120.615V87.7355C179.166 84.9918 176.942 82.7676 174.198 82.7676H105.352C102.608 82.7676 100.384 84.9918 100.384 87.7355V120.615C100.384 123.358 102.608 125.583 105.352 125.583Z" fill="#4656CC"/>
<path d="M163.548 141.203L159.93 121.387L144.822 122.314L163.548 141.203Z" fill="#4656CC"/>
<path d="M84.3828 88.4379C84.3848 89.4611 84.4744 90.4822 84.6508 91.4901C84.6812 91.6688 84.717 91.8636 84.7563 92.0476C85.1239 93.8522 85.7688 95.589 86.6682 97.196C86.8219 97.4712 86.9839 97.7429 87.1543 98.0109C87.1657 98.0324 87.1782 98.0533 87.1918 98.0735C87.4991 98.5595 87.8315 99.0277 88.1835 99.4781C88.2585 99.5763 88.3372 99.6728 88.414 99.7693C91.3686 103.408 95.6276 105.748 100.283 106.291C104.938 106.834 109.621 105.536 113.334 102.675C113.763 102.346 114.176 101.997 114.574 101.628C115.215 101.035 115.812 100.397 116.361 99.7175L116.491 99.5513C118.26 97.2985 119.464 94.6557 120.005 91.8429C120.545 89.0302 120.405 86.129 119.598 83.3811C118.79 80.6333 117.337 78.1183 115.36 76.0458C113.383 73.9733 110.94 72.4032 108.233 71.4665C105.527 70.5297 102.636 70.2534 99.8008 70.6604C96.9659 71.0675 94.2693 72.1463 91.9358 73.8068C89.6022 75.4673 87.6993 77.6614 86.3855 80.2065C85.0716 82.7515 84.385 85.5737 84.3828 88.4379Z" fill="#EF7E29"/>
<path d="M88.1746 99.478C88.2496 99.5763 88.3282 99.6728 88.4051 99.7693C91.3596 103.408 95.6187 105.748 100.274 106.291C104.929 106.834 109.612 105.536 113.325 102.675C113.754 102.346 114.167 101.997 114.565 101.628C113.979 99.0938 112.69 97.7428 111.106 96.9208C109.521 96.0987 107.607 95.7914 105.822 95.3643C105.582 95.3107 105.345 95.2499 105.107 95.1856C102.532 94.4851 100.352 94.5333 98.5563 94.9515C95.933 95.5619 93.6164 97.0948 92.0288 99.2707C91.1408 100.588 89.5397 99.5763 88.1746 99.478Z" fill="#92A5E6"/>
<path d="M98.2078 94.4672C93.5619 94.7621 89.9346 96.1667 87.1453 98.0109C87.1567 98.0323 87.1692 98.0532 87.1828 98.0734C87.4901 98.5595 87.8225 99.0277 88.1745 99.478C88.2495 99.5763 88.3282 99.6728 88.405 99.7693C91.3596 103.408 95.6186 105.748 100.274 106.291C104.929 106.834 109.612 105.536 113.325 102.675C113.754 102.346 114.167 101.997 114.565 101.628C115.206 101.035 115.803 100.397 116.352 99.7175L116.482 99.5513C115.212 97.8079 113.479 96.4557 111.479 95.6484C109.771 94.9336 107.691 94.4618 105.153 94.3689C104.027 94.3251 102.899 94.3501 101.776 94.444C100.427 94.5494 99.5748 94.385 98.2543 94.4654H98.2114L98.2078 94.4672Z" fill="#8E86D8"/>
<path d="M98.2079 94.469C99.4301 96.4347 102.838 98.0913 104.941 97.4211C106.728 96.8511 105.493 94.4601 105.493 94.4601C104.684 94.3135 104.305 93.8346 104.362 93.0144L104.435 92.0083L104.473 91.5097L104.587 89.9139L104.689 88.4843L105.114 82.6104L102.673 88.2806L102.257 89.2438L100.827 92.5658C100.602 93.0841 100.242 93.5333 99.7861 93.8673C99.33 94.2013 98.7934 94.4083 98.2311 94.4672L98.2079 94.469Z" fill="#FAC8AF"/>
<path d="M102.257 89.2402C102.257 89.2402 102.972 91.104 104.473 91.5097L104.587 89.9139C103.66 89.5761 102.257 89.2402 102.257 89.2402Z" fill="#EA9967"/>
<path d="M98.4723 81.6382C98.4723 81.6382 98.6992 82.6032 98.1453 84.5797C97.334 87.4711 100.647 88.6791 101.485 87.8535C101.589 87.7516 101.451 82.832 101.451 82.832L100.395 82.2047L98.4723 81.6382Z" fill="#331832"/>
<path d="M105.379 90.3553C108.427 90.3553 110.898 87.3062 110.898 83.545C110.898 79.7837 108.427 76.7346 105.379 76.7346C102.33 76.7346 99.8589 79.7837 99.8589 83.545C99.8589 87.3062 102.33 90.3553 105.379 90.3553Z" fill="#FAC8AF"/>
<path d="M107.566 78.318C107.412 78.527 108.28 82.0314 101.79 82.8677C95.3006 83.704 99.1995 75.8287 103.988 75.6517C110.904 75.3944 111.91 80.0442 111.247 81.7169C110.584 83.3895 107.566 78.318 107.566 78.318Z" fill="#331832"/>
<path d="M102.507 81.7526C102.507 81.7526 99.8536 84.5511 100.774 87.4103C100.774 87.4103 99.2353 85.7305 99.2013 85.1033C99.1674 84.476 99.5766 82.2083 99.5766 82.2083L102.507 81.7526Z" fill="#331832"/>
<path d="M100.599 84.5725C101.222 85.1712 102.098 85.2319 102.55 84.7101C103.002 84.1883 102.865 83.2805 102.239 82.6836C101.614 82.0868 100.74 82.026 100.286 82.5478C99.8322 83.0696 99.9733 83.9757 100.599 84.5725Z" fill="#FAC8AF"/>
<path d="M105.915 83.6111C105.933 83.6066 105.951 83.5976 105.966 83.5849C105.98 83.5721 105.992 83.556 105.999 83.5379C106.011 83.5068 106.011 83.4721 105.998 83.4413C105.985 83.4105 105.96 83.3862 105.929 83.3735C105.657 83.2452 105.35 83.2107 105.056 83.2753C104.762 83.34 104.498 83.5002 104.305 83.7309C104.281 83.7546 104.268 83.7867 104.268 83.8202C104.268 83.8537 104.281 83.8858 104.305 83.9096C104.33 83.9308 104.361 83.9425 104.394 83.9425C104.427 83.9425 104.458 83.9308 104.483 83.9096C104.887 83.6627 105.362 83.5565 105.832 83.6076C105.859 83.6184 105.888 83.6197 105.915 83.6111Z" fill="#080435"/>
<path d="M104.592 84.9478C104.583 85.2462 104.751 85.4946 104.969 85.5017C105.187 85.5089 105.37 85.2712 105.379 84.9656C105.388 84.6601 105.221 84.417 105.003 84.4099C104.785 84.4027 104.601 84.6475 104.592 84.9478Z" fill="#080435"/>
<path d="M110.396 84.2669C110.415 84.2687 110.435 84.2663 110.453 84.2599C110.471 84.2534 110.488 84.243 110.502 84.2294C110.525 84.2056 110.538 84.1735 110.538 84.14C110.538 84.1066 110.525 84.0745 110.502 84.0507C110.298 83.8281 110.026 83.6795 109.729 83.628C109.432 83.5766 109.126 83.6253 108.859 83.7666C108.829 83.7802 108.806 83.8051 108.794 83.8359C108.783 83.8667 108.784 83.9008 108.797 83.931C108.812 83.9599 108.837 83.9824 108.868 83.9942C108.898 84.006 108.932 84.0064 108.963 83.9953C109.431 83.9206 109.91 84.0029 110.326 84.2294C110.345 84.2491 110.369 84.2623 110.396 84.2669Z" fill="#080435"/>
<path d="M108.563 84.9567C108.439 85.2301 108.502 85.525 108.7 85.6143C108.899 85.7037 109.158 85.5536 109.281 85.2802C109.404 85.0067 109.344 84.7137 109.145 84.6243C108.947 84.535 108.686 84.6833 108.563 84.9567Z" fill="#080435"/>
<path d="M91.3338 90.2463L91.491 89.9336C91.2891 89.796 90.7763 88.277 91.164 87.0261C91.5035 85.9146 92.4148 85.3481 93.855 85.3445C98.1435 85.3356 98.8368 81.8187 98.844 81.783L98.4991 81.7204C98.4741 81.8545 97.8451 84.9853 93.8532 84.9942C91.7233 84.9942 90.9943 86.1576 90.7727 87.1279C90.4582 88.4646 90.9621 90.0586 91.3338 90.2463Z" fill="#331832"/>
<path d="M108.221 87.6426C108.221 87.6426 107.707 88.7988 106.622 88.8023C105.286 88.8023 105.014 87.412 105.014 87.412C105.014 87.412 106.654 87.9589 108.221 87.6426Z" fill="white"/>
<path d="M145.574 96.903H124.82C124.488 96.903 124.219 97.1718 124.219 97.5034V97.7911C124.219 98.1227 124.488 98.3915 124.82 98.3915H145.574C145.906 98.3915 146.175 98.1227 146.175 97.7911V97.5034C146.175 97.1718 145.906 96.903 145.574 96.903Z" fill="#E4DFFF"/>
<path d="M170.037 96.903H149.282C148.95 96.903 148.682 97.1718 148.682 97.5034V97.7911C148.682 98.1227 148.95 98.3915 149.282 98.3915H170.037C170.368 98.3915 170.637 98.1227 170.637 97.7911V97.5034C170.637 97.1718 170.368 96.903 170.037 96.903Z" fill="#E4DFFF"/>
<path d="M169.894 105.802H125.098C124.901 105.802 124.713 105.723 124.573 105.584C124.434 105.445 124.356 105.256 124.355 105.059C124.356 104.862 124.434 104.673 124.573 104.534C124.713 104.394 124.901 104.316 125.098 104.315H169.894C170.091 104.316 170.279 104.394 170.419 104.534C170.558 104.673 170.636 104.862 170.637 105.059C170.636 105.256 170.558 105.445 170.419 105.584C170.279 105.723 170.091 105.802 169.894 105.802Z" fill="#E4DFFF"/>
<path d="M145.506 111.726H119.674C119.305 111.726 119.007 112.025 119.007 112.393V112.548C119.007 112.916 119.305 113.215 119.674 113.215H145.506C145.875 113.215 146.173 112.916 146.173 112.548V112.393C146.173 112.025 145.875 111.726 145.506 111.726Z" fill="#E4DFFF"/>
<path d="M170.037 111.726H149.282C148.95 111.726 148.682 111.995 148.682 112.327V112.614C148.682 112.946 148.95 113.215 149.282 113.215H170.037C170.368 113.215 170.637 112.946 170.637 112.614V112.327C170.637 111.995 170.368 111.726 170.037 111.726Z" fill="#E4DFFF"/>
<path d="M198.452 129.608L174.769 132.416C173.527 132.563 172.64 133.689 172.787 134.931L173.484 140.81C173.631 142.052 174.757 142.939 175.998 142.792L199.682 139.985C200.924 139.837 201.811 138.711 201.664 137.47L200.967 131.59C200.82 130.349 199.694 129.461 198.452 129.608Z" fill="#EF7E29"/>
<path d="M175.278 149.385L151.594 152.192C150.353 152.339 149.465 153.465 149.613 154.707L150.309 160.586C150.457 161.828 151.582 162.715 152.824 162.568L176.508 159.761C177.749 159.613 178.637 158.487 178.489 157.246L177.793 151.366C177.645 150.125 176.52 149.237 175.278 149.385Z" fill="#4656CC"/>
<path d="M143.796 70.6552C144.189 70.2964 144.679 70.0623 145.204 69.9828C145.73 69.9032 146.267 69.9818 146.748 70.2085C147.127 70.3872 147.463 69.8207 147.077 69.6474C146.47 69.3545 145.789 69.2503 145.122 69.3481C144.455 69.4459 143.833 69.7412 143.335 70.196C143.021 70.473 143.484 70.9322 143.796 70.6552Z" fill="#331832"/>
<path d="M142.417 69.4848C143.534 67.805 146.371 67.3404 148.085 68.3822C148.442 68.5984 148.773 68.0355 148.414 67.8193C146.382 66.5952 143.171 67.1759 141.854 69.1559C141.622 69.5044 142.186 69.8314 142.417 69.4848Z" fill="#331832"/>
<path d="M141.053 68.1106C142.499 65.5498 145.892 65.1495 148.43 66.2181C148.816 66.3807 148.984 65.7499 148.608 65.5891C145.796 64.4043 142.077 64.9797 140.496 67.7817C140.29 68.1391 140.853 68.4751 141.059 68.1106H141.053Z" fill="#331832"/>
<path d="M144.881 71.4505C144.881 71.3303 144.917 71.2128 144.983 71.1129C145.05 71.013 145.145 70.9351 145.256 70.8891C145.367 70.8432 145.489 70.8311 145.607 70.8546C145.725 70.878 145.833 70.9359 145.918 71.0208C146.003 71.1058 146.061 71.2141 146.084 71.3319C146.108 71.4498 146.096 71.572 146.05 71.683C146.004 71.794 145.926 71.8889 145.826 71.9557C145.726 72.0224 145.609 72.0581 145.488 72.0581C145.327 72.0581 145.173 71.994 145.059 71.8801C144.945 71.7662 144.881 71.6116 144.881 71.4505Z" fill="#331832"/>
<path d="M252.308 45.8365C252.233 45.9348 252.154 46.0313 252.077 46.1278C249.123 49.7664 244.863 52.1066 240.208 52.6494C235.553 53.1922 230.87 51.8947 227.157 49.0335C226.729 48.7047 226.315 48.3556 225.917 47.9863C226.503 45.4523 227.792 44.1013 229.377 43.2793C230.962 42.4573 232.875 42.1499 234.66 41.7228C234.9 41.6692 235.138 41.6084 235.375 41.5441C237.95 40.8436 240.13 40.8919 241.926 41.31C244.549 41.9204 246.866 43.4533 248.453 45.6292C249.341 46.9463 250.942 45.9348 252.308 45.8365Z" fill="#92A5E6"/>
<path d="M242.274 40.8257C246.92 41.1206 250.548 42.5252 253.337 44.3694C253.325 44.3908 253.313 44.4117 253.299 44.4319C252.992 44.918 252.66 45.3862 252.308 45.8365C252.233 45.9348 252.154 46.0313 252.077 46.1278C249.123 49.7663 244.864 52.1066 240.208 52.6494C235.553 53.1922 230.87 51.8947 227.157 49.0335C226.729 48.7047 226.315 48.3556 225.917 47.9863C225.276 47.3936 224.679 46.7552 224.13 46.076L224 45.9098C225.27 44.1664 227.003 42.8143 229.003 42.0069C230.712 41.2921 232.791 40.8204 235.329 40.7274C236.455 40.6836 237.583 40.7087 238.706 40.8025C240.055 40.9079 240.907 40.7435 242.228 40.8239H242.271L242.274 40.8257Z" fill="#2A2E40"/>
<path d="M242.274 40.8275C241.052 42.7932 237.645 44.4498 235.541 43.7797C233.754 43.2096 234.989 40.8186 234.989 40.8186C235.799 40.672 236.177 40.1931 236.12 39.3729L236.047 38.3668L236.01 37.8682L235.895 36.2724L235.793 34.8428L235.368 28.9689L237.809 34.6391L238.225 35.6023L239.655 38.9243C239.881 39.4427 240.24 39.8918 240.696 40.2258C241.152 40.5599 241.689 40.7669 242.251 40.8257L242.274 40.8275Z" fill="#FAC8AF"/>
<path d="M238.225 35.5987C238.225 35.5987 237.511 37.4626 236.01 37.8682L235.895 36.2724C236.823 35.9347 238.225 35.5987 238.225 35.5987Z" fill="#EA9967"/>
<path d="M235.104 36.7138C232.055 36.7138 229.584 33.6647 229.584 29.9035C229.584 26.1422 232.055 23.0932 235.104 23.0932C238.152 23.0932 240.623 26.1422 240.623 29.9035C240.623 33.6647 238.152 36.7138 235.104 36.7138Z" fill="#FAC8AF"/>
<path d="M232.917 24.6765C233.07 24.8856 232.202 28.3899 238.692 29.2262C243.5 30 241 22 236.494 22.0103C229.579 21.7529 228.573 26.4027 229.236 28.0754C229.899 29.748 232.917 24.6765 232.917 24.6765Z" fill="#331832"/>
<path d="M237.975 28.1111C237.975 28.1111 240.705 30.6408 239.785 33.5C239.785 33.5 241.042 31.3584 241.076 30.7312C241.11 30.1039 241 28.5 241 28.5L237.975 28.1111Z" fill="#331832"/>
<path d="M239.883 30.931C239.26 31.5297 238.384 31.5905 237.932 31.0686C237.48 30.5468 237.618 29.639 238.243 29.0422C238.868 28.4453 239.742 28.3845 240.196 28.9063C240.65 29.4282 240.509 30.3342 239.883 30.931Z" fill="#FAC8AF"/>
<path d="M234.607 29.198C234.588 29.1993 234.569 29.1959 234.551 29.188C234.533 29.1801 234.518 29.168 234.506 29.1528C234.485 29.1268 234.475 29.0935 234.478 29.0603C234.482 29.027 234.498 28.9964 234.524 28.9752C234.746 28.7723 235.029 28.6487 235.329 28.6238C235.629 28.5989 235.928 28.674 236.181 28.8375C236.211 28.8532 236.233 28.88 236.243 28.912C236.253 28.944 236.249 28.9785 236.234 29.0082C236.216 29.0359 236.189 29.0564 236.158 29.0661C236.127 29.0757 236.093 29.0739 236.063 29.0609C235.604 28.9442 235.12 28.9827 234.685 29.1704C234.663 29.1884 234.636 29.1983 234.607 29.198Z" fill="#080435"/>
<path d="M235.89 31.3063C235.899 31.6047 235.731 31.8531 235.513 31.8603C235.295 31.8674 235.113 31.6297 235.104 31.3242C235.095 31.0186 235.261 30.7756 235.479 30.7684C235.697 30.7613 235.881 31.0061 235.89 31.3063Z" fill="#080435"/>
<path d="M230.06 29.5584C230.04 29.5585 230.021 29.5544 230.004 29.5463C229.986 29.5382 229.97 29.5264 229.958 29.5116C229.937 29.4858 229.926 29.4527 229.929 29.4193C229.932 29.386 229.948 29.3552 229.974 29.3336C230.197 29.1302 230.481 29.0064 230.781 28.9818C231.082 28.9572 231.382 29.0331 231.635 29.1976C231.664 29.2139 231.685 29.2408 231.694 29.2725C231.702 29.3042 231.698 29.3381 231.683 29.3669C231.665 29.3944 231.638 29.4145 231.606 29.4236C231.575 29.4326 231.541 29.43 231.511 29.4161C231.052 29.2998 230.567 29.3389 230.132 29.5273C230.112 29.5453 230.087 29.5562 230.06 29.5584Z" fill="#080435"/>
<path d="M231.919 31.3152C232.043 31.5886 231.98 31.8835 231.782 31.9728C231.583 32.0622 231.324 31.9121 231.201 31.6387C231.078 31.3653 231.139 31.0722 231.337 30.9828C231.535 30.8935 231.796 31.0418 231.919 31.3152Z" fill="#080435"/>
<path d="M232.261 34.0011C232.261 34.0011 232.775 35.1573 233.86 35.1609C235.197 35.1609 235.468 33.7706 235.468 33.7706C235.468 33.7706 233.86 33 232.261 34.0011Z" fill="white"/>
</svg>
