<svg width="372" height="246" viewBox="0 0 372 246" fill="none" xmlns="http://www.w3.org/2000/svg">
<path d="M26.6466 245.896C26.6466 245.896 -19.6695 201.24 9.82398 148.727C39.3174 96.2147 78.9063 122.642 77.0126 61.5133C75.119 0.385062 168.094 -4.83921 197.682 12.8948C227.269 30.6287 227.083 51.9769 288.179 44.9312C349.275 37.8856 360.925 96.7714 345.02 126.772C322.453 169.342 407.595 162.347 353.917 246L26.6466 245.896Z" fill="#F4F2FF" fill-opacity="0.45"/>
<path d="M313.298 88.786C313.301 93.3214 312.895 97.848 312.084 102.311C310.2 112.637 306.158 122.451 300.221 131.112C286.686 150.888 263.928 163.867 238.137 163.867C207.456 163.867 181.067 145.505 169.389 119.178C167.835 115.683 166.555 112.073 165.561 108.38C162.437 96.7616 162.134 84.5661 164.678 72.8072C164.688 72.7465 164.704 72.6905 164.714 72.6313C168.698 54.6589 179.136 38.7676 194.053 27.9616C195.598 26.8409 197.188 25.7798 198.822 24.7783C210.643 17.5089 224.257 13.6709 238.138 13.6943C240.05 13.6943 241.943 13.7655 243.818 13.908C257.19 14.8943 270.05 19.4604 281.046 27.1264C289.282 32.8541 296.292 40.1659 301.664 48.6336C302.814 50.4526 303.889 52.3192 304.889 54.2332C310.433 64.9075 313.317 76.7604 313.298 88.786Z" fill="#C8BEFF"/>
<path opacity="0.7" d="M212.599 55.1731C209.599 59.9178 213.851 68.158 204.86 65.9115C195.87 63.665 190.361 62.6645 189.862 67.6563C189.363 72.6481 196.612 72.6587 196.612 77.8975C196.612 83.1364 193.361 84.8705 188.363 82.3845C183.365 79.8985 181.925 76.271 176.113 78.519C170.301 80.7671 166.928 79.2679 165.616 74.7733C165.416 74.0692 165.101 73.4032 164.682 72.8027C164.693 72.742 164.708 72.686 164.719 72.6268C168.703 54.6544 179.14 38.7631 194.058 27.9571C195.603 26.8364 197.192 25.7753 198.827 24.7738C201.17 24.8587 203.971 25.747 206.359 28.6984C211.608 35.1939 215.107 31.9454 213.858 39.4368C212.61 46.9283 214.608 47.9257 218.857 47.6771C223.105 47.4285 228.113 47.427 228.604 50.674C229.096 53.921 215.597 50.4269 212.599 55.1731Z" fill="#E4DFFF"/>
<path opacity="0.7" d="M243.718 100.119C243.718 100.119 237.094 102.241 235.345 97.622C233.595 93.0031 235.595 92.0042 229.721 90.6308C223.847 89.2574 223.348 85.2616 219.597 85.7618C215.846 86.262 217.723 87.7582 213.348 91.0052C208.974 94.2522 204.975 92.753 205.1 98.7452C205.224 104.737 211.723 105.674 213.036 109.608C214.348 113.542 212.1 115.226 214.911 118.223C217.723 121.22 222.972 119.908 220.535 124.028C218.098 128.149 214.348 131.332 216.224 137.7C218.099 144.068 216.785 144.441 219.972 148.936C223.158 153.43 229.346 154.929 230.283 151.933C231.219 148.936 225.972 145.004 227.659 142.007C229.346 139.01 232.158 141.07 233.282 136.575C234.407 132.081 238.97 132.081 239.352 128.96C239.734 125.838 233.853 121.094 236.102 119.096C238.351 117.098 242.851 122.717 246.35 117.722C249.849 112.728 247.475 108.733 251.1 103.99C254.725 99.247 246.218 97.3719 243.718 100.119Z" fill="#E4DFFF"/>
<path opacity="0.7" d="M313.298 88.786C313.301 93.3215 312.895 97.848 312.084 102.311C310.2 112.637 306.158 122.451 300.221 131.112C298.264 131.785 296.13 131.727 294.212 130.95C284.838 127.204 291.774 117.092 295.523 112.035C299.273 106.978 289.712 109.226 282.777 104.545C275.843 99.864 283.527 87.3156 276.404 89.3757C269.281 91.4358 260.656 94.0567 256.526 87.1276C252.396 80.1986 260.276 79.0753 256.714 73.2696C253.153 67.4638 258.776 64.0925 265.899 63.5301C273.022 62.9677 272.086 57.9123 280.897 57.1634C289.709 56.4146 289.52 67.6502 299.268 66.9014C309.016 66.1525 308.578 68.3991 308.578 68.3991C309.28 68.3831 309.977 68.5294 310.614 68.8265C312.4 75.3294 313.303 82.0427 313.298 88.786Z" fill="#E4DFFF"/>
<path opacity="0.7" d="M304.886 54.2332C296.78 58.1745 293.525 47.4572 286.596 50.6785C279.616 53.9255 280.83 47.6816 275.337 43.6858C269.844 39.6899 258.84 46.9328 259.338 40.6889C259.835 34.445 268.086 36.1943 269.837 31.201C271.588 26.2078 279.584 27.4553 279.584 27.4553C280.052 27.2791 280.542 27.1684 281.04 27.1264C281.04 27.1264 281.04 27.1264 281.04 27.1264C289.276 32.854 296.286 40.1658 301.658 48.6336C302.812 50.4496 303.888 52.3161 304.886 54.2332Z" fill="#E4DFFF"/>
<path opacity="0.7" d="M236.602 32.6987C236.602 32.6987 240.851 26.5746 234.102 24.7677C227.352 22.9607 227.478 25.3255 222.23 24.7677C216.981 24.2098 214.919 28.2663 218.855 32.6987C222.791 37.1311 225.987 45.6367 229.54 41.1027C233.094 36.5687 232.408 33.1292 236.602 32.6987Z" fill="#E4DFFF"/>
<path opacity="0.5" d="M305.213 186.232C305.213 186.232 310.709 166.652 322.798 156.338C324.405 154.973 326.851 156.38 326.483 158.46C326.483 158.495 326.469 158.53 326.463 158.565C325.775 162.095 311.976 175.326 305.213 186.232Z" fill="#8E86D8"/>
<path opacity="0.5" d="M303.08 191.745C303.08 191.745 317.164 168.401 336.311 160.076C337.478 159.568 338.878 160.036 339.428 161.182C339.787 161.928 339.831 163.015 339.054 164.578C336.976 168.748 315.246 180.49 303.08 191.745Z" fill="#7165E3"/>
<path opacity="0.5" d="M71.8416 164.789C71.8416 164.789 66.3502 145.208 54.2565 134.894C52.6496 133.53 50.2035 134.935 50.5722 137.016C50.5722 137.051 50.5859 137.086 50.592 137.123C51.2793 140.658 65.0786 153.887 71.8416 164.789Z" fill="#8E86D8"/>
<path opacity="0.5" d="M73.9768 170.307C73.9768 170.307 59.8908 146.962 40.7457 138.637C39.5789 138.131 38.1783 138.597 37.6275 139.743C37.2679 140.491 37.2239 141.576 38.0008 143.141C40.0811 147.311 61.8088 159.053 73.9768 170.307Z" fill="#7165E3"/>
<path d="M236.328 63.2011L236.269 234.479C236.268 237.181 235.193 239.772 233.28 241.682C231.367 243.592 228.773 244.665 226.069 244.664L136.443 244.634C133.739 244.633 131.145 243.558 129.233 241.647C127.321 239.736 126.247 237.144 126.248 234.441L126.307 63.1632C126.31 60.4625 127.386 57.8736 129.299 55.9654C131.212 54.0572 133.805 52.9859 136.509 52.9871L226.135 53.0174C228.838 53.0194 231.43 54.0931 233.341 56.0025C235.252 57.9119 236.326 60.501 236.328 63.2011Z" fill="#D8D1FF"/>
<path d="M226.067 245.944L136.442 245.912C133.398 245.908 130.48 244.697 128.329 242.546C126.178 240.394 124.969 237.478 124.967 234.437L125.027 63.1587C125.031 60.1187 126.243 57.2047 128.395 55.0558C130.548 52.9069 133.466 51.6985 136.509 51.6957L226.134 51.7275C229.177 51.7315 232.094 52.9414 234.245 55.0915C236.397 57.2417 237.606 60.1566 237.609 63.1966L237.549 234.475C237.547 237.516 236.336 240.432 234.183 242.582C232.03 244.733 229.112 245.942 226.067 245.944ZM136.509 54.259C134.144 54.261 131.877 55.1997 130.205 56.8692C128.532 58.5387 127.59 60.8027 127.586 63.1648L127.529 234.443C127.53 236.805 128.469 239.07 130.141 240.741C131.812 242.412 134.079 243.352 136.444 243.355L226.069 243.387C228.433 243.385 230.7 242.446 232.372 240.776C234.045 239.107 234.986 236.843 234.99 234.481L235.049 63.2027C235.047 60.8405 234.107 58.5756 232.435 56.9049C230.764 55.2342 228.497 54.2941 226.133 54.2908L136.509 54.259Z" fill="#163560"/>
<path d="M143.031 69.2524L141.524 70.3332L140.007 69.263C140.177 69.0221 140.403 68.8254 140.666 68.6894C140.928 68.5533 141.219 68.4818 141.514 68.4807C141.81 68.4797 142.101 68.5492 142.365 68.6834C142.628 68.8176 142.855 69.0127 143.028 69.2524H143.031Z" fill="white"/>
<path d="M141.525 65.8478C140.806 65.8475 140.098 66.0203 139.46 66.3514C138.821 66.6825 138.273 67.1623 137.859 67.7502L138.815 68.4202C139.12 67.9884 139.524 67.6359 139.994 67.392C140.463 67.1482 140.984 67.0201 141.513 67.0184C142.042 67.0168 142.563 67.1417 143.034 67.3827C143.505 67.6236 143.911 67.9737 144.219 68.4035L145.172 67.7214C144.757 67.1419 144.21 66.6697 143.575 66.3438C142.941 66.018 142.238 65.8479 141.525 65.8478Z" fill="white"/>
<path d="M141.527 60.8439C140.005 60.8434 138.506 61.2087 137.156 61.9089C135.805 62.6091 134.644 63.6237 133.768 64.867L134.726 65.537C135.491 64.4523 136.505 63.5664 137.683 62.9534C138.861 62.3405 140.169 62.0183 141.497 62.0139C142.825 62.0094 144.135 62.3228 145.317 62.9279C146.499 63.5329 147.519 64.412 148.291 65.4916L149.24 64.8094C148.363 63.5828 147.206 62.5831 145.864 61.8934C144.523 61.2037 143.036 60.8439 141.527 60.8439Z" fill="white"/>
<path d="M141.527 63.5816C140.444 63.5817 139.378 63.8408 138.416 64.3371C137.454 64.8334 136.626 65.5526 135.999 66.4344L136.955 67.106C137.472 66.38 138.155 65.7875 138.947 65.3777C139.739 64.9679 140.618 64.7525 141.51 64.7494C142.402 64.7463 143.282 64.9555 144.076 65.3598C144.871 65.7641 145.558 66.3517 146.081 67.0741L147.031 66.3965C146.402 65.525 145.576 64.8153 144.619 64.3258C143.662 63.8364 142.602 63.5813 141.527 63.5816Z" fill="white"/>
<path d="M277.832 82.0388C277.832 89.5484 290.492 101.554 290.492 101.554C290.492 101.554 303.151 89.5484 303.151 82.0388C303.151 74.5292 297.484 68.4384 290.492 68.4384C283.5 68.4384 277.832 74.5277 277.832 82.0388ZM283.032 81.2415C283.032 79.7676 283.47 78.3268 284.289 77.1013C285.109 75.8759 286.274 74.9207 287.637 74.3567C289 73.7927 290.5 73.6451 291.947 73.9326C293.394 74.2202 294.723 74.9299 295.766 75.9721C296.81 77.0143 297.52 78.3421 297.808 79.7876C298.096 81.2332 297.948 82.7315 297.383 84.0932C296.819 85.4549 295.863 86.6188 294.636 87.4376C293.409 88.2564 291.967 88.6935 290.492 88.6935C288.515 88.6895 286.62 87.903 285.223 86.5062C283.825 85.1095 283.038 83.2164 283.035 81.2415H283.032Z" fill="#EF7E29"/>
<path d="M234.603 34.2358C234.603 41.4499 246.769 52.9872 246.769 52.9872C246.769 52.9872 258.93 41.4559 258.93 34.2419C258.93 27.0279 253.485 21.1796 246.769 21.1796C240.053 21.1796 234.603 27.0233 234.603 34.2358ZM239.598 33.4703C239.598 32.0549 240.018 30.6712 240.805 29.4942C241.592 28.3172 242.711 27.3998 244.02 26.8578C245.329 26.3159 246.769 26.1738 248.159 26.4495C249.548 26.7252 250.825 27.4063 251.827 28.4067C252.83 29.4072 253.513 30.682 253.79 32.0701C254.067 33.4583 253.926 34.8973 253.385 36.2053C252.843 37.5134 251.926 38.6317 250.748 39.419C249.571 40.2062 248.186 40.6271 246.769 40.6283C244.869 40.6263 243.047 39.8717 241.703 38.5299C240.358 37.1881 239.602 35.3687 239.598 33.4703Z" fill="#EF7E29"/>
<path d="M275.131 235.113H315.151V236.185C315.151 237.461 314.643 238.685 313.74 239.587C312.837 240.489 311.612 240.996 310.335 240.996H280.339C278.958 240.996 277.633 240.448 276.656 239.472C275.68 238.497 275.131 237.173 275.131 235.794V235.113Z" fill="#163560"/>
<path d="M316.523 185.726V233.438C316.522 233.999 316.46 234.558 316.337 235.105H310.735C309.568 235.105 308.449 235.569 307.624 236.393C306.798 237.217 306.335 238.336 306.335 239.501V240.989H284.401V239.501C284.402 238.924 284.289 238.352 284.069 237.818C283.848 237.284 283.524 236.798 283.115 236.39C282.706 235.981 282.22 235.658 281.686 235.437C281.151 235.217 280.578 235.104 280 235.105H273.946C273.822 234.558 273.759 233.999 273.759 233.438V185.726C273.759 184.734 273.954 183.751 274.333 182.835C274.713 181.918 275.269 181.085 275.971 180.383C276.673 179.681 277.506 179.124 278.424 178.744C279.341 178.364 280.324 178.168 281.317 178.168H308.966C309.959 178.168 310.942 178.364 311.859 178.745C312.776 179.125 313.609 179.682 314.311 180.383C315.013 181.085 315.569 181.918 315.949 182.835C316.328 183.752 316.523 184.734 316.523 185.726Z" fill="#EF7E29"/>
<path d="M303.192 178.142C293.288 174.243 286.38 178.081 286.31 178.121L285.953 177.499C286.027 177.457 287.792 176.456 290.844 175.95C293.646 175.485 298.111 175.371 303.455 177.477L303.192 178.142Z" fill="#163560"/>
<path d="M280.73 238.786H277.833V242.727H280.73V238.786Z" fill="#163560"/>
<path d="M277.222 243.324C277.222 242.917 277.343 242.52 277.57 242.181C277.797 241.843 278.118 241.579 278.495 241.424C278.872 241.268 279.286 241.228 279.686 241.307C280.085 241.387 280.452 241.583 280.74 241.871C281.028 242.159 281.224 242.526 281.304 242.925C281.383 243.324 281.342 243.738 281.186 244.114C281.03 244.49 280.766 244.812 280.427 245.038C280.088 245.264 279.69 245.385 279.283 245.385C279.012 245.385 278.744 245.331 278.494 245.228C278.244 245.124 278.016 244.972 277.825 244.781C277.634 244.59 277.482 244.363 277.378 244.113C277.275 243.863 277.222 243.595 277.222 243.324Z" fill="#1F4777"/>
<path d="M278.028 243.325C278.028 243.077 278.101 242.835 278.239 242.63C278.376 242.424 278.572 242.264 278.8 242.169C279.029 242.075 279.281 242.05 279.524 242.098C279.766 242.146 279.99 242.265 280.165 242.44C280.34 242.615 280.459 242.838 280.507 243.081C280.556 243.323 280.531 243.575 280.436 243.803C280.341 244.032 280.181 244.227 279.975 244.364C279.769 244.502 279.527 244.575 279.279 244.575C278.947 244.575 278.629 244.443 278.394 244.209C278.159 243.974 278.028 243.656 278.028 243.325Z" fill="#163560"/>
<path d="M310.521 238.786H307.624V242.727H310.521V238.786Z" fill="#163560"/>
<path d="M307.01 243.324C307.01 242.917 307.131 242.52 307.358 242.181C307.584 241.843 307.906 241.579 308.283 241.424C308.659 241.268 309.074 241.228 309.473 241.307C309.873 241.387 310.24 241.583 310.528 241.871C310.816 242.159 311.012 242.526 311.092 242.925C311.171 243.324 311.13 243.738 310.974 244.114C310.818 244.49 310.554 244.812 310.215 245.038C309.876 245.264 309.478 245.385 309.07 245.385C308.8 245.385 308.532 245.331 308.281 245.228C308.031 245.124 307.804 244.972 307.613 244.781C307.421 244.59 307.27 244.363 307.166 244.113C307.063 243.863 307.01 243.595 307.01 243.324Z" fill="#1F4777"/>
<path d="M307.822 243.325C307.822 243.077 307.895 242.835 308.033 242.63C308.17 242.424 308.366 242.264 308.595 242.169C308.824 242.074 309.075 242.05 309.318 242.098C309.561 242.146 309.784 242.266 309.959 242.441C310.134 242.616 310.253 242.839 310.302 243.082C310.35 243.324 310.325 243.576 310.23 243.804C310.135 244.033 309.974 244.228 309.768 244.365C309.562 244.502 309.32 244.575 309.072 244.575C308.908 244.575 308.745 244.543 308.593 244.48C308.441 244.417 308.304 244.325 308.187 244.209C308.071 244.093 307.979 243.955 307.917 243.803C307.854 243.651 307.822 243.489 307.822 243.325Z" fill="#163560"/>
<path d="M282.417 178.168V235.836C282.076 235.612 281.705 235.436 281.316 235.313V178.165L282.417 178.168Z" fill="#E06832"/>
<path d="M291.237 178.168H290.135V240.995H291.237V178.168Z" fill="#E06832"/>
<path d="M299.467 178.168H298.365V240.995H299.467V178.168Z" fill="#E06832"/>
<path d="M308.376 178.168V235.801C307.954 236.07 307.581 236.409 307.274 236.803V178.168H308.376Z" fill="#E06832"/>
<path d="M249.871 153.465C249.871 153.383 251.075 150.888 250.693 150.7C250.311 150.512 249.622 150.538 249.541 150.975C249.461 151.411 249.871 153.465 249.871 153.465Z" fill="#FAC8AF"/>
<path d="M250.326 154.952C250.326 154.708 250.044 150.978 249.416 150.235C248.787 149.492 247.501 148.437 247.096 148.469C246.69 148.501 245.109 150.602 245.578 152.21C246.047 153.818 248.061 156 248.061 156L250.326 154.952Z" fill="#FAC8AF"/>
<path d="M252.727 150.433L249.059 151.531C249.03 151.54 249 151.543 248.97 151.54C248.94 151.537 248.911 151.529 248.885 151.514C248.858 151.5 248.835 151.481 248.816 151.458C248.797 151.435 248.782 151.408 248.774 151.379L246.678 144.394C246.661 144.336 246.667 144.273 246.695 144.22C246.724 144.166 246.772 144.126 246.83 144.108L250.496 143.01C250.554 142.993 250.616 142.999 250.67 143.027C250.723 143.056 250.763 143.104 250.781 143.162L252.877 150.145C252.895 150.204 252.889 150.266 252.861 150.32C252.833 150.374 252.785 150.415 252.727 150.433Z" fill="#F1A34F"/>
<path d="M251.776 150.718L248.45 151.714C248.399 151.73 248.345 151.735 248.292 151.729C248.239 151.724 248.187 151.708 248.14 151.683C248.093 151.658 248.052 151.623 248.018 151.582C247.984 151.54 247.959 151.493 247.944 151.441L245.95 144.797C245.919 144.694 245.93 144.582 245.981 144.487C246.032 144.392 246.119 144.321 246.223 144.29L249.549 143.294C249.653 143.263 249.765 143.275 249.86 143.326C249.955 143.378 250.026 143.464 250.057 143.568L252.05 150.211C252.081 150.314 252.07 150.426 252.018 150.521C251.967 150.616 251.88 150.687 251.776 150.718Z" fill="#D86713"/>
<path d="M246.714 148.74C246.714 148.74 248.241 146.394 248.614 146.524C249.147 146.71 247.23 149.689 247.23 149.689C247.23 149.689 248.651 147.464 248.872 147.631C249.377 148.013 248.569 149.41 247.775 150.482C247.775 150.482 249.203 149.175 249.25 149.412C249.412 150.235 247.683 152.233 247.683 152.233L246.714 150.026V148.74Z" fill="#FAC8AF"/>
<path d="M245.569 150.92C245.643 150.634 246.024 145.028 246.176 145.56C246.327 146.092 246.714 149.03 246.714 149.03L245.569 150.92Z" fill="#FAC8AF"/>
<path d="M269.935 149.377C269.935 149.377 269.776 155.469 268.016 160.388C266.627 164.27 264.239 167.422 260.145 166.258C259.726 166.139 259.321 166.01 258.931 165.874C250.611 162.979 247.919 156.353 247.919 156.353C248.54 155.331 250.333 154.955 250.333 154.955C252.003 155.046 259.373 158.169 259.842 158.264C261.546 158.605 262.92 149.257 264.028 146.019C265.136 142.781 269.664 141.331 269.664 141.331L269.935 149.377Z" fill="#739AF0"/>
<path d="M268.177 155.997L268.016 160.393C266.627 164.275 264.239 167.426 260.145 166.262C259.726 166.144 259.321 166.015 258.931 165.879C259.063 165.895 261.57 166.233 262.618 165.186C263.696 164.107 263.583 160.535 265.57 158.154C267.556 155.772 268.177 155.997 268.177 155.997Z" fill="#5283DB"/>
<path d="M268.406 236.292C268.406 236.292 270.454 238.16 270.054 239.486C269.653 240.813 267.806 241.696 267.558 243.317C267.309 244.937 266.309 245.823 265.409 245.823H261.124C261.124 245.823 260.462 244.683 262.06 244.339C263.658 243.994 264.26 242.089 264.162 240.321C264.063 238.554 264.313 236.194 264.313 236.194L267.709 235.409L268.406 236.292Z" fill="#133054"/>
<path d="M245.847 245.483H258.465C258.703 245.483 258.931 245.391 259.101 245.225C259.271 245.06 259.369 244.835 259.376 244.598C259.396 243.858 259.333 242.779 258.921 241.878C258.247 240.387 257.822 240.126 260.667 235.784C259.811 236.664 257.505 236.262 255.558 236C255.32 236.386 251.708 241.959 250.912 242.532C250.041 243.162 246.117 242.938 245.847 245.483Z" fill="#163560"/>
<path d="M265.509 175.577C265.509 175.577 256.359 192.823 253.872 202.32C251.943 209.69 263.72 238.211 263.72 238.211C263.72 238.211 264.682 238.148 266.252 237.531C267.796 236.924 268.377 235.302 268.377 235.302C268.377 235.302 267.679 214.909 265.295 205.044C264.761 202.829 267.888 195.685 273.166 191.773C278.443 187.86 280.642 175.274 277.499 174.422C274.357 173.57 265.509 175.577 265.509 175.577Z" fill="#233862"/>
<path d="M273.34 170.681C273.34 170.681 263.723 205.904 260.805 213.812C257.887 221.72 253.261 238.509 253.261 238.509C255.374 239.369 257.688 239.62 259.937 239.232C259.937 239.232 274 218.649 274.612 209.552C274.896 205.347 289.042 188.677 287.466 177.809L273.34 170.681Z" fill="#2A4E96"/>
<path d="M287.436 181.671C287.436 181.671 285.389 182.702 281.77 183.005C277.627 183.352 271.423 182.743 263.864 178.539C263.864 178.539 261.755 176.804 264.345 169.426C266.306 163.838 267.26 152.061 269.656 141.328C269.656 141.328 277.418 138.902 283.644 140.997C288.402 142.605 287.929 149.898 288.803 157.494C288.885 158.204 288.977 158.915 289.088 159.617C290.39 167.939 287.436 181.671 287.436 181.671Z" fill="#739AF0"/>
<path d="M266.919 125.437C266.919 125.437 272.216 116.824 276.317 121.256C276.317 121.256 279 121.941 280.536 126.107C282.103 130.363 279.662 134.121 278.032 133.513C276.987 133.125 276.498 134.925 276.498 134.925L266.919 125.437Z" fill="#103663"/>
<path d="M275.506 120.577C275.506 120.577 275.87 117.01 281.087 117.357C281.087 117.357 278.619 117.401 278.09 118.43C278.09 118.43 279.883 117.275 281.191 117.836C282.499 118.397 283.055 120.844 282.985 121.626C282.915 122.408 281.909 124.838 281.029 124.961C280.149 125.083 278.997 124.467 278.997 124.467L275.506 120.577Z" fill="#103663"/>
<path d="M278.134 140.779C277.644 139.475 276.92 138.105 276.328 133.939L276.016 134.048L270.744 135.905C270.744 135.905 271.114 137.591 271.351 139.196C271.447 139.851 271.516 141.015 271.56 142.046C271.604 143.077 272.636 143.191 273.685 143.142C276.469 143.01 278.003 141.969 278.134 140.779Z" fill="#FAC8AF"/>
<path d="M270.744 135.905C270.744 135.905 271.114 137.591 271.351 139.196C274.372 138.673 275.576 135.678 276.013 134.051L270.744 135.905Z" fill="#E8945B"/>
<path d="M276.489 133.378C276.489 133.378 277.717 130.641 277.789 128.441C277.841 126.869 276.24 121.304 270.647 122.945C269.52 123.27 268.48 123.844 267.605 124.624C266.486 125.638 264.957 127.703 267.673 132.369L268.432 133.966L276.489 133.378Z" fill="#233862"/>
<path d="M269.955 137.573C269.955 137.573 277.149 136.663 276.51 132.19C275.871 127.717 276.368 124.598 271.749 124.994C267.13 125.39 266.482 127.221 266.333 128.762C266.184 130.304 268.067 137.691 269.955 137.573Z" fill="#FAC8AF"/>
<path d="M268.468 125.35C268.468 125.35 271.189 130.307 274.316 130.647C277.443 130.986 278.634 129.993 278.634 129.993C276.959 128.902 275.715 127.263 275.116 125.356C275.116 125.356 269.586 122.643 268.468 125.35Z" fill="#103663"/>
<path d="M269.013 125.705C269.013 125.705 267.714 127.086 267.52 128.282C267.325 129.478 267.503 131.834 266.809 131.853C266.809 131.853 264.814 128.505 266.187 126.245C267.644 123.854 269.013 125.705 269.013 125.705Z" fill="#103663"/>
<path d="M268.771 125.922C268.771 125.922 270.963 131.206 275.022 132.416C275.022 132.416 270.73 129.593 269.884 126.017C269.037 122.441 268.771 125.922 268.771 125.922Z" fill="#103663"/>
<path d="M287.435 181.671C287.435 181.671 285.388 182.702 281.769 183.005C281.769 183.005 278.797 179.28 282.114 175.109C285.431 170.937 281.854 163.236 284.408 159.048C286.187 156.135 287.916 156.814 288.809 157.494C288.891 158.204 288.983 158.915 289.094 159.617C290.39 167.939 287.435 181.671 287.435 181.671Z" fill="#5283DB"/>
<path d="M300.485 175.482C300.485 175.482 300.925 176.508 301.547 176.576C302.553 176.688 304.47 177.531 304.77 177.709C305.585 178.192 305.529 180.355 304.716 180.558C303.902 180.761 303.493 178.947 300.945 178.462C300.081 178.297 298.82 178.892 298.312 176.825L300.485 175.482Z" fill="#FAC8AF"/>
<path d="M283.642 140.997C291.05 143.726 291.323 156.827 294.625 162.601C298.031 168.554 301.347 176.396 301.347 176.396C301.347 176.396 301.288 176.629 300.018 176.993C299.422 177.149 298.803 177.201 298.189 177.145C298.189 177.145 291.192 170.82 289.29 168.327C287.387 165.833 282.906 154.257 282.906 154.257C282.906 154.257 280.703 139.916 283.642 140.997Z" fill="#739AF0"/>
<path d="M298.493 177.337C298.493 177.337 298.672 178.218 299.764 178.93C300.857 179.643 301.737 180.355 301.839 179.914C301.94 179.473 301.232 179.005 301.06 178.184C300.889 177.364 298.493 177.337 298.493 177.337Z" fill="#FAC8AF"/>
<path d="M235.017 133.685H127.527V211.418H235.017V133.685Z" fill="#4656CC"/>
<path d="M137.154 83.1121C137.154 83.1121 139.642 77.5761 145.595 78.19C145.595 78.19 154.235 68.9629 163.45 76.9607C163.45 76.9607 173.245 74.9794 180.498 78.6766C185.334 81.1414 186.932 83.7275 186.932 83.7275L137.154 83.1121Z" fill="#ECE9FF"/>
<path d="M172.21 70.024H172.304C172.681 70.0204 173.043 69.8791 173.323 69.6268C174.574 68.4839 178.388 65.6401 182.494 68.9068C182.653 69.0327 182.837 69.1245 183.034 69.1767C183.23 69.2288 183.435 69.2402 183.636 69.21C185.222 68.978 189.366 68.6036 192.61 70.3393C192.698 70.3863 192.785 70.4333 192.87 70.4818C194.22 71.2397 193.653 73.3013 192.111 73.2816L172.26 73.0239C170.309 72.9966 170.266 70.0968 172.21 70.024Z" fill="#ECE9FF"/>
<path d="M221.794 200.013H200.457C198.686 200.013 196.988 199.31 195.736 198.06C194.483 196.809 193.78 195.112 193.78 193.343V148.335C193.78 146.567 194.483 144.87 195.736 143.619C196.988 142.368 198.686 141.666 200.457 141.666H221.794C223.565 141.666 225.263 142.368 226.515 143.619C227.767 144.87 228.471 146.567 228.471 148.335V193.357C228.467 195.123 227.762 196.816 226.511 198.064C225.259 199.312 223.563 200.013 221.794 200.013ZM200.457 142.342C198.867 142.344 197.344 142.975 196.22 144.098C195.096 145.221 194.464 146.743 194.463 148.331V193.352C194.465 194.94 195.097 196.462 196.221 197.584C197.344 198.707 198.868 199.338 200.457 199.34H221.794C223.383 199.338 224.907 198.707 226.03 197.584C227.154 196.462 227.786 194.94 227.788 193.352V148.335C227.786 146.748 227.154 145.226 226.031 144.103C224.907 142.98 223.384 142.348 221.794 142.346L200.457 142.342Z" fill="#E4DFFF"/>
<path d="M184.105 142.002H153.281C150.568 142.002 148.369 144.199 148.369 146.909V166.097C148.369 168.807 150.568 171.004 153.281 171.004H184.105C186.818 171.004 189.017 168.807 189.017 166.097V146.909C189.017 144.199 186.818 142.002 184.105 142.002Z" fill="#E4DFFF"/>
<path d="M184.556 200.013H152.825C151.553 200.011 150.334 199.506 149.435 198.607C148.536 197.709 148.03 196.49 148.029 195.22V180.24C148.03 178.969 148.536 177.751 149.435 176.853C150.334 175.954 151.553 175.448 152.825 175.447H184.556C185.828 175.448 187.047 175.954 187.946 176.853C188.845 177.751 189.351 178.969 189.352 180.24V195.22C189.351 196.49 188.845 197.709 187.946 198.607C187.047 199.506 185.828 200.011 184.556 200.013ZM152.821 176.127C151.729 176.129 150.683 176.562 149.911 177.333C149.139 178.104 148.705 179.15 148.704 180.24V195.22C148.705 196.31 149.139 197.356 149.911 198.127C150.683 198.898 151.729 199.331 152.821 199.332H184.556C185.647 199.331 186.694 198.898 187.465 198.127C188.237 197.356 188.671 196.31 188.672 195.22V180.24C188.671 179.15 188.237 178.104 187.465 177.333C186.694 176.562 185.647 176.129 184.556 176.127H152.821Z" fill="#E4DFFF"/>
<path d="M202.255 158.143C202.255 163.405 211.125 171.816 211.125 171.816C211.125 171.816 219.996 163.405 219.996 158.143C219.996 152.882 216.024 148.614 211.125 148.614C206.227 148.614 202.255 152.883 202.255 158.143ZM205.896 157.584C205.897 156.551 206.203 155.542 206.778 154.684C207.352 153.825 208.169 153.157 209.124 152.762C210.078 152.367 211.129 152.264 212.143 152.465C213.156 152.667 214.087 153.164 214.818 153.894C215.549 154.624 216.046 155.555 216.248 156.567C216.449 157.58 216.346 158.63 215.95 159.584C215.555 160.537 214.885 161.353 214.026 161.926C213.166 162.5 212.156 162.806 211.122 162.806C209.737 162.803 208.41 162.251 207.431 161.272C206.452 160.293 205.901 158.966 205.899 157.582L205.896 157.584Z" fill="#E4DFFF"/>
<path d="M184.876 161.204H184.457C184.443 161.202 184.428 161.202 184.413 161.204L181.193 162.083C181.154 162.093 181.112 162.089 181.075 162.072L176.55 160.331C176.433 160.276 177.134 159.935 177.237 159.859C178.369 159.036 181.958 157.031 183.307 156.141C183.355 156.109 183.393 156.064 183.416 156.011C183.438 155.958 183.445 155.9 183.435 155.843C183.425 155.787 183.398 155.734 183.358 155.692C183.319 155.651 183.268 155.622 183.211 155.609C183.09 155.58 182.963 155.587 182.846 155.63L176.254 158.037L175.368 157.476C175.306 157.438 175.231 157.425 175.159 157.441C175.087 157.457 175.025 157.501 174.986 157.563L174.552 158.249C174.513 158.31 174.5 158.384 174.515 158.454C174.529 158.524 174.571 158.586 174.63 158.627L173.782 158.93C173.742 158.946 173.698 158.946 173.658 158.93L169.6 157.202C169.241 157.049 168.84 157.024 168.465 157.134L167.998 157.27C167.923 157.292 167.854 157.329 167.794 157.378C167.734 157.428 167.685 157.489 167.65 157.558C167.614 157.627 167.593 157.702 167.587 157.78C167.582 157.857 167.592 157.935 167.617 158.008L167.67 158.16C167.755 158.41 167.895 158.638 168.078 158.828C168.262 159.019 168.485 159.166 168.732 159.26L172.022 160.497C172.053 160.509 172.08 160.53 172.1 160.557C172.12 160.584 172.131 160.616 172.133 160.649L172.162 162.068L171.974 161.95C171.911 161.911 171.836 161.898 171.765 161.914C171.693 161.93 171.631 161.973 171.591 162.034L171.157 162.721C171.118 162.783 171.106 162.858 171.122 162.93C171.138 163.001 171.182 163.064 171.244 163.103L172.195 163.709L172.242 165.926C172.245 166.104 172.301 166.278 172.404 166.424C172.535 166.612 172.672 166.82 172.72 166.797C172.872 166.728 174.366 163.311 174.873 161.972C174.902 161.896 175.549 162.137 175.632 162.166L180.117 163.531C180.146 163.541 180.17 163.559 180.189 163.583C180.208 163.606 180.221 163.634 180.225 163.664L180.424 164.972C180.447 165.118 180.518 165.252 180.627 165.353C180.645 165.369 180.667 165.382 180.69 165.39C180.714 165.397 180.738 165.4 180.763 165.397C180.787 165.394 180.811 165.385 180.832 165.372C180.853 165.359 180.87 165.342 180.884 165.321L181.928 163.725C181.942 163.701 181.962 163.682 181.986 163.669C182.01 163.655 182.037 163.648 182.064 163.647L182.545 163.632C182.579 163.631 182.611 163.62 182.639 163.601C182.666 163.582 182.687 163.554 182.699 163.523C182.711 163.492 182.713 163.458 182.706 163.425C182.699 163.392 182.682 163.363 182.658 163.34L182.541 163.227L184.969 161.502C184.994 161.481 185.013 161.452 185.022 161.42C185.031 161.388 185.031 161.354 185.021 161.322C185.011 161.291 184.992 161.262 184.967 161.241C184.941 161.22 184.909 161.207 184.876 161.204Z" fill="#A096FB"/>
<path d="M178.413 194.357C177.101 194.357 175.819 193.968 174.728 193.24C173.637 192.511 172.787 191.476 172.285 190.265C171.783 189.054 171.652 187.722 171.908 186.436C172.164 185.151 172.796 183.97 173.724 183.043C174.652 182.116 175.834 181.485 177.121 181.23C178.408 180.974 179.742 181.105 180.954 181.607C182.166 182.109 183.202 182.958 183.931 184.048C184.66 185.138 185.049 186.419 185.049 187.73C185.047 189.487 184.347 191.172 183.103 192.415C181.859 193.657 180.172 194.356 178.413 194.357ZM178.413 181.829C177.245 181.829 176.102 182.175 175.13 182.824C174.159 183.472 173.401 184.394 172.954 185.473C172.507 186.552 172.39 187.739 172.618 188.884C172.846 190.029 173.409 191.08 174.236 191.906C175.062 192.731 176.115 193.293 177.261 193.521C178.408 193.749 179.596 193.631 180.675 193.184C181.755 192.737 182.678 191.981 183.327 191.01C183.976 190.039 184.322 188.897 184.322 187.73C184.317 186.167 183.693 184.669 182.585 183.565C181.478 182.46 179.978 181.839 178.413 181.836V181.829Z" fill="#E4DFFF"/>
<path d="M178.416 184.466H178.325C178.198 184.466 178.095 184.569 178.095 184.697V188.389C178.095 188.517 178.198 188.62 178.325 188.62H178.416C178.544 188.62 178.647 188.517 178.647 188.389V184.697C178.647 184.569 178.544 184.466 178.416 184.466Z" fill="#E4DFFF"/>
<path d="M178.292 188.506V188.497C178.267 188.472 178.253 188.439 178.253 188.404C178.253 188.369 178.267 188.335 178.292 188.311L181.981 184.625C182.005 184.601 182.039 184.587 182.074 184.587C182.109 184.587 182.143 184.601 182.167 184.625V184.633C182.192 184.658 182.206 184.692 182.206 184.727C182.206 184.762 182.192 184.796 182.167 184.821L178.486 188.506C178.474 188.519 178.458 188.529 178.442 188.537C178.425 188.544 178.407 188.547 178.389 188.547C178.371 188.547 178.353 188.544 178.336 188.537C178.32 188.529 178.305 188.519 178.292 188.506Z" fill="#E4DFFF"/>
<path d="M178.008 188.367C178.008 188.295 178.029 188.225 178.069 188.165C178.109 188.106 178.166 188.059 178.232 188.032C178.298 188.004 178.371 187.997 178.441 188.011C178.512 188.025 178.576 188.06 178.627 188.11C178.678 188.161 178.712 188.226 178.726 188.296C178.74 188.366 178.733 188.439 178.706 188.505C178.678 188.571 178.632 188.628 178.572 188.668C178.513 188.708 178.442 188.729 178.371 188.729C178.275 188.729 178.182 188.691 178.114 188.623C178.046 188.555 178.008 188.463 178.008 188.367Z" fill="#FFE3CA"/>
<path d="M167.33 179.791H152.743V181.303H167.33V179.791Z" fill="#E4DFFF"/>
<path d="M167.33 183.241H152.743V184.763H167.33V183.241Z" fill="#E4DFFF"/>
<path d="M161.49 186.702H152.743V188.224H161.49V186.702Z" fill="#E4DFFF"/>
<path d="M218.418 179.856H203.831V181.368H218.418V179.856Z" fill="#E4DFFF"/>
<path d="M218.418 183.305H203.831V184.827H218.418V183.305Z" fill="#E4DFFF"/>
<path d="M212.578 186.766H203.831V188.288H212.578V186.766Z" fill="#E4DFFF"/>
<path d="M168.234 148.672H153.648V150.183H168.234V148.672Z" fill="#A096FB"/>
<path d="M168.234 152.122H153.648V153.644H168.234V152.122Z" fill="#A096FB"/>
<path d="M162.394 155.583H153.648V157.105H162.394V155.583Z" fill="#A096FB"/>
<path d="M290.49 65.39C290.406 65.3898 290.325 65.3588 290.263 65.3029C290.201 65.2469 290.161 65.1701 290.152 65.0868C290.152 65.0868 290.097 64.4805 289.985 63.4345C289.975 63.3449 290.002 63.2551 290.059 63.1851C290.115 63.115 290.198 63.0703 290.288 63.0609C290.377 63.0514 290.467 63.078 290.537 63.1347C290.607 63.1914 290.652 63.2736 290.662 63.3633C290.774 64.4244 290.83 65.0186 290.83 65.0308C290.834 65.075 290.83 65.1196 290.817 65.1621C290.804 65.2046 290.783 65.2442 290.755 65.2785C290.727 65.3129 290.692 65.3413 290.653 65.3623C290.614 65.3832 290.571 65.3963 290.527 65.4006L290.49 65.39ZM290.141 62.09C290.057 62.0897 289.976 62.0587 289.914 62.0028C289.852 61.9469 289.812 61.87 289.803 61.7868C289.747 61.2896 289.683 60.7424 289.612 60.1496C289.601 60.0602 289.626 59.9701 289.681 59.8992C289.737 59.8282 289.819 59.7823 289.908 59.7714C289.998 59.7606 290.088 59.7857 290.159 59.8413C290.23 59.8969 290.276 59.9783 290.287 60.0678C290.36 60.662 290.423 61.2108 290.479 61.7095C290.485 61.7542 290.481 61.7995 290.468 61.8427C290.456 61.8859 290.435 61.9262 290.406 61.9613C290.378 61.9964 290.343 62.0256 290.304 62.0471C290.264 62.0687 290.221 62.0822 290.176 62.0869L290.141 62.09ZM289.747 58.8142C289.663 58.8139 289.582 58.7828 289.52 58.7269C289.458 58.671 289.419 58.5941 289.41 58.511C289.344 57.9905 289.274 57.4458 289.199 56.8769C289.187 56.7874 289.212 56.697 289.267 56.6255C289.322 56.554 289.403 56.5073 289.492 56.4956C289.582 56.484 289.672 56.5083 289.744 56.5633C289.816 56.6183 289.862 56.6995 289.874 56.789C289.948 57.3574 290.026 57.9046 290.085 58.4246C290.091 58.4689 290.088 58.5139 290.076 58.557C290.064 58.6001 290.044 58.6405 290.017 58.6759C289.989 58.7112 289.955 58.7408 289.917 58.763C289.878 58.7852 289.835 58.7995 289.791 58.8051L289.747 58.8142ZM289.316 55.5475C289.233 55.5472 289.154 55.5172 289.092 55.4632C289.03 55.4092 288.99 55.3347 288.979 55.2534C288.906 54.7259 288.83 54.1827 288.75 53.6238C288.743 53.5796 288.746 53.5346 288.757 53.4914C288.768 53.4482 288.788 53.4076 288.815 53.3719C288.841 53.3362 288.875 53.3061 288.913 53.2834C288.952 53.2607 288.994 53.2458 289.039 53.2395C289.083 53.2333 289.128 53.2358 289.171 53.2469C289.215 53.258 289.255 53.2775 289.291 53.3043C289.327 53.3312 289.357 53.3647 289.379 53.4032C289.402 53.4416 289.417 53.4841 289.423 53.5283C289.504 54.0862 289.575 54.6319 289.654 55.1609C289.66 55.2051 289.657 55.25 289.646 55.2932C289.634 55.3363 289.615 55.3767 289.588 55.4122C289.56 55.4477 289.527 55.4775 289.488 55.4999C289.45 55.5223 289.407 55.5369 289.363 55.5429L289.316 55.5475ZM288.848 52.2868C288.767 52.2867 288.688 52.2574 288.626 52.2043C288.564 52.1512 288.524 52.0778 288.511 51.9973C288.433 51.4657 288.351 50.9235 288.266 50.3708C288.259 50.3267 288.261 50.2817 288.271 50.2383C288.282 50.195 288.301 50.1542 288.328 50.1182C288.354 50.0823 288.387 50.0519 288.425 50.0287C288.464 50.0056 288.506 49.9902 288.55 49.9835C288.594 49.9767 288.639 49.9787 288.683 49.9893C288.726 49.9999 288.767 50.019 288.803 50.0454C288.839 50.0717 288.869 50.105 288.892 50.1431C288.916 50.1813 288.931 50.2236 288.938 50.2677C289.024 50.8215 289.106 51.3642 289.185 51.8957C289.192 51.9399 289.19 51.985 289.179 52.0284C289.168 52.0718 289.149 52.1126 289.122 52.1485C289.095 52.1844 289.062 52.2147 289.024 52.2377C288.985 52.2606 288.943 52.2758 288.898 52.2823L288.848 52.2868ZM288.346 49.0322C288.265 49.0322 288.187 49.0035 288.126 48.9513C288.065 48.8991 288.024 48.8268 288.011 48.7473C287.926 48.2137 287.837 47.6725 287.745 47.1238C287.738 47.0797 287.739 47.0346 287.75 46.9911C287.76 46.9475 287.778 46.9065 287.804 46.8701C287.83 46.8338 287.863 46.803 287.901 46.7794C287.939 46.7558 287.982 46.7399 288.026 46.7327C288.07 46.7254 288.115 46.7269 288.159 46.7371C288.202 46.7472 288.243 46.7659 288.28 46.7919C288.316 46.8179 288.347 46.8509 288.371 46.8888C288.394 46.9268 288.41 46.969 288.417 47.0131C288.508 47.5619 288.597 48.104 288.683 48.6396C288.69 48.6837 288.688 48.7288 288.678 48.7723C288.668 48.8157 288.649 48.8568 288.623 48.8929C288.596 48.9291 288.563 48.9598 288.525 48.9832C288.487 49.0066 288.445 49.0222 288.401 49.0292C288.383 49.0317 288.364 49.0327 288.346 49.0322ZM287.806 45.7868C287.726 45.7862 287.648 45.7575 287.587 45.7057C287.525 45.6539 287.484 45.5823 287.47 45.5033C287.378 44.9697 287.284 44.4301 287.187 43.8843C287.179 43.8405 287.18 43.7954 287.189 43.7519C287.199 43.7083 287.217 43.6671 287.242 43.6305C287.268 43.5939 287.3 43.5626 287.338 43.5386C287.375 43.5145 287.417 43.4981 287.461 43.4902C287.505 43.4824 287.55 43.4832 287.594 43.4928C287.638 43.5023 287.679 43.5203 287.716 43.5458C287.752 43.5713 287.783 43.6037 287.807 43.6412C287.832 43.6788 287.848 43.7207 287.856 43.7646C287.957 44.3113 288.053 44.8525 288.143 45.3881C288.15 45.4322 288.149 45.4774 288.139 45.521C288.129 45.5647 288.111 45.6059 288.085 45.6424C288.059 45.6789 288.026 45.7099 287.988 45.7336C287.95 45.7574 287.908 45.7734 287.864 45.7807C287.844 45.7844 287.824 45.7864 287.804 45.7868H287.806ZM287.226 42.5458C287.147 42.5458 287.07 42.5181 287.009 42.4675C286.947 42.4168 286.906 42.3464 286.891 42.2684C286.79 41.7328 286.689 41.1947 286.587 40.654C286.576 40.568 286.598 40.4809 286.649 40.4107C286.7 40.3404 286.776 40.2921 286.861 40.2757C286.947 40.2592 287.035 40.2759 287.108 40.3223C287.182 40.3686 287.235 40.4412 287.257 40.5252C287.358 41.0679 287.459 41.6075 287.56 42.1441C287.576 42.2329 287.556 42.3244 287.505 42.3988C287.454 42.4731 287.376 42.5243 287.287 42.5413L287.226 42.5458ZM286.603 39.3155C286.524 39.3156 286.447 39.2882 286.386 39.2382C286.325 39.1881 286.284 39.1185 286.269 39.0411C286.162 38.5076 286.053 37.9709 285.941 37.4313C285.932 37.3876 285.932 37.3425 285.94 37.2987C285.948 37.2549 285.965 37.2131 285.99 37.1758C286.039 37.1005 286.117 37.0479 286.205 37.0296C286.293 37.0113 286.385 37.0288 286.461 37.0783C286.536 37.1277 286.589 37.2051 286.607 37.2933C286.719 37.835 286.829 38.3731 286.936 38.9077C286.945 38.9516 286.946 38.9967 286.937 39.0407C286.929 39.0846 286.911 39.1263 286.887 39.1636C286.862 39.2008 286.83 39.2327 286.792 39.2575C286.755 39.2823 286.713 39.2994 286.669 39.3079C286.647 39.3128 286.624 39.3153 286.601 39.3155H286.603ZM285.933 36.0928C285.855 36.0933 285.78 36.0669 285.719 36.018C285.659 35.9691 285.617 35.9007 285.601 35.8245C285.486 35.2929 285.368 34.7598 285.249 34.2252C285.239 34.1816 285.238 34.1365 285.245 34.0924C285.253 34.0483 285.269 34.0061 285.293 33.9683C285.317 33.9304 285.348 33.8976 285.384 33.8717C285.421 33.8458 285.462 33.8274 285.505 33.8175C285.549 33.8075 285.594 33.8062 285.638 33.8137C285.683 33.8212 285.725 33.8373 285.763 33.8611C285.801 33.8849 285.833 33.9159 285.859 33.9524C285.885 33.9888 285.904 34.03 285.914 34.0736C286.033 34.6082 286.151 35.1433 286.267 35.6789C286.277 35.7226 286.277 35.7677 286.269 35.8117C286.261 35.8556 286.244 35.8975 286.22 35.935C286.195 35.9725 286.164 36.0047 286.127 36.03C286.09 36.0552 286.048 36.073 286.005 36.0822C285.981 36.0888 285.956 36.0924 285.932 36.0928H285.933ZM285.213 32.8867C285.136 32.8864 285.062 32.8604 285.002 32.8128C284.942 32.7652 284.899 32.6989 284.882 32.6245C284.757 32.0889 284.63 31.5548 284.501 31.0222C284.482 30.9362 284.498 30.8463 284.544 30.7715C284.591 30.6967 284.664 30.6429 284.75 30.6212C284.835 30.5996 284.925 30.6119 285.002 30.6556C285.078 30.6993 285.135 30.771 285.159 30.8554C285.29 31.39 285.417 31.9261 285.542 32.4638C285.562 32.5514 285.547 32.6436 285.5 32.7201C285.452 32.7965 285.376 32.851 285.288 32.8715C285.263 32.8794 285.237 32.8845 285.211 32.8867H285.213ZM284.434 29.6852C284.359 29.6854 284.285 29.6603 284.225 29.6138C284.166 29.5674 284.123 29.5023 284.105 29.429C283.969 28.8984 283.832 28.3689 283.692 27.8404C283.669 27.7531 283.682 27.6603 283.727 27.5822C283.772 27.5042 283.847 27.4474 283.934 27.4243C284.022 27.4011 284.114 27.4136 284.193 27.459C284.271 27.5043 284.328 27.5788 284.351 27.666C284.492 28.1966 284.63 28.7287 284.765 29.2623C284.776 29.3056 284.778 29.3506 284.772 29.3947C284.765 29.4389 284.75 29.4814 284.727 29.5197C284.704 29.558 284.674 29.5914 284.638 29.6179C284.602 29.6445 284.561 29.6638 284.518 29.6746C284.49 29.6819 284.461 29.6855 284.433 29.6852H284.434ZM283.59 26.5019C283.516 26.5017 283.444 26.4773 283.385 26.4324C283.326 26.3876 283.283 26.3247 283.263 26.2533C283.117 25.7237 282.968 25.1972 282.815 24.6737C282.79 24.5871 282.8 24.494 282.844 24.415C282.887 24.3359 282.961 24.2774 283.047 24.2523C283.134 24.2272 283.227 24.2375 283.306 24.281C283.385 24.3245 283.444 24.3976 283.469 24.4842C283.623 25.0097 283.775 25.5388 283.924 26.0713C283.936 26.1144 283.94 26.1595 283.934 26.2039C283.929 26.2483 283.914 26.2911 283.892 26.33C283.87 26.3689 283.84 26.403 283.805 26.4304C283.77 26.4578 283.729 26.478 283.686 26.4897C283.655 26.4999 283.622 26.505 283.589 26.5049L283.59 26.5019ZM282.672 23.3428C282.6 23.3429 282.529 23.3195 282.47 23.2761C282.412 23.2327 282.369 23.1715 282.348 23.1018C282.187 22.5773 282.023 22.0497 281.858 21.5359C281.835 21.4514 281.846 21.3615 281.888 21.2849C281.93 21.2083 282 21.1507 282.084 21.1241C282.167 21.0974 282.257 21.1038 282.336 21.1417C282.415 21.1797 282.476 21.2465 282.507 21.3282C282.672 21.8451 282.838 22.3757 282.999 22.9032C283.012 22.9459 283.016 22.9907 283.012 23.0352C283.008 23.0797 282.995 23.1228 282.974 23.1623C282.953 23.2017 282.924 23.2366 282.89 23.265C282.855 23.2933 282.815 23.3146 282.773 23.3276C282.74 23.339 282.706 23.3452 282.671 23.3458L282.672 23.3428ZM281.669 20.2125C281.598 20.2125 281.529 20.1902 281.472 20.1489C281.414 20.1076 281.371 20.0492 281.348 19.9821C281.17 19.4606 280.99 18.9407 280.808 18.4344C280.782 18.3506 280.79 18.2602 280.829 18.1818C280.868 18.1035 280.936 18.0432 281.019 18.0136C281.101 17.984 281.192 17.9872 281.272 18.0227C281.352 18.0581 281.416 18.123 281.449 18.204C281.632 18.7148 281.815 19.2393 281.993 19.7638C282.012 19.8153 282.018 19.8707 282.011 19.9252C282.003 19.9796 281.983 20.0315 281.951 20.0763C281.919 20.1211 281.877 20.1574 281.828 20.1822C281.779 20.207 281.724 20.2195 281.669 20.2186V20.2125ZM248.244 19.118C248.202 19.1179 248.16 19.1102 248.12 19.0953C248.036 19.0619 247.969 18.9968 247.933 18.9142C247.897 18.8317 247.895 18.7383 247.927 18.6542C248.045 18.351 248.162 18.0585 248.281 17.7674C248.295 17.7231 248.319 17.6822 248.35 17.6474C248.381 17.6126 248.419 17.5845 248.462 17.565C248.504 17.5454 248.55 17.5347 248.597 17.5336C248.643 17.5326 248.69 17.5411 248.733 17.5586C248.777 17.5762 248.816 17.6025 248.848 17.6358C248.881 17.6691 248.907 17.7088 248.923 17.7524C248.94 17.796 248.948 17.8426 248.946 17.8892C248.944 17.9358 248.932 17.9816 248.912 18.0236C248.796 18.3116 248.679 18.6042 248.561 18.9013C248.536 18.966 248.492 19.0215 248.435 19.0603C248.377 19.0991 248.309 19.1192 248.24 19.118H248.244ZM280.565 17.1171C280.496 17.117 280.428 17.0959 280.371 17.0567C280.314 17.0174 280.271 16.9619 280.246 16.8973C280.049 16.3789 279.847 15.8665 279.639 15.3738C279.619 15.3318 279.607 15.2861 279.605 15.2395C279.603 15.1928 279.611 15.1463 279.628 15.1027C279.644 15.0591 279.67 15.0194 279.703 14.9861C279.735 14.9527 279.775 14.9265 279.818 14.9089C279.861 14.8913 279.908 14.8828 279.954 14.8839C280.001 14.885 280.047 14.8957 280.089 14.9152C280.132 14.9348 280.17 14.9629 280.201 14.9977C280.232 15.0325 280.256 15.0733 280.27 15.1177C280.472 15.6149 280.676 16.1318 280.877 16.6548C280.909 16.7392 280.906 16.8327 280.869 16.915C280.832 16.9973 280.764 17.0618 280.68 17.0944C280.64 17.1096 280.597 17.1173 280.554 17.1171H280.565ZM249.235 16.7199C249.189 16.7198 249.143 16.7105 249.1 16.6927C249.059 16.675 249.022 16.6494 248.991 16.6174C248.959 16.5853 248.935 16.5474 248.918 16.5059C248.902 16.4643 248.894 16.42 248.894 16.3753C248.895 16.3306 248.905 16.2865 248.922 16.2455C249.142 15.7316 249.369 15.2238 249.592 14.7372C249.61 14.6966 249.637 14.66 249.669 14.6296C249.702 14.5992 249.741 14.5756 249.783 14.56C249.825 14.5445 249.869 14.5373 249.914 14.539C249.958 14.5406 250.002 14.5511 250.043 14.5697C250.084 14.5883 250.12 14.6147 250.151 14.6475C250.181 14.6802 250.205 14.7186 250.22 14.7605C250.236 14.8023 250.243 14.8469 250.241 14.8915C250.24 14.9362 250.229 14.98 250.211 15.0206C249.989 15.5027 249.766 16.006 249.548 16.5138C249.521 16.5765 249.475 16.6297 249.418 16.6665C249.36 16.7032 249.293 16.7219 249.224 16.7199H249.235ZM279.324 14.0702C279.257 14.0699 279.192 14.0505 279.137 14.0141C279.081 13.9778 279.038 13.9262 279.011 13.8656C278.788 13.3532 278.556 12.8529 278.336 12.3754C278.297 12.2938 278.293 12.2003 278.323 12.1155C278.354 12.0306 278.417 11.9614 278.499 11.923C278.581 11.8846 278.674 11.8802 278.759 11.9107C278.844 11.9413 278.913 12.0043 278.952 12.0859C279.179 12.5695 279.407 13.0758 279.636 13.5927C279.655 13.6341 279.665 13.6787 279.666 13.724C279.667 13.7694 279.66 13.8145 279.643 13.8568C279.627 13.8991 279.602 13.9378 279.571 13.9705C279.539 14.0032 279.502 14.0294 279.46 14.0475C279.413 14.066 279.363 14.0737 279.313 14.0702H279.324ZM250.605 13.7352C250.553 13.7356 250.501 13.7237 250.454 13.7003C250.373 13.66 250.312 13.5895 250.284 13.5043C250.255 13.419 250.262 13.326 250.302 13.2456C250.549 12.7408 250.803 12.2466 251.06 11.7736C251.103 11.6932 251.175 11.6329 251.262 11.6059C251.349 11.5789 251.443 11.5874 251.523 11.6296C251.604 11.6719 251.664 11.7443 251.691 11.831C251.718 11.9177 251.71 12.0116 251.667 12.092C251.419 12.5589 251.17 13.047 250.925 13.5457C250.895 13.6064 250.848 13.6569 250.789 13.6906C250.73 13.7243 250.662 13.7399 250.595 13.7352H250.605ZM277.918 11.0945C277.856 11.095 277.794 11.078 277.74 11.0453C277.687 11.0126 277.643 10.9656 277.615 10.9096C277.362 10.4154 277.102 9.93187 276.843 9.47256C276.821 9.43364 276.807 9.39079 276.801 9.34645C276.796 9.30212 276.799 9.25716 276.811 9.21416C276.824 9.17116 276.844 9.13095 276.872 9.09583C276.899 9.0607 276.933 9.03136 276.972 9.00946C277.011 8.98756 277.054 8.97354 277.099 8.9682C277.143 8.96287 277.188 8.96631 277.231 8.97835C277.274 8.99038 277.314 9.01077 277.349 9.03835C277.385 9.06592 277.414 9.10015 277.436 9.13906C277.7 9.60595 277.964 10.0971 278.22 10.6004C278.26 10.6808 278.267 10.7738 278.239 10.8591C278.21 10.9443 278.149 11.0148 278.069 11.0551C278.019 11.0805 277.965 11.094 277.909 11.0945H277.918ZM252.145 10.8368C252.086 10.837 252.027 10.8213 251.975 10.7915C251.923 10.7616 251.88 10.7185 251.85 10.6667C251.82 10.6148 251.804 10.556 251.805 10.4962C251.805 10.4364 251.821 10.3777 251.851 10.326C252.133 9.83788 252.422 9.36038 252.707 8.90865C252.757 8.83707 252.833 8.78758 252.919 8.77042C253.005 8.75327 253.094 8.76978 253.168 8.81651C253.242 8.86325 253.296 8.93665 253.317 9.02151C253.339 9.10638 253.327 9.19623 253.283 9.27246C253.001 9.71661 252.717 10.182 252.441 10.6655C252.411 10.7188 252.366 10.7628 252.312 10.793C252.259 10.8231 252.198 10.8383 252.136 10.8368H252.145ZM276.299 8.23257C276.242 8.23292 276.185 8.21846 276.134 8.19059C276.084 8.16272 276.041 8.12237 276.011 8.07341C275.708 7.60197 275.404 7.14721 275.11 6.72277C275.084 6.68634 275.065 6.64517 275.055 6.60161C275.045 6.55805 275.044 6.51295 275.052 6.46889C275.059 6.42483 275.075 6.38268 275.099 6.34483C275.123 6.30698 275.154 6.27418 275.19 6.2483C275.227 6.22242 275.268 6.20397 275.311 6.194C275.355 6.18403 275.4 6.18274 275.444 6.1902C275.488 6.19766 275.531 6.21373 275.568 6.23748C275.606 6.26123 275.639 6.29221 275.665 6.32864C275.969 6.76369 276.286 7.22906 276.588 7.71263C276.62 7.76404 276.638 7.82315 276.639 7.88382C276.641 7.94448 276.627 8.00447 276.597 8.05755C276.568 8.11064 276.524 8.15487 276.472 8.18565C276.42 8.21643 276.36 8.23264 276.299 8.23257ZM253.901 8.06583C253.831 8.06618 253.762 8.04443 253.705 8.00368C253.669 7.97809 253.637 7.94549 253.613 7.90776C253.589 7.87002 253.573 7.82789 253.565 7.78379C253.557 7.73969 253.558 7.6945 253.568 7.6508C253.578 7.60711 253.596 7.56579 253.622 7.52921C253.95 7.06535 254.285 6.61969 254.617 6.19979C254.675 6.13515 254.756 6.09507 254.843 6.08772C254.929 6.08038 255.015 6.10633 255.083 6.16028C255.152 6.21423 255.197 6.29212 255.209 6.37805C255.222 6.46398 255.201 6.55149 255.151 6.62272C254.827 7.03049 254.499 7.46706 254.179 7.92182C254.147 7.96638 254.106 8.00274 254.058 8.02781C254.009 8.05288 253.956 8.06592 253.901 8.06583ZM274.386 5.56009C274.335 5.56005 274.286 5.54889 274.24 5.5274C274.194 5.50592 274.154 5.47464 274.122 5.43579C273.768 5.0068 273.407 4.60358 273.048 4.23825C272.991 4.17269 272.961 4.08809 272.965 4.00158C272.969 3.91508 273.005 3.83315 273.067 3.77241C273.128 3.71168 273.211 3.67668 273.298 3.67452C273.384 3.67235 273.468 3.70318 273.533 3.76075C273.906 4.13972 274.281 4.5581 274.648 5.00377C274.69 5.05345 274.716 5.11385 274.724 5.17788C274.732 5.24192 274.722 5.30694 274.694 5.36532C274.667 5.42371 274.623 5.47304 274.568 5.50753C274.514 5.54203 274.451 5.56026 274.386 5.56009ZM255.95 5.50097C255.883 5.50141 255.818 5.48248 255.763 5.44652C255.707 5.41056 255.663 5.35913 255.636 5.29856C255.61 5.238 255.601 5.17094 255.612 5.10564C255.623 5.04033 255.653 4.97963 255.698 4.93101C256.085 4.50959 256.481 4.11243 256.877 3.74711C256.945 3.69899 257.028 3.67745 257.111 3.68655C257.194 3.69566 257.271 3.73478 257.327 3.79653C257.383 3.85828 257.414 3.93839 257.415 4.02173C257.416 4.10507 257.387 4.18586 257.332 4.24886C256.951 4.59903 256.573 4.98406 256.194 5.39183C256.162 5.4261 256.124 5.4535 256.082 5.47228C256.039 5.49107 255.993 5.50084 255.947 5.50097H255.95ZM258.377 3.2878C258.307 3.2867 258.239 3.2639 258.182 3.22255C258.126 3.1812 258.083 3.12332 258.061 3.05687C258.038 2.99042 258.037 2.91865 258.057 2.85143C258.077 2.7842 258.117 2.72483 258.173 2.68145C258.622 2.34447 259.092 2.03565 259.579 1.75677C259.618 1.73349 259.661 1.71818 259.706 1.71176C259.751 1.70533 259.796 1.70792 259.84 1.71935C259.884 1.73079 259.925 1.75086 259.961 1.77837C259.997 1.80588 260.027 1.84029 260.049 1.87957C260.072 1.91885 260.086 1.96221 260.092 2.00711C260.097 2.05201 260.093 2.09754 260.081 2.14103C260.069 2.18452 260.048 2.22509 260.019 2.26037C259.991 2.29564 259.956 2.32491 259.916 2.34644C259.454 2.61231 259.008 2.90592 258.581 3.22565C258.518 3.26969 258.443 3.29157 258.367 3.2878H258.377ZM272.087 3.23929C272.009 3.23965 271.933 3.21284 271.873 3.1635C271.463 2.82928 271.03 2.52531 270.576 2.25398C270.537 2.23128 270.504 2.20125 270.477 2.16558C270.45 2.12991 270.43 2.08931 270.419 2.04609C270.408 2.00288 270.406 1.9579 270.412 1.91372C270.418 1.86954 270.433 1.82702 270.456 1.7886C270.479 1.75018 270.509 1.71661 270.544 1.6898C270.58 1.66299 270.621 1.64347 270.664 1.63235C270.707 1.62122 270.752 1.61873 270.796 1.62499C270.841 1.63125 270.883 1.64616 270.922 1.66885C271.405 1.95411 271.866 2.27484 272.301 2.6284C272.336 2.65636 272.365 2.6909 272.386 2.73003C272.408 2.76916 272.421 2.81213 272.426 2.85647C272.431 2.90081 272.427 2.94566 272.414 2.98846C272.402 3.03126 272.381 3.07116 272.353 3.1059C272.32 3.14802 272.278 3.18201 272.23 3.20516C272.182 3.22832 272.13 3.24 272.076 3.23929H272.087ZM261.226 1.6734C261.146 1.67427 261.068 1.64714 261.007 1.59677C260.945 1.54639 260.903 1.47596 260.888 1.39779C260.873 1.31961 260.886 1.23865 260.925 1.16906C260.963 1.09946 261.025 1.04565 261.1 1.01703C261.626 0.808706 262.167 0.640964 262.719 0.515274C262.805 0.500752 262.893 0.519633 262.965 0.568048C263.038 0.616462 263.089 0.69074 263.108 0.775652C263.128 0.860564 263.114 0.949676 263.07 1.02472C263.025 1.09975 262.954 1.15504 262.87 1.17922C262.353 1.29662 261.846 1.45373 261.353 1.64914C261.309 1.66695 261.262 1.67522 261.215 1.6734H261.226ZM269.268 1.60822C269.228 1.60792 269.188 1.60074 269.151 1.58699C268.902 1.49636 268.649 1.41845 268.392 1.35355C268.133 1.28988 267.873 1.23228 267.621 1.18226C267.578 1.1736 267.536 1.15639 267.499 1.13164C267.461 1.10688 267.43 1.07504 267.405 1.03795C267.354 0.963045 267.336 0.871272 267.354 0.782825C267.371 0.694377 267.423 0.616498 267.498 0.566322C267.573 0.516147 267.665 0.497785 267.753 0.515274C268.014 0.566813 268.284 0.625932 268.556 0.69263C268.839 0.76317 269.118 0.848169 269.392 0.947295C269.467 0.97503 269.53 1.02818 269.57 1.09747C269.61 1.16676 269.624 1.24781 269.61 1.32647C269.596 1.40513 269.555 1.47642 269.494 1.52791C269.433 1.5794 269.355 1.60782 269.275 1.60822H269.268ZM266.052 0.96397H266.027C265.496 0.923376 264.964 0.919832 264.433 0.95336C264.387 0.959573 264.34 0.956213 264.295 0.943491C264.25 0.930768 264.208 0.908954 264.172 0.879399C264.136 0.849843 264.106 0.813177 264.084 0.771671C264.063 0.730166 264.05 0.684707 264.047 0.63811C264.044 0.591513 264.051 0.544771 264.066 0.500782C264.082 0.456793 264.107 0.416493 264.139 0.38238C264.17 0.348267 264.209 0.321067 264.252 0.302467C264.295 0.283867 264.341 0.274262 264.388 0.274248C264.951 0.238196 265.516 0.242249 266.078 0.286375C266.168 0.289793 266.253 0.328845 266.315 0.39494C266.376 0.461035 266.409 0.548759 266.405 0.638815C266.402 0.728871 266.363 0.813882 266.297 0.875145C266.23 0.936408 266.143 0.968905 266.052 0.965487V0.96397Z" fill="#EF7E29"/>
<path d="M127.574 102.903C127.574 102.903 132.215 102.582 133.225 106.218C133.225 106.218 136.799 98.9423 144.348 99.5487C151.897 100.155 153.297 104.578 153.297 104.578C153.297 104.578 157.622 103.094 161.214 105.074C162.234 105.612 163.087 106.419 163.68 107.408C164.272 108.398 164.581 109.53 164.573 110.683C164.573 110.683 167.866 106.065 174.485 107.715C174.485 107.715 173.165 101.045 181.123 99.5123C189.082 97.9797 192.463 100.625 192.463 100.625C192.463 100.625 201.476 94.8252 209.458 102.095C209.458 102.095 215.304 100.96 218.163 104.559C218.163 104.559 224.02 97.4871 235.04 98.7286V133.688H127.529L127.574 102.903Z" fill="#C8BEFF"/>
<path d="M127.573 120.348C127.573 120.348 135.377 118.377 142.343 122.969C142.343 122.969 144.041 120.948 148.463 121.453C152.885 121.958 154.103 126.034 154.103 126.034C154.103 126.034 169.581 120.93 177.237 133.689H127.529L127.573 120.348Z" fill="#ECE9FF"/>
<path d="M186.759 133.685C186.759 133.685 187.154 125.861 195.331 123.983C195.331 123.983 191.096 122.112 193.231 117.465C195.366 112.817 200.551 112.474 200.551 112.474C200.551 112.474 201.095 104.072 215.794 105.52C219.922 105.927 224.292 108.4 224.975 112.706C224.975 112.706 226.568 110.085 229.871 110.261C229.871 110.261 230.28 105.479 235.031 105.52V133.685H186.759Z" fill="#ECE9FF"/>
<path d="M228.128 66.4102L221.958 87.7673L221.762 87.743L200.68 85.1857C200.68 85.1857 210.444 83.156 211.453 81.9857C212.409 80.8822 222.548 67.7957 225.515 66.3965C225.655 66.3205 225.811 66.2795 225.97 66.2768L228.128 66.4102Z" fill="#4656CC"/>
<path d="M221.762 87.743L200.68 85.1857C200.68 85.1857 210.444 83.156 211.453 81.9857C212.409 80.8822 222.548 67.7957 225.515 66.3965C222.888 70.2059 216.802 79.3602 217.06 82.0221C217.313 84.5566 220.281 86.782 221.762 87.743Z" fill="#344AB7"/>
<path d="M224.04 94.1749C223.321 94.4205 221.17 95.0965 218.219 95.9545C209.734 98.4208 194.642 102.379 187.982 101.889C182.006 101.451 150.41 99.0408 128.554 97.1263C133.843 87.8491 140.436 82.7255 146.47 79.912C171.935 81.9964 205.236 84.8129 209.473 85.6314C216.442 86.9775 225.689 88.072 225.689 88.072C225.689 88.072 225.752 88.3539 225.812 88.8026C226.008 90.2579 226.173 93.4412 224.04 94.1749Z" fill="#E58638"/>
<path d="M225.92 90.3473C225.92 90.3988 225.92 90.4534 225.92 90.508C225.902 91.6661 225.667 92.9576 224.846 93.7019C224.818 93.7277 224.79 93.7519 224.761 93.7762C224.702 93.8242 224.642 93.8692 224.579 93.9111L224.48 93.9717L224.38 94.0293L224.274 94.0809L224.161 94.1294L224.046 94.1734L224.011 94.184L223.975 94.1961L223.937 94.2082L223.896 94.2203C223.881 94.2233 223.866 94.2279 223.852 94.234L223.808 94.2476L223.762 94.2628L223.712 94.2779L223.662 94.2946L223.611 94.3113L223.498 94.3492L223.442 94.3674L223.381 94.3856L223.337 94.3992L222.806 94.569L222.696 94.6023C222.186 94.763 221.567 94.954 220.855 95.1693L220.63 95.236C220.507 95.2739 220.38 95.3133 220.25 95.3512L220.165 95.3754L220.046 95.4118L219.925 95.4467L219.802 95.4846L219.677 95.521L219.555 95.5573L219.427 95.5952L219.3 95.6331L219.171 95.6695L219.078 95.6983C219.065 95.7006 219.052 95.7042 219.04 95.7089L218.91 95.7453C218.688 95.812 218.464 95.8772 218.233 95.9439L217.829 96.0606L217.477 96.1622L217.209 96.2395L216.131 96.5427L215.908 96.6063L215.521 96.714C215.404 96.7488 215.286 96.7806 215.168 96.814L214.77 96.9247C210.361 98.1464 205.015 99.5183 200.051 100.514L199.531 100.617L199.273 100.669L198.757 100.766C198.244 100.864 197.736 100.958 197.24 101.045L196.742 101.131L196.495 101.172L196.004 101.252C195.842 101.28 195.68 101.304 195.519 101.328L195.041 101.4C194.889 101.424 194.724 101.448 194.569 101.469L194.103 101.533L193.648 101.594L193.422 101.621C193.118 101.657 192.824 101.691 192.536 101.721L192.317 101.742L191.891 101.785C191.609 101.809 191.332 101.832 191.062 101.848C190.861 101.863 190.662 101.874 190.467 101.883C190.337 101.891 190.208 101.895 190.081 101.9C189.891 101.9 189.704 101.913 189.524 101.913C189.279 101.913 189.044 101.913 188.818 101.913C188.703 101.913 188.59 101.906 188.48 101.901C188.425 101.901 188.372 101.901 188.316 101.901C188.208 101.901 188.102 101.891 187.999 101.883L187.882 101.874H187.855H187.777L187.474 101.851H187.386L187.273 101.842L187.097 101.83H187L186.903 101.822L186.68 101.798L186.469 101.783L186.358 101.775C186.269 101.766 186.176 101.76 186.082 101.753L185.949 101.742L185.66 101.721L185.534 101.712L185.164 101.684L184.044 101.6L183.893 101.587L183.589 101.566L183.134 101.531L182.941 101.516L182.486 101.483L182.319 101.471L182.002 101.445L181.653 101.418L181.466 101.404L181.292 101.39L181.01 101.369L179.313 101.24L179.055 101.221L178.661 101.19L177.723 101.118H177.65L176.817 101.04H176.778L171.354 100.619L171.063 100.596L169.889 100.507L169.14 100.446H169.099L168.236 100.379H168.13L166.588 100.258L166.189 100.226L166.066 100.217L164.691 100.108L164.084 100.061L163.681 100.031L162.861 99.964L161.626 99.867L161.516 99.8594L161.004 99.8169H160.966L159.434 99.6972H159.391L159.239 99.6851L158.329 99.6123L157.642 99.5577L157.214 99.5244L155.42 99.3819H155.405L152.405 99.1393L151.994 99.106H151.965L150.642 98.9984L150.234 98.965L149.094 98.8726L146.772 98.6618L145.308 98.5436L144.39 98.4663L142.205 98.2874L142.102 98.2783L140.736 98.1646L138.808 98.0085L138.038 97.9448L137.803 97.9251L136.257 97.7948L136.029 97.7766L134.978 97.6856C133.497 97.5593 132.044 97.435 130.62 97.3127L130.107 97.2688L129.796 97.2415L129.378 97.2051L128.555 97.1338C123.256 96.67 118.529 96.2334 114.88 95.8635C114.508 95.8272 114.147 95.7893 113.799 95.7529C112.931 95.6635 112.13 95.577 111.425 95.4952C109.403 95.2663 108.026 95.0753 107.479 94.9373C104.526 94.1946 99.604 92.2391 96.5844 90.2063C94.7635 88.98 93.6391 87.7279 94.0579 86.694C94.589 85.3798 95.7438 84.5855 96.9289 84.0019C97.9577 83.494 99.0077 83.1454 99.6966 82.7482L99.8119 82.6785C99.9304 82.6063 100.042 82.5236 100.146 82.4314L100.196 82.3859C101.074 81.5649 102.041 80.8435 103.079 80.2349H103.088C105.73 78.6918 110.145 77.0516 116.874 77.5412C116.874 77.5412 130.04 78.5811 146.463 79.9257L151.461 80.3365C152.024 80.382 152.592 80.4274 153.159 80.4759L155.731 80.6882L160.062 81.0474L160.933 81.1202L162.675 81.2718L166.165 81.5643C166.743 81.6149 167.322 81.6654 167.901 81.7159C169.969 81.8903 172.025 82.0646 174.052 82.2389H174.061C179.919 82.7422 185.534 83.2318 190.516 83.682L191.301 83.7533C194.225 84.0201 196.915 84.2702 199.288 84.4991L202.467 84.8159C206.018 85.1782 208.494 85.4677 209.461 85.6557C211.972 86.1408 214.772 86.5925 217.339 86.973L217.967 87.0639H217.999C218.316 87.1124 218.629 87.1564 218.937 87.2003H218.964L220.007 87.3519C220.501 87.4217 220.976 87.4853 221.424 87.546L221.993 87.6233C224.205 87.9174 225.677 88.0917 225.677 88.0917C225.677 88.0917 225.686 88.1311 225.7 88.2039V88.2236C225.7 88.2433 225.7 88.2645 225.712 88.2887C225.724 88.313 225.73 88.3918 225.739 88.454C225.749 88.5161 225.768 88.6313 225.782 88.739C225.782 88.7647 225.782 88.792 225.793 88.8193C225.805 88.9087 225.818 89.0027 225.829 89.1058C225.837 89.1755 225.844 89.2574 225.852 89.3256C225.852 89.368 225.852 89.4105 225.862 89.4529C225.873 89.4954 225.87 89.5484 225.873 89.5954L225.887 89.8061C225.887 89.8364 225.887 89.8652 225.887 89.894C225.887 89.9228 225.887 89.9971 225.887 90.0456C225.887 90.0729 225.887 90.0987 225.887 90.1245C225.887 90.1775 225.887 90.2306 225.887 90.276C225.919 90.2912 225.919 90.32 225.92 90.3473Z" fill="#E4DFFF"/>
<path d="M225.92 90.3473C225.92 90.3988 225.92 90.4534 225.92 90.508C225.902 91.6661 225.667 92.9576 224.846 93.7019C224.819 93.7277 224.79 93.7519 224.761 93.7762C224.702 93.8242 224.642 93.8692 224.579 93.9111L224.48 93.9717L224.38 94.0293L224.274 94.0809L224.161 94.1294L224.046 94.1733L224.011 94.184L223.975 94.1961L223.937 94.2082L223.896 94.2203C223.881 94.2233 223.866 94.2278 223.852 94.234L223.808 94.2476L223.762 94.2628L223.712 94.2779L223.662 94.2946L223.611 94.3113L223.498 94.3492L223.442 94.3674L223.382 94.3856L223.338 94.3992L222.806 94.569L222.696 94.6023C222.186 94.763 221.567 94.954 220.855 95.1693L220.63 95.236C220.508 95.2739 220.38 95.3133 220.25 95.3512L220.165 95.3754L220.046 95.4118L219.925 95.4467L219.802 95.4846L219.678 95.521L219.555 95.5573L219.427 95.5952L219.3 95.6331L219.171 95.6695L219.078 95.6983C219.065 95.7006 219.053 95.7042 219.04 95.7089L218.91 95.7453C218.688 95.812 218.464 95.8772 218.233 95.9439L217.829 96.0606L217.477 96.1622L217.209 96.2395L216.131 96.5426L215.908 96.6063L215.521 96.7139C215.405 96.7488 215.286 96.7806 215.168 96.814L214.77 96.9246C210.361 98.1464 205.015 99.5183 200.052 100.514L199.531 100.617L199.273 100.669L198.757 100.766C198.244 100.864 197.736 100.958 197.24 101.045L196.742 101.131L196.495 101.172L196.005 101.252C195.842 101.28 195.68 101.304 195.519 101.328L195.041 101.399C194.889 101.424 194.724 101.448 194.569 101.469L194.103 101.533L193.648 101.594L193.422 101.621C193.119 101.657 192.824 101.691 192.536 101.721L192.317 101.742L191.891 101.785C191.609 101.809 191.333 101.832 191.062 101.848C190.861 101.863 190.662 101.874 190.468 101.883C190.337 101.891 190.208 101.895 190.081 101.9C189.891 101.9 189.704 101.913 189.524 101.913C189.279 101.913 189.044 101.913 188.818 101.913C188.703 101.913 188.591 101.906 188.48 101.901C188.425 101.901 188.372 101.901 188.316 101.901C188.208 101.901 188.102 101.891 187.999 101.883L187.882 101.874H187.855H187.777L187.474 101.851H187.386L187.273 101.842L187.097 101.83H187L186.903 101.822L186.68 101.798L186.469 101.783L186.358 101.775C186.269 101.766 186.176 101.76 186.082 101.753L185.949 101.742L185.66 101.721L185.535 101.712L185.164 101.684L184.044 101.6L183.893 101.587L183.589 101.566L183.134 101.531L182.941 101.516L182.486 101.483L182.319 101.471L182.002 101.445L181.653 101.418L181.466 101.404L181.292 101.39L181.01 101.369L179.313 101.24L179.055 101.221L178.661 101.19L177.723 101.118H177.65L176.817 101.04H176.778L171.354 100.619L171.063 100.596L169.889 100.507L169.141 100.446H169.1L168.236 100.379H168.13L166.588 100.258L166.189 100.226L166.066 100.217L164.692 100.108L164.085 100.061L163.681 100.031L162.862 99.964L161.626 99.867L161.516 99.8594L161.004 99.8169H160.966L159.434 99.6972H159.391L159.24 99.685C170.772 93.2623 174.063 82.2328 174.063 82.2328H174.072C179.929 82.7361 185.545 83.2257 190.527 83.6759L191.311 83.7472C194.235 84.014 196.926 84.2641 199.299 84.493L202.478 84.8098C206.029 85.1721 208.505 85.4616 209.472 85.6496C211.983 86.1347 214.782 86.5864 217.35 86.9669L217.978 87.0578H218.01C218.327 87.1063 218.64 87.1503 218.948 87.1943H218.975L220.017 87.3458C220.512 87.4156 220.987 87.4792 221.435 87.5399L222.004 87.6172C224.216 87.9113 225.688 88.0856 225.688 88.0856C225.688 88.0856 225.697 88.125 225.711 88.1978V88.2175C225.711 88.2372 225.711 88.2584 225.723 88.2827C225.735 88.3069 225.741 88.3857 225.75 88.4479C225.759 88.51 225.779 88.6252 225.793 88.7329C225.793 88.7586 225.793 88.7859 225.803 88.8132C225.815 88.9027 225.829 88.9966 225.84 89.0997C225.847 89.1694 225.855 89.2513 225.862 89.3195C225.862 89.362 225.862 89.4044 225.873 89.4469C225.884 89.4893 225.881 89.5424 225.884 89.5893L225.897 89.8C225.897 89.8304 225.897 89.8592 225.897 89.888C225.897 89.9168 225.897 89.991 225.897 90.0396C225.897 90.0668 225.897 90.0926 225.897 90.1184C225.897 90.1714 225.897 90.2245 225.897 90.27C225.919 90.2912 225.919 90.32 225.92 90.3473Z" fill="#F99746"/>
<path opacity="0.5" d="M224.04 94.1734C223.321 94.4204 221.169 95.098 218.219 95.9545C217.234 91.8344 214.058 90.1139 214.058 90.1139L225.812 88.8011C226.008 90.2564 226.173 93.4412 224.04 94.1734Z" fill="#E27727"/>
<path d="M161.195 88.7359C161.001 88.7071 160.825 88.6023 160.708 88.4446C160.59 88.2869 160.54 88.0892 160.569 87.8946L160.643 87.067C160.653 86.8707 160.738 86.686 160.882 86.5517C161.026 86.4173 161.216 86.3439 161.412 86.3469C161.607 86.3758 161.782 86.4805 161.9 86.6382C162.017 86.7959 162.067 86.9937 162.039 87.1882L161.965 88.0159C161.955 88.2121 161.869 88.3969 161.726 88.5312C161.582 88.6655 161.392 88.7389 161.195 88.7359Z" fill="#2B478B"/>
<path d="M157.596 88.4252C157.212 88.3934 156.93 88.0144 156.968 87.5839L157.044 86.7578C157.053 86.5616 157.139 86.3766 157.282 86.242C157.425 86.1074 157.615 86.0336 157.812 86.0362C158.006 86.0655 158.181 86.1703 158.299 86.3278C158.417 86.4853 158.467 86.6829 158.44 86.8775L158.364 87.7052C158.324 88.1342 157.978 88.4586 157.596 88.4252Z" fill="#2B478B"/>
<path d="M153.995 88.1159C153.8 88.0867 153.625 87.9817 153.508 87.8237C153.39 87.6658 153.34 87.4678 153.369 87.2731L153.443 86.447C153.453 86.2521 153.539 86.0688 153.681 85.9352C153.824 85.8016 154.012 85.7281 154.208 85.73C154.402 85.7592 154.577 85.864 154.695 86.0216C154.812 86.1792 154.862 86.3768 154.834 86.5713L154.76 87.3989C154.749 87.5938 154.664 87.7771 154.522 87.9107C154.379 88.0443 154.191 88.1178 153.995 88.1159Z" fill="#2B478B"/>
<path d="M150.394 87.8052C150.2 87.776 150.025 87.6711 149.908 87.5135C149.79 87.3559 149.74 87.1584 149.768 86.9639L149.844 86.1362C149.853 85.94 149.938 85.7551 150.082 85.6205C150.225 85.4859 150.415 85.4121 150.611 85.4147C150.806 85.4439 150.981 85.5488 151.098 85.7064C151.216 85.8639 151.266 86.0615 151.238 86.256L151.164 87.0837C151.124 87.5126 150.778 87.8386 150.394 87.8052Z" fill="#2B478B"/>
<path d="M146.795 87.4944C146.601 87.4652 146.426 87.3604 146.308 87.2028C146.191 87.0452 146.141 86.8476 146.169 86.6531L146.243 85.8255C146.252 85.629 146.338 85.4438 146.481 85.3092C146.625 85.1745 146.815 85.1009 147.012 85.1039C147.207 85.1331 147.382 85.238 147.499 85.3956C147.616 85.5532 147.667 85.7507 147.639 85.9452L147.564 86.7729C147.555 86.9694 147.47 87.1545 147.326 87.2891C147.182 87.4238 146.992 87.4974 146.795 87.4944Z" fill="#2B478B"/>
<path d="M143.194 87.1837C143 87.1545 142.825 87.0497 142.708 86.8921C142.59 86.7345 142.54 86.5369 142.568 86.3424L142.644 85.5148C142.653 85.3185 142.738 85.1336 142.882 84.999C143.025 84.8644 143.215 84.7906 143.411 84.7932C143.606 84.8224 143.781 84.9275 143.899 85.0854C144.016 85.2434 144.066 85.4413 144.038 85.636L143.964 86.4622C143.954 86.6587 143.869 86.8438 143.725 86.9785C143.582 87.1131 143.391 87.1867 143.194 87.1837Z" fill="#2B478B"/>
<path d="M139.595 86.873C139.401 86.8437 139.226 86.7389 139.108 86.5813C138.991 86.4237 138.941 86.2261 138.968 86.0316L139.043 85.204C139.052 85.0075 139.138 84.8223 139.281 84.6877C139.425 84.553 139.615 84.4794 139.812 84.4824C140.007 84.5116 140.182 84.6167 140.3 84.7746C140.417 84.9326 140.467 85.1305 140.439 85.3252L140.363 86.1514C140.354 86.3476 140.268 86.5325 140.125 86.6671C139.982 86.8017 139.792 86.8755 139.595 86.873Z" fill="#2B478B"/>
<path d="M135.999 86.5622C135.804 86.5333 135.629 86.4286 135.512 86.2709C135.394 86.1132 135.344 85.9154 135.372 85.7209L135.448 84.8932C135.458 84.6972 135.543 84.5127 135.687 84.3784C135.83 84.2441 136.019 84.1706 136.216 84.1732C136.411 84.202 136.586 84.3068 136.703 84.4645C136.821 84.6222 136.871 84.8199 136.843 85.0145L136.768 85.8406C136.759 86.0371 136.673 86.2222 136.53 86.3569C136.386 86.4915 136.196 86.5651 135.999 86.5622Z" fill="#2B478B"/>
<path d="M132.395 86.2514C132.2 86.2226 132.025 86.1178 131.908 85.9601C131.79 85.8024 131.74 85.6046 131.768 85.4101L131.843 84.5825C131.853 84.3862 131.938 84.2015 132.082 84.0672C132.225 83.9328 132.415 83.8594 132.612 83.8624C132.807 83.8917 132.982 83.9965 133.099 84.1541C133.216 84.3117 133.267 84.5093 133.239 84.7037L133.163 85.5314C133.153 85.7273 133.068 85.9119 132.924 86.0462C132.781 86.1804 132.592 86.254 132.395 86.2514Z" fill="#2B478B"/>
<path d="M128.867 85.9482C128.673 85.9186 128.497 85.8135 128.38 85.6557C128.262 85.4979 128.212 85.3002 128.239 85.1054L128.315 84.2792C128.324 84.083 128.41 83.8981 128.553 83.7635C128.696 83.6289 128.886 83.5551 129.083 83.5577C129.277 83.5869 129.452 83.6917 129.57 83.8493C129.688 84.0068 129.738 84.2044 129.711 84.399L129.635 85.2267C129.626 85.4229 129.54 85.6078 129.397 85.7424C129.254 85.877 129.064 85.9508 128.867 85.9482Z" fill="#2B478B"/>
<path d="M125.266 85.6375C125.072 85.6083 124.897 85.5034 124.78 85.3458C124.662 85.1882 124.612 84.9907 124.64 84.7962L124.714 83.9685C124.723 83.772 124.809 83.5869 124.953 83.4523C125.096 83.3176 125.286 83.244 125.483 83.247C125.678 83.2762 125.853 83.3811 125.97 83.5386C126.088 83.6962 126.138 83.8938 126.11 84.0883L126.036 84.916C126.026 85.1124 125.941 85.2976 125.797 85.4322C125.654 85.5669 125.463 85.6405 125.266 85.6375Z" fill="#2B478B"/>
<path d="M121.666 85.3268C121.471 85.2971 121.297 85.1922 121.179 85.0347C121.062 84.8772 121.012 84.6798 121.039 84.4854L121.115 83.6578C121.124 83.4616 121.21 83.2766 121.353 83.142C121.496 83.0074 121.686 82.9336 121.883 82.9362C122.077 82.9655 122.252 83.0703 122.37 83.2278C122.488 83.3853 122.538 83.5829 122.511 83.7775L122.435 84.6052C122.395 85.0342 122.05 85.3601 121.666 85.3268Z" fill="#2B478B"/>
<path d="M117.206 84.8993C117.012 84.8711 116.837 84.7673 116.719 84.6106C116.601 84.4538 116.549 84.2568 116.576 84.0625L116.652 83.2349C116.662 83.0389 116.748 82.8544 116.891 82.7201C117.034 82.5858 117.224 82.5122 117.42 82.5148C117.615 82.5437 117.79 82.6484 117.907 82.8061C118.025 82.9638 118.075 83.1616 118.047 83.3562L117.972 84.1838C117.961 84.3787 117.876 84.5619 117.733 84.6951C117.59 84.8284 117.401 84.9016 117.206 84.8993Z" fill="#2B478B"/>
<path d="M200.475 92.5514C200.28 92.5222 200.105 92.4173 199.988 92.2597C199.871 92.1021 199.82 91.9046 199.848 91.7101L199.924 90.8824C199.934 90.6865 200.019 90.5019 200.163 90.3677C200.306 90.2334 200.495 90.1598 200.692 90.1624C200.886 90.1912 201.062 90.296 201.179 90.4537C201.297 90.6114 201.347 90.8092 201.319 91.0037L201.244 91.8314C201.234 92.0276 201.149 92.2124 201.005 92.3467C200.862 92.481 200.672 92.5544 200.475 92.5514Z" fill="#2B478B"/>
<path d="M196.875 92.233C196.681 92.2042 196.505 92.0994 196.388 91.9417C196.271 91.784 196.22 91.5862 196.249 91.3917L196.323 90.5656C196.332 90.3691 196.418 90.1839 196.562 90.0493C196.705 89.9146 196.895 89.841 197.092 89.844C197.287 89.8733 197.462 89.9781 197.579 90.1357C197.697 90.2933 197.747 90.4909 197.719 90.6853L197.643 91.513C197.633 91.7089 197.548 91.8935 197.405 92.0277C197.261 92.162 197.072 92.2356 196.875 92.233Z" fill="#2B478B"/>
<path d="M193.275 91.9238C193.08 91.8946 192.905 91.7895 192.787 91.6316C192.67 91.4736 192.62 91.2757 192.648 91.081L192.724 90.2548C192.733 90.0586 192.819 89.8737 192.962 89.7391C193.105 89.6045 193.295 89.5307 193.492 89.5333C193.686 89.5625 193.861 89.6673 193.979 89.8249C194.096 89.9825 194.146 90.1801 194.118 90.3746L194.044 91.2022C194.035 91.3987 193.949 91.5839 193.806 91.7185C193.662 91.8532 193.472 91.9268 193.275 91.9238Z" fill="#2B478B"/>
<path d="M103.731 80.2729L101.276 82.5861L99.812 82.6801C99.9301 82.6073 100.042 82.5246 100.146 82.433L100.196 82.3875C100.624 81.9874 101.073 81.6105 101.542 81.2582C102.035 80.8885 102.549 80.5473 103.082 80.2365H103.091L103.731 80.2729Z" fill="#2B478B"/>
<path d="M104.266 80.3486L101.87 82.6846L104.59 83.2606L105.449 80.5957L104.266 80.3486Z" fill="#2B478B"/>
<path d="M105.706 80.6775L105.073 83.1817L107.089 82.6087L107.218 80.864L105.706 80.6775Z" fill="#2B478B"/>
<path d="M154.803 99.87C155.865 99.4577 156.138 97.619 155.258 96.8383C154.378 96.0576 153.187 95.2572 151.839 95.1602C149.071 94.9601 150.196 100.59 151.114 100.707C151.659 100.767 153.396 100.42 154.803 99.87Z" fill="#344AB7"/>
<path d="M213.822 88.9967C213.932 88.8451 224.237 85.4541 230.968 86.929L224.484 91.0083L214.057 90.1139C214.057 90.1139 213.266 89.7455 213.822 88.9967Z" fill="#344AB7"/>
<path d="M208.847 65.243C208.847 65.243 201.95 80.4699 200.637 82.7816C199.325 85.0933 196.455 86.5713 196.455 86.5713H196.437L178.165 93.9869C178.165 93.9869 155.37 92.1936 150.414 91.6418C149.959 91.5918 149.656 91.5509 149.536 91.5251C148.028 91.2038 147.323 90.5065 147.613 89.9562C147.903 89.4059 182.946 85.21 186.826 84.778L186.937 84.7659C190.714 84.3202 191.064 83.0362 191.064 83.0362L205.522 66.4829C205.729 66.1715 206.02 65.925 206.361 65.772C207.396 65.2657 208.847 65.243 208.847 65.243Z" fill="#ECE9FF"/>
<path d="M206.356 65.7781C202.466 70.4955 191.703 83.5138 190.682 84.3915C189.581 85.3449 158.136 90.3943 150.411 91.6479C149.956 91.5979 149.653 91.557 149.533 91.5312C148.024 91.2099 147.32 90.5126 147.61 89.9623C147.9 89.412 182.943 85.2161 186.823 84.7841C190.703 84.3521 191.061 83.0423 191.061 83.0423L205.519 66.489C205.725 66.1778 206.016 65.9314 206.356 65.7781Z" fill="#4656CC"/>
<path d="M208.846 65.243C208.846 65.243 201.95 80.4699 200.637 82.7816C199.325 85.0933 196.455 86.5713 196.455 86.5713H196.437C193.193 86.4808 189.984 85.8723 186.932 84.7689C190.709 84.3232 191.059 83.0393 191.059 83.0393L205.517 66.486C205.724 66.1746 206.015 65.9281 206.356 65.775C207.396 65.2657 208.846 65.243 208.846 65.243Z" fill="#ECE9FF"/>
<path d="M152.47 93.8232L151.78 101.503C151.78 101.503 148.842 102.564 144.249 102.315C141.436 102.163 139.563 101.548 138.533 101.093C138.196 100.952 137.872 100.781 137.567 100.581L138.293 92.5301C138.606 92.2881 138.969 92.1202 139.356 92.039C142.987 91.1083 151.915 93.5124 151.915 93.5124L152.47 93.8232Z" fill="#ECE9FF"/>
<path d="M139.348 92.039L138.53 101.093C138.193 100.952 137.869 100.781 137.563 100.581L138.29 92.5301C138.601 92.2887 138.963 92.1208 139.348 92.039Z" fill="#FF9843"/>
<path d="M94.2219 232.012L148.214 217.611C149.357 217.308 150.115 216.398 149.9 215.584L119.628 101.894C119.412 101.084 118.302 100.672 117.157 100.984L63.1638 115.38C62.0196 115.684 61.2609 116.593 61.4764 117.406L91.7485 231.096C91.967 231.91 93.0793 232.322 94.2219 232.012Z" fill="#FBAA50"/>
<path d="M94.2219 232.012L98.6618 230.828L67.6052 114.197L63.1638 115.38C62.0196 115.684 61.2609 116.593 61.4764 117.406L91.7485 231.096C91.967 231.91 93.0793 232.322 94.2219 232.012Z" fill="#EF7E29"/>
<path opacity="0.5" d="M110.043 152.415L100.953 118.286L94.0229 120.128L103.113 154.257L110.043 152.415Z" fill="#EF7E29"/>
<path opacity="0.5" d="M129.261 162.767L116.322 114.188L109.392 116.03L122.331 164.609L129.261 162.767Z" fill="#EF7E29"/>
<path d="M114.1 140.793L107.631 116.503L106.087 116.914L112.556 141.203L114.1 140.793Z" fill="#EF7E29"/>
<path d="M98.832 144.864L92.3625 120.574L90.8184 120.985L97.2879 145.274L98.832 144.864Z" fill="#EF7E29"/>
<path d="M80.101 123.214L80.2528 123.613C80.2578 123.627 80.2644 123.64 80.2725 123.653L82.192 126.422C82.2149 126.456 82.2251 126.498 82.2208 126.539L82.0797 131.43C82.0645 131.559 81.5046 131.008 81.3969 130.933C80.233 130.133 77.1163 127.389 75.8144 126.405C75.7674 126.373 75.7123 126.355 75.6553 126.352C75.5983 126.35 75.5418 126.363 75.4922 126.392C75.4426 126.42 75.402 126.461 75.375 126.511C75.348 126.562 75.3356 126.618 75.3394 126.675C75.3534 126.8 75.4029 126.918 75.4821 127.015L79.9751 132.487L79.7368 133.519C79.7209 133.592 79.7341 133.667 79.7736 133.73C79.813 133.793 79.8756 133.837 79.9478 133.854L80.7474 134.036C80.8184 134.052 80.8928 134.04 80.9551 134.003C81.0174 133.965 81.0626 133.905 81.0813 133.835L81.6594 134.54C81.6736 134.556 81.6843 134.575 81.6911 134.595C81.6979 134.616 81.7005 134.638 81.6988 134.659L81.4121 139.101C81.3859 139.494 81.4975 139.883 81.7277 140.203C81.8202 140.333 81.9219 140.473 82.0145 140.602C82.0604 140.665 82.1188 140.719 82.1862 140.76C82.2535 140.8 82.3284 140.826 82.4063 140.837C82.4842 140.848 82.5634 140.843 82.6393 140.822C82.7151 140.801 82.7859 140.766 82.8475 140.717L82.978 140.614C83.1883 140.448 83.3593 140.238 83.4789 139.998C83.5985 139.759 83.6637 139.496 83.6699 139.228L83.7443 135.683C83.7459 135.649 83.7574 135.617 83.7774 135.59C83.7974 135.563 83.825 135.542 83.8566 135.531L85.201 135.026L85.1509 135.246C85.1426 135.282 85.1414 135.319 85.1475 135.355C85.1535 135.391 85.1666 135.426 85.186 135.457C85.2055 135.488 85.2309 135.515 85.2608 135.536C85.2907 135.558 85.3245 135.573 85.3603 135.581L86.1615 135.763C86.2337 135.779 86.3093 135.766 86.372 135.727C86.4347 135.688 86.4795 135.625 86.4969 135.554L86.7518 134.444L88.8503 133.657C89.017 133.59 89.1605 133.476 89.2631 133.328C89.3981 133.142 89.5484 132.942 89.5119 132.902C89.3921 132.777 85.638 132.504 84.1874 132.472C84.1054 132.472 84.1176 131.775 84.1191 131.693L83.9218 126.965C83.9213 126.933 83.9295 126.903 83.9456 126.876C83.9617 126.849 83.985 126.827 84.0129 126.813L85.1919 126.186C85.3269 126.116 85.434 126.003 85.4954 125.864C85.5054 125.841 85.5102 125.817 85.5096 125.792C85.509 125.767 85.5029 125.742 85.4917 125.72C85.4806 125.698 85.4647 125.678 85.4451 125.663C85.4255 125.647 85.4028 125.636 85.3785 125.631L83.5076 125.176C83.4807 125.169 83.4557 125.157 83.4349 125.138C83.414 125.12 83.3979 125.097 83.3877 125.071L83.2117 124.617C83.1994 124.585 83.1782 124.558 83.1507 124.539C83.1232 124.52 83.0906 124.509 83.0569 124.508C83.0232 124.507 82.99 124.516 82.9614 124.533C82.9328 124.551 82.9101 124.577 82.8961 124.608L82.8278 124.759L80.3605 123.02C80.331 123 80.2959 122.99 80.2603 122.991C80.2246 122.992 80.1901 123.004 80.1616 123.025C80.133 123.046 80.1118 123.076 80.101 123.11C80.0901 123.144 80.0901 123.181 80.101 123.214Z" fill="#EF7E29"/>
<path d="M62.0348 147.206H133.155C134.446 147.206 135.685 147.718 136.597 148.63C137.51 149.542 138.023 150.779 138.023 152.069V240.356C138.023 241.68 137.497 242.95 136.56 243.886C135.623 244.822 134.352 245.348 133.026 245.348H62.0348V147.206Z" fill="#7165E3"/>
<path d="M73.168 159.623V162.697H71.7295V154.423H74.8978C75.3332 154.416 75.7666 154.482 76.18 154.619C76.5297 154.735 76.8518 154.922 77.1269 155.167C77.3825 155.399 77.5836 155.684 77.7156 156.003C77.8527 156.336 77.9214 156.693 77.9174 157.053C77.9237 157.423 77.8551 157.791 77.7156 158.134C77.5857 158.448 77.3829 158.726 77.1238 158.946C76.8457 159.177 76.5236 159.349 76.177 159.451C75.7612 159.575 75.3287 159.635 74.8948 159.629L73.168 159.623ZM73.168 158.469H74.8978C75.1396 158.474 75.3805 158.439 75.611 158.366C75.7945 158.307 75.9625 158.208 76.1026 158.076C76.2312 157.953 76.3281 157.8 76.3849 157.631C76.4453 157.448 76.4751 157.257 76.4729 157.065C76.4738 156.876 76.4441 156.687 76.3849 156.507C76.326 156.331 76.2298 156.169 76.1026 156.033C75.9645 155.889 75.7968 155.777 75.611 155.704C75.3836 155.617 75.1413 155.575 74.8978 155.581H73.168V158.469Z" fill="#C8BEFF"/>
<path d="M82.7988 160.766H79.5895L78.9189 162.692H77.4272L80.5561 154.419H81.8474L84.9809 162.692H83.4802L82.7988 160.766ZM79.9932 159.606H82.3937L81.1934 156.174L79.9932 159.606Z" fill="#C8BEFF"/>
<path d="M90.2448 160.565C90.2468 160.414 90.2216 160.263 90.1704 160.12C90.1129 159.978 90.0199 159.854 89.9003 159.759C89.7362 159.629 89.5543 159.523 89.3601 159.444C89.0717 159.322 88.7763 159.216 88.4755 159.128C88.1026 159.018 87.7376 158.883 87.383 158.724C87.0732 158.588 86.7832 158.41 86.5211 158.196C86.288 158.005 86.0955 157.769 85.9551 157.502C85.8144 157.224 85.7441 156.916 85.7503 156.605C85.747 156.285 85.8204 155.97 85.9642 155.684C86.1103 155.4 86.3176 155.152 86.5712 154.957C86.8484 154.742 87.1626 154.58 87.4983 154.479C87.8853 154.362 88.2881 154.305 88.6925 154.309C89.1204 154.303 89.5461 154.371 89.9504 154.511C90.2973 154.63 90.6171 154.816 90.8912 155.06C91.1425 155.283 91.3432 155.557 91.4801 155.863C91.6169 156.17 91.6867 156.502 91.6848 156.838H90.2524C90.2542 156.649 90.2223 156.461 90.1583 156.283C90.0972 156.117 89.9985 155.968 89.87 155.847C89.7298 155.716 89.5632 155.618 89.3814 155.559C89.1554 155.486 88.9191 155.452 88.6819 155.457C88.4589 155.453 88.2365 155.482 88.0218 155.542C87.8558 155.591 87.7012 155.673 87.5666 155.781C87.4462 155.878 87.3522 156.003 87.2935 156.145C87.2336 156.289 87.2036 156.444 87.2054 156.6C87.2065 156.754 87.247 156.906 87.3229 157.04C87.3988 157.175 87.5077 157.288 87.6394 157.368C88.0504 157.625 88.4988 157.816 88.9687 157.935C89.3854 158.053 89.7914 158.205 90.1826 158.39C90.4921 158.536 90.7784 158.726 91.0323 158.956C91.2497 159.153 91.4216 159.396 91.5361 159.667C91.6504 159.949 91.7066 160.252 91.7015 160.556C91.7062 160.882 91.635 161.203 91.4936 161.496C91.3546 161.776 91.1519 162.02 90.9018 162.207C90.6228 162.415 90.3074 162.57 89.9717 162.662C89.5759 162.768 89.1674 162.819 88.7577 162.814C88.3597 162.813 87.9635 162.759 87.5802 162.651C87.2077 162.55 86.8555 162.385 86.5393 162.163C86.2357 161.948 85.9825 161.67 85.7973 161.348C85.6028 160.996 85.5054 160.6 85.5151 160.199H86.9551C86.9483 160.431 86.9961 160.662 87.0947 160.873C87.1837 161.053 87.3143 161.209 87.4755 161.328C87.6471 161.452 87.8415 161.541 88.0476 161.59C88.2801 161.646 88.5186 161.674 88.7577 161.672C89.2635 161.672 89.6399 161.571 89.8867 161.369C90.0049 161.272 90.0989 161.149 90.1611 161.01C90.2233 160.87 90.2519 160.718 90.2448 160.565Z" fill="#C8BEFF"/>
<path d="M97.2748 160.566C97.2776 160.414 97.2524 160.263 97.2004 160.12C97.1434 159.978 97.0503 159.854 96.9304 159.759C96.7662 159.629 96.5843 159.523 96.3902 159.444C96.1018 159.321 95.8064 159.216 95.5055 159.128C95.1326 159.018 94.7676 158.883 94.413 158.724C94.1032 158.588 93.8133 158.41 93.5511 158.196C93.3184 158.004 93.1261 157.768 92.9851 157.502C92.8444 157.224 92.7741 156.916 92.7803 156.605C92.777 156.285 92.8504 155.97 92.9942 155.684C93.141 155.401 93.3481 155.152 93.6012 154.957C93.878 154.742 94.1924 154.58 94.5283 154.479C94.9153 154.362 95.3181 154.305 95.7225 154.31C96.1499 154.303 96.5751 154.371 96.9789 154.511C97.3261 154.63 97.6463 154.817 97.9212 155.06C98.1716 155.284 98.3721 155.557 98.51 155.863C98.647 156.17 98.7168 156.502 98.7148 156.838H97.2748C97.2766 156.649 97.2447 156.461 97.1807 156.283C97.1202 156.117 97.022 155.968 96.8939 155.847C96.7532 155.716 96.586 155.618 96.4038 155.559C96.1779 155.486 95.9415 155.452 95.7043 155.457C95.4813 155.453 95.259 155.482 95.0442 155.542C94.8756 155.59 94.7182 155.672 94.5814 155.781C94.4619 155.878 94.3681 156.003 94.3083 156.145C94.2484 156.289 94.2184 156.444 94.2203 156.6C94.2215 156.755 94.2622 156.906 94.3384 157.041C94.4146 157.175 94.5238 157.288 94.6558 157.369C95.0663 157.625 95.5142 157.816 95.9835 157.935C96.4003 158.052 96.8064 158.205 97.1974 158.39C97.5072 158.536 97.794 158.727 98.0487 158.956C98.2656 159.154 98.4374 159.396 98.5524 159.667C98.6654 159.949 98.7211 160.252 98.7163 160.556C98.7218 160.882 98.6506 161.204 98.5084 161.496C98.3695 161.776 98.1674 162.019 97.9182 162.207C97.639 162.415 97.3236 162.569 96.988 162.662C96.5923 162.768 96.1838 162.819 95.7741 162.814C95.376 162.813 94.9798 162.759 94.5966 162.651C94.224 162.55 93.8718 162.385 93.5556 162.163C93.2512 161.949 92.9974 161.67 92.8121 161.348C92.6187 160.996 92.5219 160.6 92.5314 160.199H93.9669C93.961 160.431 94.0087 160.662 94.1065 160.873C94.1955 161.053 94.3261 161.209 94.4873 161.328C94.6589 161.452 94.8533 161.541 95.0594 161.59C95.2924 161.646 95.5314 161.674 95.7711 161.672C96.2698 161.672 96.6461 161.571 96.9 161.369C97.0214 161.274 97.1186 161.152 97.1838 161.012C97.2489 160.872 97.2801 160.719 97.2748 160.566Z" fill="#C8BEFF"/>
<path d="M101.416 159.623V162.697H99.9773V154.423H103.146C103.581 154.416 104.014 154.482 104.428 154.619C104.777 154.735 105.1 154.922 105.375 155.167C105.63 155.399 105.831 155.684 105.963 156.003C106.101 156.336 106.169 156.693 106.165 157.053C106.172 157.423 106.103 157.791 105.963 158.134C105.834 158.445 105.632 158.722 105.375 158.94C105.097 159.171 104.774 159.343 104.428 159.445C104.012 159.569 103.58 159.629 103.146 159.623H101.416ZM101.416 158.469H103.146C103.387 158.474 103.628 158.439 103.859 158.366C104.042 158.307 104.21 158.208 104.35 158.076C104.479 157.953 104.576 157.8 104.633 157.631C104.693 157.448 104.723 157.257 104.721 157.065C104.722 156.876 104.692 156.687 104.633 156.507C104.574 156.331 104.478 156.169 104.35 156.033C104.212 155.889 104.045 155.777 103.859 155.704C103.631 155.617 103.389 155.575 103.146 155.581H101.416V158.469Z" fill="#C8BEFF"/>
<path d="M114.033 158.775C114.041 159.348 113.957 159.919 113.784 160.465C113.639 160.93 113.403 161.361 113.088 161.733C112.793 162.077 112.423 162.35 112.007 162.532C111.565 162.716 111.09 162.811 110.611 162.811C110.131 162.811 109.656 162.716 109.214 162.532C108.796 162.348 108.425 162.076 108.124 161.733C107.805 161.362 107.564 160.931 107.414 160.465C107.238 159.92 107.153 159.349 107.161 158.775V158.355C107.153 157.781 107.238 157.209 107.414 156.662C107.564 156.196 107.804 155.763 108.12 155.389C108.416 155.044 108.786 154.77 109.203 154.587C110.098 154.217 111.103 154.217 111.998 154.587C112.416 154.769 112.788 155.043 113.085 155.389C113.401 155.762 113.639 156.195 113.784 156.662C113.957 157.21 114.041 157.781 114.033 158.355V158.775ZM112.593 158.343C112.599 157.931 112.554 157.52 112.46 157.118C112.387 156.8 112.254 156.499 112.07 156.23C111.909 155.999 111.693 155.813 111.441 155.687C111.178 155.561 110.889 155.498 110.596 155.502C110.309 155.498 110.025 155.562 109.766 155.687C109.515 155.814 109.299 156 109.138 156.23C108.952 156.499 108.816 156.8 108.739 157.118C108.641 157.519 108.595 157.931 108.601 158.343V158.775C108.595 159.189 108.641 159.601 108.739 160.003C108.816 160.324 108.953 160.627 109.141 160.897C109.304 161.129 109.522 161.316 109.775 161.443C110.035 161.569 110.32 161.632 110.608 161.628C110.895 161.641 111.181 161.582 111.438 161.454C111.695 161.327 111.916 161.136 112.079 160.901C112.422 160.415 112.593 159.708 112.593 158.778V158.343Z" fill="#C8BEFF"/>
<path d="M118.509 159.509H116.905V162.692H115.465V154.419H118.379C118.807 154.412 119.233 154.467 119.646 154.581C119.989 154.674 120.309 154.836 120.588 155.057C120.843 155.266 121.043 155.535 121.171 155.839C121.31 156.182 121.377 156.549 121.37 156.918C121.387 157.412 121.247 157.899 120.969 158.308C120.684 158.695 120.297 158.993 119.851 159.169L121.711 162.618V162.692H120.169L118.509 159.509ZM116.905 158.355H118.383C118.613 158.36 118.842 158.325 119.06 158.252C119.24 158.193 119.405 158.096 119.544 157.969C119.672 157.849 119.772 157.701 119.834 157.537C119.901 157.361 119.934 157.173 119.931 156.985C119.934 156.789 119.903 156.594 119.84 156.409C119.782 156.241 119.687 156.089 119.561 155.965C119.424 155.835 119.26 155.738 119.08 155.681C118.853 155.61 118.616 155.576 118.379 155.581H116.905V158.355Z" fill="#C8BEFF"/>
<path d="M128.435 155.581H125.855V162.697H124.427V155.581H121.867V154.423H128.438L128.435 155.581Z" fill="#C8BEFF"/>
<path d="M105.792 234.816H94.3719C94.1955 234.816 94.0263 234.746 93.9014 234.622C93.7766 234.497 93.7062 234.328 93.7058 234.152C93.7058 233.975 93.776 233.806 93.9009 233.681C94.0258 233.557 94.1953 233.487 94.3719 233.487H105.792C105.969 233.487 106.138 233.557 106.263 233.681C106.388 233.806 106.458 233.975 106.458 234.152C106.458 234.328 106.387 234.497 106.262 234.622C106.138 234.746 105.968 234.816 105.792 234.816Z" fill="#AEC3FF"/>
<path d="M113.928 237.989H86.2282C86.0518 237.988 85.8828 237.918 85.7582 237.793C85.6336 237.668 85.5636 237.499 85.5636 237.323C85.5634 237.236 85.5804 237.149 85.6138 237.069C85.6471 236.988 85.696 236.914 85.7577 236.853C85.8195 236.791 85.8928 236.742 85.9735 236.708C86.0543 236.675 86.1408 236.658 86.2282 236.658H113.922C114.01 236.657 114.097 236.675 114.177 236.708C114.258 236.741 114.332 236.79 114.394 236.852C114.456 236.914 114.505 236.987 114.538 237.068C114.572 237.149 114.589 237.236 114.588 237.323C114.588 237.499 114.519 237.667 114.395 237.792C114.272 237.916 114.104 237.987 113.928 237.989Z" fill="#AEC3FF"/>
<path d="M100.082 225.122C93.8145 225.123 87.7406 222.952 82.8953 218.981C78.05 215.009 74.7331 209.482 73.5099 203.341C72.2867 197.2 73.2327 190.825 76.1868 185.303C79.141 179.781 83.9204 175.453 89.7108 173.057C95.5011 170.66 101.944 170.344 107.942 172.161C113.94 173.979 119.121 177.817 122.603 183.023C126.086 188.229 127.653 194.48 127.039 200.711C126.425 206.942 123.667 212.768 119.235 217.195C116.725 219.716 113.741 221.714 110.453 223.075C107.166 224.436 103.641 225.131 100.082 225.122ZM100.082 171.299C93.8841 171.299 87.8779 173.446 83.0869 177.374C78.2958 181.302 75.0163 186.768 73.8072 192.841C72.598 198.914 73.5341 205.217 76.4558 210.678C79.3775 216.139 84.1041 220.418 89.8302 222.788C95.5564 225.157 101.928 225.47 107.859 223.672C113.79 221.875 118.914 218.079 122.357 212.931C125.8 207.782 127.35 201.601 126.743 195.439C126.135 189.277 123.408 183.516 119.025 179.138C116.543 176.645 113.591 174.668 110.34 173.323C107.088 171.977 103.602 171.29 100.082 171.299Z" fill="#C8BEFF"/>
<path d="M121.801 198.056C121.801 199.367 121.684 200.674 121.45 201.964C120.614 206.527 118.336 210.703 114.95 213.878C111.564 217.053 107.249 219.061 102.637 219.608C98.0259 220.154 93.3604 219.21 89.3253 216.913C85.2902 214.617 82.0978 211.089 80.2163 206.848C79.7675 205.838 79.3981 204.794 79.1116 203.727C78.2078 200.369 78.1199 196.845 78.8552 193.446C78.8552 193.43 78.8628 193.413 78.8658 193.396C80.0167 188.203 83.0327 183.611 87.3435 180.489C87.7896 180.164 88.254 179.858 88.7213 179.568C92.1373 177.468 96.071 176.359 100.082 176.365C100.634 176.365 101.182 176.386 101.724 176.428C105.588 176.712 109.304 178.031 112.481 180.248C114.038 181.329 115.446 182.61 116.67 184.057C117.315 184.816 117.906 185.62 118.44 186.461C118.772 186.987 119.083 187.522 119.371 188.08C120.973 191.164 121.806 194.589 121.799 198.064L121.801 198.056Z" fill="#C8BEFF"/>
<path d="M92.7028 188.354C91.8364 189.719 93.0655 192.106 90.4647 191.457C87.8638 190.809 86.2751 190.519 86.131 191.962C85.9868 193.405 88.0808 193.405 88.0808 194.921C88.0808 196.437 87.1415 196.937 85.697 196.217C84.2524 195.497 83.8382 194.451 82.1584 195.1C80.4786 195.749 79.5045 195.317 79.1236 194.018C79.0657 193.815 78.9745 193.622 78.8535 193.449C78.8535 193.433 78.8611 193.416 78.8641 193.399C80.015 188.206 83.0311 183.614 87.3418 180.492C87.788 180.167 88.2523 179.861 88.7196 179.571C89.1441 179.587 89.5597 179.697 89.9364 179.893C90.313 180.089 90.6412 180.367 90.8971 180.705C92.4145 182.582 93.4236 181.644 93.064 183.808C92.7043 185.973 93.2794 186.263 94.507 186.19C95.7346 186.117 97.1807 186.117 97.3248 187.055C97.469 187.994 93.5693 186.978 92.7028 188.354Z" fill="#A096FB"/>
<path d="M101.695 201.338C101.695 201.338 99.7818 201.944 99.2765 200.616C98.7712 199.288 99.3478 198.993 97.6513 198.596C95.9549 198.198 95.8092 197.045 94.7258 197.189C93.6424 197.333 94.1841 197.765 92.9201 198.705C91.6561 199.645 90.4922 199.21 90.5362 200.942C90.5802 202.675 92.4512 202.945 92.829 204.08C93.2069 205.215 92.5589 205.704 93.3707 206.571C94.1826 207.438 95.7015 207.057 94.9959 208.247C94.2903 209.437 93.2084 210.357 93.7501 212.197C94.2918 214.038 93.9125 214.145 94.8335 215.444C95.7546 216.744 97.5421 217.176 97.8137 216.31C98.0853 215.444 96.5679 214.309 97.055 213.442C97.5421 212.575 98.3554 213.172 98.6801 211.873C99.0049 210.574 100.323 210.574 100.431 209.672C100.539 208.77 98.8425 207.398 99.4919 206.822C100.141 206.246 101.443 207.868 102.454 206.425C103.464 204.982 102.779 203.828 103.82 202.457C104.861 201.085 102.417 200.543 101.695 201.338Z" fill="#A096FB"/>
<path d="M121.801 198.056C121.801 199.367 121.684 200.674 121.45 201.964C120.905 204.949 119.737 207.785 118.022 210.289C117.456 210.483 116.839 210.466 116.285 210.242C113.576 209.16 115.581 206.237 116.664 204.776C117.748 203.315 114.984 203.965 112.981 202.611C110.978 201.258 113.197 197.633 111.139 198.229C109.082 198.825 106.587 199.581 105.397 197.579C104.208 195.576 106.481 195.252 105.451 193.575C104.42 191.899 106.047 190.922 108.106 190.76C110.165 190.598 109.893 189.137 112.44 188.921C114.986 188.706 114.931 191.953 117.751 191.735C120.57 191.517 120.441 192.167 120.441 192.167C120.644 192.163 120.845 192.206 121.03 192.291C121.543 194.17 121.803 196.109 121.801 198.056Z" fill="#A096FB"/>
<path d="M119.371 188.079C117.028 189.217 116.088 186.12 114.086 187.051C112.085 187.982 112.417 186.185 110.833 185.03C109.249 183.875 106.065 185.968 106.209 184.165C106.353 182.361 108.737 182.865 109.244 181.424C109.751 179.982 112.062 180.342 112.062 180.342C112.197 180.29 112.338 180.258 112.482 180.246C114.039 181.328 115.447 182.609 116.672 184.055C117.317 184.815 117.908 185.618 118.441 186.46C118.772 186.99 119.083 187.524 119.371 188.079Z" fill="#A096FB"/>
<path d="M99.6374 181.856C99.6374 181.856 100.865 180.087 98.9151 179.564C96.9653 179.041 97.0002 179.726 95.4843 179.564C93.9684 179.402 93.3706 180.575 94.5086 181.856C95.6467 183.137 96.5677 185.594 97.5965 184.281C98.6253 182.969 98.4265 181.988 99.6374 181.856Z" fill="#A096FB"/>
</svg>
