<svg width="383" height="244" viewBox="0 0 383 244" fill="none" xmlns="http://www.w3.org/2000/svg">
<path d="M382.047 203.795C380.401 225.395 369.625 239.26 367.298 242.192C367.033 242.527 366.877 242.718 366.857 242.762C359.187 242.762 316.066 242.772 262.527 242.762C230.077 242.762 193.8 242.74 159.271 242.713C83.5419 242.653 16.2271 242.527 16.1385 242.263L16.1056 242.192C16.0901 242.157 16.0795 242.121 16.0742 242.083C16.027 241.974 8.76906 230.227 4.02619 212.591C2.10274 205.447 0.59657 197.34 0.139288 188.645C-1.24113 162.118 7.23145 130.154 43.9098 103.614C74.572 81.4192 41.9878 66.7688 66.3795 42.065C94.4052 13.6764 124.989 45.0812 156.153 32.2082C161.657 29.9361 167.183 26.2785 172.713 20.6624C175.799 17.5405 179.211 14.7583 182.892 12.3636C194.211 4.95148 207.747 1.29672 221.312 0.294658C256.132 -2.27109 295.318 12.184 315.54 33.3215C319.612 37.5778 338.118 59.6004 323.531 89.8719C319.925 97.3525 323.645 104.696 330.331 112.187C340.725 123.821 358.286 135.779 366.628 149.059C372.453 158.325 376.345 167.092 378.791 175.267C379.979 179.222 380.874 183.26 381.469 187.346C382.264 192.791 382.458 198.308 382.047 203.795Z" fill="#F4F2FF" fill-opacity="0.45"/>
<path d="M206.431 31.5825C206.431 31.5825 210.718 22.4228 220.997 23.4405C220.997 23.4405 235.908 8.17433 251.809 21.405C251.809 21.405 268.711 18.1266 281.229 24.2444C289.576 28.3225 292.333 32.6002 292.333 32.6002L206.431 31.5825Z" fill="#A096FB"/>
<path d="M214.139 151.292H208.709V138.516L208.457 138.363H206.837H197.405H197.397V140.279H197.405V141.596H197.397V143.51H197.405V144.832H197.397V146.747H197.405H196.405V136.729H185.822V137.998V139.914V141.597V143.512V144.833V146.749V147.972V149.892V151.115V153.028V154.179V155.395V155.528H173.894V166.489H169.437V169.249H164.631V164.495H155.978V151.577H154.627V150.294H154.434V151.577H147.706V150.294H147.513V151.577H146.051V158.072L138.79 158.037V162.046H132.634V137.255H114.394V163.808H108.821V149.45H90.5913V242.34L215.222 241.839L214.139 151.292Z" fill="#D8D1FF"/>
<path d="M90.6097 166.364V175.07V188.022V241.707H81.4497V188.022V175.07V166.364H90.6097Z" fill="#E4DFFF"/>
<path d="M132.638 137.256H119.093V141.456H132.638V137.256Z" fill="#E4DFFF"/>
<path d="M132.638 143.723H119.093V147.923H132.638V143.723Z" fill="#E4DFFF"/>
<path d="M132.638 150.324H119.093V154.524H132.638V150.324Z" fill="#E4DFFF"/>
<path d="M132.638 157.03H119.093V161.231H132.638V157.03Z" fill="#E4DFFF"/>
<path d="M132.638 163.502H119.093V167.702H132.638V163.502Z" fill="#E4DFFF"/>
<path d="M192.594 136.729H185.82V139.281H192.594V136.729Z" fill="#E4DFFF"/>
<path d="M192.594 140.657H185.82V143.208H192.594V140.657Z" fill="#E4DFFF"/>
<path d="M192.594 144.666H185.82V147.218H192.594V144.666Z" fill="#E4DFFF"/>
<path d="M192.594 148.739H185.82V151.29H192.594V148.739Z" fill="#E4DFFF"/>
<path d="M192.594 152.668H185.82V155.22H192.594V152.668Z" fill="#E4DFFF"/>
<path d="M192.594 156.995H185.82V159.546H192.594V156.995Z" fill="#E4DFFF"/>
<path d="M192.594 160.922H185.82V163.473H192.594V160.922Z" fill="#E4DFFF"/>
<path d="M192.594 164.931H185.82V167.483H192.594V164.931Z" fill="#E4DFFF"/>
<path d="M192.594 169.004H185.82V171.555H192.594V169.004Z" fill="#E4DFFF"/>
<path d="M192.594 172.934H185.82V175.485H192.594V172.934Z" fill="#E4DFFF"/>
<path d="M204.187 138.403H197.414V140.954H204.187V138.403Z" fill="#E4DFFF"/>
<path d="M204.187 142.33H197.414V144.881H204.187V142.33Z" fill="#E4DFFF"/>
<path d="M204.187 146.34H197.414V148.891H204.187V146.34Z" fill="#E4DFFF"/>
<path d="M204.187 150.412H197.414V152.963H204.187V150.412Z" fill="#E4DFFF"/>
<path d="M204.187 154.342H197.414V156.893H204.187V154.342Z" fill="#E4DFFF"/>
<path d="M204.187 158.44H197.414V160.991H204.187V158.44Z" fill="#E4DFFF"/>
<path d="M204.187 162.367H197.414V164.918H204.187V162.367Z" fill="#E4DFFF"/>
<path d="M204.187 166.375H197.414V168.927H204.187V166.375Z" fill="#E4DFFF"/>
<path d="M204.187 170.449H197.414V173.001H204.187V170.449Z" fill="#E4DFFF"/>
<path d="M204.187 174.379H197.414V176.93H204.187V174.379Z" fill="#E4DFFF"/>
<path d="M176.446 150.412H176.11V155.618H176.446V150.412Z" fill="#BBD0FF"/>
<path d="M182.297 145.942H181.773V156.024H182.297V145.942Z" fill="#BBD0FF"/>
<path d="M115.829 135.4H115.612V137.255H115.829V135.4Z" fill="#DFEBFA"/>
<path d="M120.446 135.4H120.229V137.255H120.446V135.4Z" fill="#DFEBFA"/>
<path d="M131.029 135.4H130.812V137.255H131.029V135.4Z" fill="#DFEBFA"/>
<path d="M187.038 135.297H186.869V136.729H187.038V135.297Z" fill="#DFEBFA"/>
<path d="M194.983 135.297H194.814V136.729H194.983V135.297Z" fill="#DFEBFA"/>
<path d="M126.892 135.4H126.675V137.255H126.892V135.4Z" fill="#DFEBFA"/>
<path d="M347.104 151.153H340.102V138.377L339.83 138.225H338.087H327.941H327.932V140.141H327.941V141.458H327.932V143.372H327.941V144.693H327.932V146.613H327.941H326.866V136.594H315.484V137.864V139.771V141.455V143.369V144.69V146.613V147.836V149.749V150.972V152.885V154.037V155.253V155.385H302.653V166.345H297.859V169.106H292.691V164.351H283.389V151.434H281.934V150.151H281.731V151.434H274.496V150.151H274.287V151.434H272.715V157.93L264.906 157.894V161.904H258.284V137.117H238.662V163.67H232.672V149.312H213.054V242.203L347.104 241.703V151.153Z" fill="#D8D1FF"/>
<path d="M215.514 166.227V174.933V187.885V241.57H205.841V187.885V174.933V166.227H215.514Z" fill="#E4DFFF"/>
<path d="M258.279 137.119H245.591V141.319H258.279V137.119Z" fill="#E4DFFF"/>
<path d="M258.279 143.584H245.591V147.785H258.279V143.584Z" fill="#E4DFFF"/>
<path d="M258.279 150.187H245.591V154.388H258.279V150.187Z" fill="#E4DFFF"/>
<path d="M258.279 156.893H245.591V161.094H258.279V156.893Z" fill="#E4DFFF"/>
<path d="M258.279 163.365H245.591V167.565H258.279V163.365Z" fill="#E4DFFF"/>
<path d="M306.157 150.275H305.802V155.481H306.157V150.275Z" fill="#BBD0FF"/>
<path d="M312.333 145.805H311.781V155.887H312.333V145.805Z" fill="#BBD0FF"/>
<path d="M242.146 135.263H241.916V137.119H242.146V135.263Z" fill="#BBD0FF"/>
<path d="M247.02 135.263H246.79V137.119H247.02V135.263Z" fill="#BBD0FF"/>
<path d="M258.198 135.263H257.968V137.119H258.198V135.263Z" fill="#BBD0FF"/>
<path d="M317.34 135.16H317.163V136.593H317.34V135.16Z" fill="#DFEBFA"/>
<path d="M325.73 135.16H325.553V136.593H325.73V135.16Z" fill="#DFEBFA"/>
<path d="M253.828 135.263H253.598V137.119H253.828V135.263Z" fill="#BBD0FF"/>
<path d="M170.59 39.5107C170.59 39.5107 175.98 28.3925 188.87 29.6311C188.87 29.6311 207.583 11.1093 227.537 27.1623C227.537 27.1623 248.749 23.1854 264.459 30.6061C274.932 35.5537 278.391 40.7451 278.391 40.7451L170.59 39.5107Z" fill="#8E86D8"/>
<path d="M222.98 106.709C222.98 106.709 226.064 99.8341 233.441 100.598C233.441 100.598 244.158 89.142 255.572 99.0715C255.572 99.0715 267.711 96.6112 276.702 101.201C282.696 104.261 284.676 107.473 284.676 107.473L222.98 106.709Z" fill="#8E86D8"/>
<path d="M382.047 203.795C380.401 225.394 369.625 239.259 367.298 242.192C367.033 242.526 366.877 242.717 366.857 242.762C359.187 242.762 316.066 242.772 262.526 242.762C230.077 242.762 193.8 242.74 159.271 242.713C83.5418 242.653 16.227 242.526 16.1384 242.263L16.1055 242.192C16.0901 242.157 16.0795 242.121 16.0741 242.083C16.0269 241.973 8.769 230.227 4.02612 212.591C5.72235 202.237 11.2383 192.691 25.284 190.76C58.3984 186.198 47.3065 202.733 64.2959 200.219C81.2854 197.704 105.607 215.263 120.336 225.074C135.065 234.885 145.934 225.4 171.834 215.508C197.735 205.615 243.964 227.691 258.082 213.628C272.201 199.565 302.979 216.243 312.333 197.235C321.687 178.228 359.699 178.744 359.699 178.744L378.789 175.264C379.978 179.219 380.873 183.257 381.467 187.343C382.263 192.789 382.458 198.306 382.047 203.795Z" fill="#E4DFFF"/>
<path d="M159.376 243.06H6.04382C6.01975 243.004 6.00711 242.945 6.00666 242.884V242.642C6.00742 242.523 6.05543 242.408 6.14026 242.324C6.22509 242.239 6.33988 242.192 6.45966 242.192H16.1055C16.09 242.157 16.0794 242.121 16.074 242.083C16.0069 241.929 1.70678 218.798 0.13916 188.642C6.9984 187.584 21.0541 186.78 35.7757 194.005C56.4306 204.143 50.2016 219.52 62.3324 221.15C74.4633 222.779 94.4622 213.954 110.527 226.382C126.279 238.567 163.17 228.264 168.559 242.347C168.626 242.518 159.212 242.542 159.271 242.72C159.303 242.829 159.342 242.941 159.376 243.06Z" fill="#A096FB"/>
<path d="M382.047 203.795C380.401 225.394 369.625 239.259 367.298 242.192C367.033 242.526 366.877 242.717 366.857 242.762C359.187 242.762 316.066 242.772 262.526 242.762L262.655 242.203C262.655 242.203 276.098 229.324 292.163 231.94C308.227 234.556 318.295 238.153 325.557 233.248C332.819 228.344 341.669 220.82 353.137 226.053C362.931 230.517 368.426 205.228 382.047 203.795Z" fill="#A096FB"/>
<path d="M381.467 187.349C371.27 190.7 364.748 180.713 356.51 183.951C347.165 187.622 325.526 191.562 316.056 171.417C306.586 151.272 335.45 138.266 333.887 135.159C332.324 132.051 323.807 130.492 325.554 121.383C326.322 117.392 328.32 114.345 330.324 112.19C340.718 123.824 358.279 135.782 366.621 149.062C375.431 163.073 379.825 175.935 381.467 187.349Z" fill="#A096FB"/>
<path d="M275.08 222.681C275.08 222.681 280.605 231.616 286.742 234.102C286.742 234.102 290.839 233.002 291.211 234.474C291.582 235.947 289.245 237.79 286.428 237.341C283.611 236.892 271.445 230.898 271.043 230.071C270.642 229.245 275.08 222.681 275.08 222.681Z" fill="#344AB7"/>
<path d="M249.163 226.63C249.163 226.63 239.765 230.249 230.753 224.92C230.753 224.92 229.519 223.695 228.549 223.845C227.579 223.995 222.88 226.099 221.673 224.273C220.465 222.447 223.26 221.194 224.622 221.041C225.984 220.889 228.988 218.895 229.648 218.982C230.308 219.068 234.85 219.083 236.291 217.033C237.733 214.983 242.35 211.873 247.035 215.673C251.719 219.473 249.163 226.63 249.163 226.63Z" fill="#344AB7"/>
<path d="M280.132 207.466C280.132 207.466 270.442 214.571 264.583 211.202C258.724 207.832 266.012 204.03 269.41 204.102C272.808 204.173 282.184 203.524 280.132 207.466Z" fill="#2A4570"/>
<path d="M283.436 217.465C283.436 217.465 279.577 218.702 277.784 221.683C276.293 224.162 275.229 229.531 271.589 231.341C267.95 233.152 257.002 227.337 252.473 227.778C247.945 228.218 234.527 224.062 235.658 219.5C236.969 214.226 240.894 208.54 251.763 211.803C260.687 214.479 279.697 210.426 279.697 210.426L283.436 217.465Z" fill="#4656CC"/>
<path d="M279.096 204.2C279.096 204.2 283.081 204.823 284.59 207.158C286.099 209.493 291.45 208.71 291.722 210.899C291.995 213.089 290.665 217.277 285.149 217.549C279.633 217.821 275.74 217.274 274.487 214.464C273.234 211.655 275.819 203.107 279.096 204.2Z" fill="#4656CC"/>
<path d="M277.351 240.986C277.244 242.055 275.902 242.319 274.472 242.25C273.423 242.197 272.386 242.003 271.389 241.671C269.969 241.147 261.529 228.17 261.529 228.17L268.711 222.041C268.711 222.041 273.164 237.177 274.046 238.223C274.284 238.508 274.653 238.697 275.059 238.859C276.149 239.304 277.491 239.56 277.351 240.986Z" fill="#4656CC"/>
<path d="M250.776 223.968C250.776 223.968 244.631 231.929 234.151 232.04C234.151 232.04 232.46 231.632 231.709 232.262C230.957 232.892 228.036 237.124 226.05 236.182C224.063 235.24 225.804 232.73 226.889 231.894C227.973 231.059 229.504 227.799 230.114 227.531C230.724 227.263 234.611 224.923 234.777 222.425C234.942 219.928 237.269 214.878 243.252 215.699C249.235 216.52 250.776 223.968 250.776 223.968Z" fill="#4656CC"/>
<path d="M247.305 210.908C247.305 210.908 236.183 210.14 233.098 206.947C229.311 203.024 232.209 199.492 232.209 199.492C231.178 199.624 230.197 200.016 229.36 200.631C228.523 201.245 227.856 202.063 227.423 203.006C225.612 206.873 228.912 216.547 238.828 215.469L247.305 210.908Z" fill="#4656CC"/>
<path d="M278.611 220.567C278.611 220.567 273.173 218.377 270.126 211.686C270.126 211.686 267.697 211.636 267.311 212.301C267.311 212.301 270.705 220.169 277.267 222.678C277.267 222.678 279.142 222.524 278.611 220.567Z" fill="#F77D48"/>
<path d="M279.259 208.237C279.259 208.237 274.634 219.314 267.88 219.44C261.125 219.567 265.39 212.564 268.34 210.875C271.289 209.186 278.976 203.804 279.259 208.237Z" fill="#192E4F"/>
<path d="M32.1019 242.354H46.7321C47.5152 241.691 46.1891 240.185 44.8029 240.083C44.2013 240.038 43.4397 240.165 42.5708 240.347C42.3693 237.68 41.219 225.691 36.8862 226.173C32.0148 226.712 36.8862 231.447 38.2638 234.259C39.2841 236.337 40.3602 239.319 40.8517 240.726C40.4559 240.812 40.0472 240.896 39.6285 240.973C38.9826 238.994 36.5804 232.342 33.5252 232.73C29.9384 233.184 31.3817 235.851 33.9225 237.434C35.7873 238.598 38.078 240.253 39.1669 241.053C38.2233 241.216 37.2666 241.293 36.3089 241.281C33.7982 241.222 32.5764 241.958 32.1019 242.354Z" fill="#505CD1"/>
<path d="M344.643 242.437H332.148C331.479 241.867 332.612 240.584 333.795 240.497C334.31 240.458 334.96 240.565 335.703 240.722C335.875 238.441 336.856 228.203 340.562 228.615C344.722 229.075 340.562 233.125 339.384 235.522C338.514 237.297 337.594 239.844 337.175 241.046C337.512 241.118 337.862 241.188 338.22 241.255C338.771 239.566 340.823 233.884 343.433 234.215C346.497 234.603 345.265 236.88 343.093 238.233C341.499 239.231 339.543 240.641 338.614 241.323C339.421 241.464 340.239 241.529 341.058 241.519C343.194 241.469 344.239 242.097 344.643 242.437Z" fill="#505CD1"/>
<path d="M210.677 139.218C210.677 139.218 213.555 136.521 214.702 136.73C215.85 136.938 215.768 139.979 214.702 141.319C213.636 142.659 211.097 141.932 211.097 141.932L210.677 139.218Z" fill="#FFB27D"/>
<path d="M189.846 51.7222C190.095 51.6549 190.308 51.492 190.438 51.2687C190.568 51.0455 190.604 50.7802 190.539 50.5305L188.479 42.7962C188.412 42.5472 188.249 42.3347 188.026 42.2052C187.802 42.0756 187.536 42.0396 187.286 42.1049C187.037 42.1718 186.824 42.3345 186.694 42.5575C186.564 42.7804 186.528 43.0456 186.593 43.2951L188.651 51.0308C188.718 51.28 188.882 51.4925 189.105 51.622C189.329 51.7515 189.595 51.7875 189.846 51.7222Z" fill="#2B478B"/>
<path d="M194.064 65.3875C194.064 65.3875 238.363 46.8942 276.506 70.9466C276.506 70.9466 250.373 76.3817 239.398 88.5234C239.398 88.5234 216.84 67.8421 194.064 65.3875Z" fill="#CE5A19"/>
<path d="M239.398 88.5234C239.398 88.5234 206.817 93.5124 203.567 101.669L194.064 65.3876C194.064 65.3876 225.159 68.8998 239.398 88.5234Z" fill="#D85E21"/>
<path d="M193.925 65.4246C193.925 65.4246 146.262 71.2688 125.094 111.026C125.094 111.026 150.491 102.822 166.057 107.938C166.057 107.938 175.367 78.8192 193.925 65.4246Z" fill="#CE5A19"/>
<path d="M166.057 107.938C166.057 107.938 196.838 96.1537 203.707 101.632L193.926 65.4261C193.926 65.4261 168.668 83.8538 166.057 107.938Z" fill="#D85E21"/>
<path d="M214.425 145.161L214.968 145.018C215.113 144.979 215.238 144.884 215.313 144.754C215.389 144.624 215.41 144.47 215.372 144.324L194.49 65.8608C194.451 65.7162 194.356 65.5929 194.226 65.5177C194.096 65.4425 193.941 65.4213 193.796 65.4588L193.251 65.6014C193.106 65.6408 192.983 65.7357 192.907 65.8653C192.832 65.995 192.811 66.149 192.848 66.2941L213.723 144.76C213.743 144.833 213.777 144.9 213.823 144.96C213.869 145.019 213.926 145.068 213.991 145.106C214.056 145.143 214.128 145.167 214.202 145.176C214.277 145.186 214.352 145.181 214.425 145.161Z" fill="#2B478B"/>
<path d="M276.504 70.9467C276.361 70.8626 257.186 60.0623 238.955 65.1025C238.884 64.9913 237.375 62.6437 234.318 59.6418C228.516 53.9414 221.309 49.8679 213.424 47.8322C207.523 46.307 200.549 45.7197 192.448 46.8786C205.509 44.2402 217.076 44.1703 227.124 45.6057H227.132C234.72 46.6776 242.133 48.7463 249.178 51.7578C267.197 59.4835 276.388 70.7814 276.504 70.9467Z" fill="#EF7E29"/>
<path d="M184.59 49.0808C178.159 51.6167 173.11 54.8153 169.156 58.279C163.558 63.1331 159.337 69.3694 156.916 76.3632C154.772 82.5681 154.795 87.2035 154.796 87.3731C136.459 92.0143 125.18 110.874 125.093 111.021C125.094 111.011 125.094 111.001 125.093 110.991C125.112 110.837 125.213 110.117 125.462 108.937C125.461 108.933 125.461 108.928 125.462 108.924C126.193 105.467 128.177 98.0908 133.013 89.4557C136.692 82.8907 141.276 76.8733 146.632 71.5796C155.372 62.9287 167.576 54.6856 184.59 49.0808Z" fill="#EF7E29"/>
<path d="M238.955 65.1011C238.955 65.1011 194.133 56.4745 154.798 87.3788C154.798 87.3788 154.101 80.2831 157.786 71.8418C161.626 63.0499 170.227 52.8012 189.337 47.6098C189.337 47.6098 211.963 40.9104 227.693 52.536C227.693 52.536 228.349 52.9922 229.351 53.7833C232.067 55.9299 237.326 60.5184 238.955 65.1011Z" fill="#F99746"/>
<path d="M218.376 148.02C217.163 148.016 215.985 147.617 215.021 146.884C214.056 146.15 213.359 145.122 213.034 143.956L210.163 133.599C210.111 133.422 210.094 133.236 210.114 133.053C210.134 132.869 210.19 132.691 210.28 132.529C210.37 132.368 210.491 132.225 210.636 132.111C210.782 131.997 210.949 131.912 211.127 131.863C211.306 131.814 211.492 131.8 211.676 131.824C211.86 131.847 212.037 131.907 212.197 132C212.358 132.093 212.498 132.216 212.61 132.364C212.721 132.511 212.803 132.679 212.849 132.858L215.721 143.215C215.827 143.561 216.001 143.883 216.232 144.163C216.463 144.442 216.747 144.673 217.068 144.843C217.389 145.013 217.74 145.118 218.101 145.152C218.463 145.187 218.828 145.15 219.175 145.044C219.522 144.938 219.845 144.764 220.125 144.534C220.405 144.303 220.637 144.02 220.807 143.7C220.977 143.38 221.082 143.03 221.117 142.669C221.152 142.309 221.115 141.945 221.008 141.599L219.944 138.449C219.826 138.099 219.851 137.717 220.016 137.387C220.18 137.057 220.469 136.805 220.819 136.687C221.169 136.57 221.552 136.595 221.883 136.759C222.214 136.923 222.466 137.211 222.584 137.561L223.649 140.709C223.889 141.419 223.982 142.171 223.923 142.918C223.863 143.665 223.652 144.392 223.303 145.056C222.953 145.719 222.473 146.305 221.89 146.777C221.306 147.25 220.633 147.599 219.911 147.805C219.412 147.948 218.895 148.02 218.376 148.02Z" fill="#F77D48"/>
<path d="M134.842 188.75C134.842 188.75 141.851 183.541 142.6 181.817C143.349 180.092 146.565 173.779 147.397 173.135C147.397 173.135 149.139 172.918 149.389 174.085C149.639 175.253 147.73 182.176 146.4 184.267C145.069 186.358 138.696 193.447 136.604 194.476L134.842 188.75Z" fill="#ED985F"/>
<path d="M114.418 213.256C114.418 213.256 115.077 215.821 114.418 216.903C113.76 217.985 112.261 218.756 111.961 218.517C111.661 218.277 111.841 216.648 112.201 215.908C112.561 215.168 111.721 214.272 112.441 213.256C113.161 212.239 114.418 213.256 114.418 213.256Z" fill="#ED985F"/>
<path d="M135.132 179.615C135.132 179.615 136.665 179.64 136.561 181.02C136.561 181.02 137.114 181.195 137.038 182.173C137.028 182.44 136.929 182.696 136.756 182.9C136.584 183.105 136.348 183.246 136.087 183.302C136.087 183.302 137.19 183.152 137.541 183.955C137.541 183.955 139.302 183.628 139.655 184.833C140.008 186.037 137.391 188.503 137.391 188.503L133.074 189.34L130.971 187.835L130.803 183.319L135.132 179.615Z" fill="#233862"/>
<path d="M133.854 193.795L125.452 188.89C125.499 188.873 125.669 188.627 126.296 186.868C126.522 186.248 126.683 185.606 126.777 184.953C126.777 184.901 126.789 184.851 126.795 184.81C126.849 184.418 126.856 184.022 126.818 183.628L128.659 184.271L132.062 185.464C132.024 186.3 132.144 186.89 132.328 187.29C132.773 188.27 133.602 188.275 133.624 188.275L133.854 193.795Z" fill="#FFB27D"/>
<path d="M132.328 187.286C131.282 187.384 130.228 187.222 129.259 186.815C128.291 186.409 127.438 185.77 126.777 184.956C126.715 184.88 126.685 184.837 126.685 184.837L126.795 184.806L128.653 184.267L132.057 185.46C132.024 186.295 132.144 186.883 132.328 187.286Z" fill="#ED985F"/>
<path d="M132.492 186.143C132.492 186.143 125.183 186.92 125.033 182.137C124.883 177.355 123.803 175.169 128.861 174.742C133.92 174.316 135.113 176.079 135.41 177.697C136.342 182.75 134.552 185.928 132.492 186.143Z" fill="#FFB27D"/>
<path d="M129.256 177.079C126.669 176.446 129.256 179.272 127.984 180.215C126.649 181.192 125.017 180.246 125.216 181.1C125.415 181.954 125.7 182.26 125.849 182.793C125.998 183.326 125.849 184.383 125.247 184.169C124.646 183.955 119.051 177.777 123.001 172.965C126.951 168.153 138.729 171.112 135.02 176.151C134.364 177.03 131.095 177.529 129.256 177.079Z" fill="#233862"/>
<path d="M126.684 180.917C126.684 180.917 128.005 181.234 128.398 182.244C128.398 182.244 129.493 182.118 129.525 183.603C129.525 183.603 129.659 184.3 129.172 184.743C129.172 184.743 130.315 186.37 129.05 187.295C127.785 188.22 126.684 180.917 126.684 180.917Z" fill="#233862"/>
<path d="M147.341 242.176C147.396 240.277 145.957 239.838 145.013 239.838C144.553 239.838 143.824 239.378 143.199 238.907L141.227 230.081C138.141 229.947 132.843 232.422 132.843 232.422L137.655 241.372C137.675 241.849 137.714 242.176 137.714 242.176H147.341Z" fill="#2A4E96"/>
<path d="M119.463 228.358L113.903 238.906C113.65 239.346 113.518 239.726 113.645 239.921C114.09 240.592 117.415 242.174 117.415 242.174H122.237C122.237 240.892 120.938 240.229 120.236 239.961C119.882 239.818 119.739 239.234 119.684 238.686L125.998 231.819C125.998 231.819 119.681 228.409 119.463 228.358Z" fill="#2A4E96"/>
<path d="M139.72 204.057C141.498 212.778 144.165 226.632 144.648 233.633C144.648 233.633 142.483 234.223 138.873 234.728C135.474 235.2 132.047 235.436 128.616 235.434C121.302 235.434 116.693 233.618 113.261 230.73L114.796 226.294C116.852 220.348 120.254 210.487 120.353 210.117C120.429 209.823 120.686 208.795 121.05 207.333C117.502 209.715 115.59 215.907 115.59 215.907C112.825 215.838 109.101 213.759 109.101 213.759C109.101 213.759 111.013 206.033 115.59 198.507C119.85 191.504 124.719 190.031 125.375 189.86C125.375 189.84 125.385 189.822 125.389 189.802C124.937 189.541 124.514 189.234 124.126 188.885C124.126 188.885 116.738 180.091 115.669 176.32C115.587 176.031 115.568 175.728 115.616 175.431C116.158 171.929 125.129 168.492 129.942 170.522C129.942 170.522 127.382 175.006 127.295 180.205C127.244 183.427 128.141 186.924 131.185 189.798C133.186 188.967 132.924 188.027 132.924 188.027C132.924 188.027 137.64 185.93 139.783 183.627C142.24 180.99 145.372 176.322 145.372 176.322C145.372 176.322 149.445 179.516 149.411 180.051C149.066 185.447 146.124 189.571 143.316 192.309C141.782 193.813 140.649 195.675 140.021 197.727C139.393 199.779 139.29 201.955 139.72 204.057Z" fill="#FFB255"/>
<path d="M179.948 91.2032C179.948 91.2032 172.661 90.1085 169.129 94.6884C165.598 99.2682 169.008 105.614 163.128 106.492C159.667 107.008 157.722 110.797 160.941 115.472C162.92 118.346 153.162 121.576 161.02 127.891C170.084 135.173 173.595 119.265 178.822 121.083C184.05 122.9 191.456 117.662 188.825 114.433C184.5 109.119 190.42 111.56 190.079 104.223C189.737 96.8864 184.929 91.0322 179.948 91.2032Z" fill="#163560"/>
<path d="M153.23 230.515C153.23 230.515 150.529 232.972 151.057 234.718C151.584 236.464 154.021 237.629 154.343 239.764C154.666 241.899 155.99 243.063 157.174 243.063H162.837C162.837 243.063 163.711 241.56 161.603 241.107C159.495 240.654 158.701 238.146 158.833 235.819C158.966 233.491 158.635 230.386 158.635 230.386L154.158 229.351L153.23 230.515Z" fill="#F77D48"/>
<path d="M176.082 231.756C176.082 231.756 175.11 242.162 176.295 242.749L191.465 242.718C191.465 242.718 191.465 240.971 189.036 240.579C186.606 240.187 182.319 238.769 181.593 235.599C180.867 232.429 176.082 231.756 176.082 231.756Z" fill="#F77D48"/>
<path d="M188.467 146.114C188.467 146.114 192.841 159.692 193.121 164.316C193.401 168.94 181.26 232.083 180.92 234.212C180.591 236.221 175.8 234.212 175.8 234.212C175.8 234.212 172.396 190.671 174.502 175.117C176.609 159.563 176.635 146.114 176.635 146.114H188.467Z" fill="#233862"/>
<path d="M169.938 145.71C169.938 145.71 163.268 154.637 162.65 160.676C162.033 166.716 164.459 186.203 163.135 192.087C161.81 197.971 154.156 211.004 154.156 229.356C154.156 229.356 158.046 231.571 158.633 230.391C161.92 223.779 175.017 202.025 175.554 197.606C175.934 194.47 179.245 173.747 186.465 161.586C188.198 158.667 185.401 147.055 185.401 147.055L169.938 145.71Z" fill="#2A4E96"/>
<path d="M125.436 188.884L125.452 188.893C125.438 188.9 125.436 188.884 125.436 188.884Z" fill="#FFB27D"/>
<path d="M118.86 169.912C118.757 169.691 118.686 169.547 118.686 169.547C118.765 169.657 118.824 169.781 118.86 169.912Z" fill="#D35C2B"/>
<path d="M151.876 169.944C151.76 170.547 151.507 171.196 151.205 171.531C150.812 171.979 150.189 172.872 149.796 173.454C149.542 173.812 149.381 174.08 149.381 174.08L147.393 173.142C147.393 173.142 147.346 169.877 148.663 169.183C148.71 169.162 148.733 169.139 148.779 169.139C149.273 168.879 149.792 168.67 150.328 168.513C150.951 168.357 151.437 168.334 151.714 168.491C151.968 168.624 152.014 169.277 151.876 169.944Z" fill="#ED985F"/>
<path d="M189.204 154.727C184.67 140.27 189.633 137.127 189.167 129.893C188.701 122.659 183.079 114.882 183.079 114.882L182.496 114.827C182.413 114.819 182.334 114.788 182.267 114.737C182.201 114.687 182.149 114.619 182.119 114.542C181.898 113.99 181.833 112.71 181.833 111.373C181.833 109.377 181.992 107.268 181.992 107.268L175.257 105.938L174.857 105.859C174.874 110.535 173.639 113.604 172.746 114.319C171.905 114.415 170.381 115.623 168.174 116.546C167.34 116.892 166.074 117.476 165.851 117.963C164.002 122.018 160.723 131.326 159.421 138.631C158.698 142.701 158.146 145.859 157.859 146.529C157.056 148.397 154.602 158.672 152.507 163.743L154.408 166.072C154.408 166.072 164.012 149.93 164.815 146.129C165.077 144.891 165.72 142.414 166.469 139.639C166.581 139.219 166.696 138.791 166.815 138.356C168.138 141.934 168.815 143.59 168.777 145.137C168.724 147.337 167.228 149.314 164.102 156.308C162.379 160.18 193.833 169.49 189.204 154.727Z" fill="#FFB27D"/>
<path d="M181.995 108.338C181.885 109.405 181.834 110.476 181.843 111.548C178.075 111.443 176.083 108.91 175.27 107.008L181.995 108.338Z" fill="#E8945B"/>
<path d="M174.566 106.274C174.566 106.274 172.591 103.162 172.116 100.501C171.778 98.6011 172.748 91.5581 179.843 92.573C181.273 92.7703 182.64 93.2852 183.844 94.0797C185.385 95.1174 187.607 97.3581 185.122 103.505L184.476 105.58L174.566 106.274Z" fill="#163560"/>
<path d="M183.252 110.224C183.252 110.224 174.337 110.367 174.331 104.832C174.325 99.2968 173.171 95.5807 178.862 95.2529C184.554 94.9251 185.663 97.0375 186.115 98.8863C186.566 100.735 185.572 110.043 183.252 110.224Z" fill="#FFB27D"/>
<g opacity="0.5">
<path opacity="0.5" d="M139.72 204.057C141.498 212.778 144.165 226.632 144.648 233.633C144.648 233.633 142.483 234.223 138.873 234.728C138.873 234.728 133.196 215.565 134.549 208.552C135.902 201.539 139.993 198.832 137.873 196.249C135.752 193.666 146.118 189.57 143.317 192.313C141.783 193.816 140.651 195.678 140.023 197.73C139.394 199.781 139.29 201.956 139.72 204.057Z" fill="#ED9443"/>
</g>
<path d="M185.845 95.8059C184.468 94.1424 183.428 94.503 182.844 95.0033C178.064 92.3592 174.828 96.2862 174.828 96.2862C174.232 100.26 171.359 102.538 171.359 102.538C171.359 102.538 172.983 103.536 176.73 102.578C177.874 102.284 178.894 101.475 179.761 100.493C178.775 102.1 177.573 103.566 176.189 104.85C180.663 102.788 182.461 96.5827 182.639 95.9227C183.184 96.4102 184.257 97.4693 184.584 98.507C185.029 99.9182 185.229 102.822 186.076 102.723C186.077 102.722 187.917 98.3046 185.845 95.8059Z" fill="#163560"/>
<path d="M152.732 163.266C152.732 163.266 151.917 165.179 151.07 165.714C150.222 166.248 149.693 167.36 149.916 168.384C150.139 169.407 149.688 171.185 150.758 171.185C151.828 171.185 154.331 166.469 154.638 165.58C154.945 164.69 155.217 164.512 155.217 164.512L152.732 163.266Z" fill="#FFB27D"/>
<path d="M193.721 179.238C192.772 186.256 159.804 180.806 158.778 177.572C157.889 174.772 158.843 171.457 159.921 166.377C160.291 164.633 160.677 162.682 161.007 160.473C160.015 160.745 156.2 162.384 152.539 160.33C154.049 152.82 160.94 125.426 164.455 118.188C166.148 114.7 172.743 114.326 172.743 114.326C172.743 114.326 174.592 116.397 175.518 116.989C179.167 119.318 181.4 118.992 182.313 117.643C182.584 117.229 182.744 116.753 182.78 116.261C182.816 115.768 182.725 115.274 182.518 114.825C182.705 114.833 182.891 114.851 183.076 114.879C184.403 115.058 185.339 115.193 186.013 115.307C187.336 115.538 187.666 115.699 187.995 115.956C189.158 117.142 190.669 120.089 190.79 125.332C190.825 127.619 190.65 129.905 190.266 132.16C190.442 139.529 194.764 171.521 193.721 179.238Z" fill="#4656CC"/>
<path d="M180.692 106.954C180.692 106.954 180.86 107.635 182.565 107.51C182.565 107.51 183.994 107.404 183.943 106.655C183.943 106.653 182.548 106.132 180.692 106.954Z" fill="white"/>
<path d="M154.245 165.171C154.245 165.171 154.734 167.288 154.378 167.953C154.022 168.619 154.262 169.483 153.546 169.236C152.83 168.989 154.245 165.171 154.245 165.171Z" fill="#FFB27D"/>
<path d="M181.823 236.319L186.093 212.018C186.093 212.018 183.612 210.212 172.815 212.018L175.816 241.372L181.823 236.319Z" fill="#F77D48"/>
<path d="M158.858 234.655L169.361 212.784C169.361 212.784 165.638 207.367 156.686 207C156.686 207 154.152 218.235 154.152 223.792C154.152 229.35 151.688 232.336 151.688 232.336L158.858 234.655Z" fill="#F77D48"/>
<path d="M180.903 132.523C180.903 132.384 180.945 132.247 181.022 132.131C181.1 132.015 181.21 131.925 181.34 131.871C181.469 131.818 181.611 131.804 181.748 131.831C181.886 131.858 182.012 131.925 182.111 132.024C182.21 132.123 182.277 132.249 182.304 132.385C182.331 132.522 182.317 132.664 182.264 132.793C182.21 132.922 182.12 133.032 182.003 133.11C181.887 133.187 181.75 133.229 181.61 133.229C181.423 133.227 181.245 133.152 181.112 133.02C180.98 132.888 180.905 132.71 180.903 132.523Z" fill="#163560"/>
<path d="M181.287 146.338C181.289 146.199 181.331 146.064 181.409 145.949C181.488 145.834 181.598 145.745 181.727 145.692C181.856 145.64 181.998 145.626 182.134 145.654C182.271 145.681 182.396 145.748 182.495 145.846C182.593 145.945 182.66 146.07 182.688 146.206C182.716 146.342 182.702 146.483 182.649 146.612C182.597 146.741 182.507 146.851 182.392 146.929C182.277 147.007 182.141 147.05 182.002 147.051C181.908 147.052 181.814 147.034 181.727 146.999C181.64 146.963 181.561 146.911 181.494 146.844C181.428 146.778 181.375 146.699 181.34 146.612C181.304 146.525 181.286 146.432 181.287 146.338Z" fill="#163560"/>
<path d="M181.326 162.197C181.324 162.056 181.365 161.917 181.443 161.798C181.521 161.68 181.632 161.587 181.763 161.532C181.894 161.477 182.038 161.462 182.177 161.489C182.317 161.516 182.445 161.584 182.545 161.684C182.646 161.784 182.714 161.912 182.741 162.051C182.769 162.19 182.754 162.334 182.699 162.465C182.644 162.595 182.552 162.706 182.433 162.784C182.315 162.862 182.175 162.903 182.033 162.902C181.846 162.902 181.666 162.827 181.534 162.695C181.401 162.563 181.326 162.384 181.326 162.197Z" fill="#163560"/>
<g opacity="0.5">
<path opacity="0.5" d="M120.503 216.634C120.636 219.713 114.796 226.292 114.796 226.292C116.852 220.347 120.255 210.486 120.353 210.115C120.429 209.822 120.686 208.794 121.051 207.332C121.051 207.332 122.814 205.5 123.551 206.637C124.289 207.775 120.369 213.556 120.503 216.634Z" fill="#ED9443"/>
</g>
<path d="M133.854 197.928C133.854 197.791 133.895 197.656 133.971 197.542C134.048 197.428 134.156 197.338 134.283 197.286C134.411 197.233 134.551 197.219 134.686 197.246C134.821 197.273 134.945 197.339 135.043 197.436C135.14 197.533 135.206 197.657 135.233 197.792C135.26 197.926 135.246 198.066 135.193 198.193C135.14 198.32 135.051 198.428 134.936 198.504C134.822 198.581 134.687 198.621 134.549 198.621C134.365 198.621 134.188 198.547 134.058 198.418C133.928 198.288 133.855 198.112 133.854 197.928Z" fill="#2A4E96"/>
<path d="M133.854 208.549C133.854 208.412 133.895 208.277 133.972 208.163C134.048 208.049 134.157 207.96 134.284 207.907C134.412 207.855 134.552 207.841 134.687 207.868C134.822 207.895 134.946 207.961 135.043 208.059C135.14 208.156 135.206 208.28 135.233 208.414C135.26 208.549 135.246 208.689 135.193 208.816C135.14 208.942 135.051 209.051 134.936 209.127C134.821 209.203 134.687 209.243 134.549 209.243C134.365 209.243 134.188 209.169 134.058 209.039C133.928 208.909 133.854 208.733 133.854 208.549Z" fill="#2A4E96"/>
<path d="M135.665 222.907C136.049 222.907 136.359 222.597 136.359 222.214C136.359 221.832 136.049 221.522 135.665 221.522C135.281 221.522 134.97 221.832 134.97 222.214C134.97 222.597 135.281 222.907 135.665 222.907Z" fill="#2A4E96"/>
<g opacity="0.5">
<path opacity="0.5" d="M128.674 190.165C127.571 190.13 126.472 190.008 125.387 189.8C124.936 189.54 124.512 189.232 124.124 188.884C124.124 188.884 116.736 180.089 115.667 176.319C115.585 176.03 115.567 175.726 115.614 175.429C115.693 175.548 118.655 180.039 127.294 180.202C127.261 182.3 127.705 185.728 128.866 187.868C129.44 188.921 129.873 190.191 128.674 190.165Z" fill="#ED9443"/>
</g>
<path d="M210.879 147.785C210.879 147.785 208.916 148.599 205.175 149.456C203.746 149.782 202.068 150.116 200.139 150.412C196.822 150.922 193.824 148.657 191.585 146.136C191.58 146.13 191.575 146.124 191.571 146.117C190.011 144.314 188.668 142.334 187.569 140.219V115.702C187.569 115.702 191.513 117.159 193.89 121.001C196.266 124.844 198.78 138.106 199.927 138.41C201.075 138.714 210.359 137.127 210.359 137.127C210.359 137.127 213.309 140.289 210.879 147.785Z" fill="#4656CC"/>
<path d="M214.702 136.729C214.702 136.729 213.8 136.336 213.309 137.399C212.817 138.463 213.063 139.13 213.829 139.424C214.595 139.717 215.058 139.307 215.058 139.307L214.702 136.729Z" fill="#FFB27D"/>
<path d="M205.175 149.456C203.746 149.782 202.068 150.116 200.139 150.412C196.822 150.922 193.824 148.657 191.585 146.136C191.58 146.13 191.575 146.124 191.571 146.117C191.571 146.117 190.427 133.508 191.571 132.526C192.714 131.544 193.535 144.338 196.402 146.117C199.269 147.896 204.85 146.438 205.175 149.456Z" fill="#344AB7"/>
<path d="M167.41 155.618C165.115 159.338 165.47 164.799 159.925 166.377C160.295 164.633 160.681 162.682 161.011 160.473C161.011 160.473 166.524 144.549 166.673 141.456C166.822 138.363 168.476 139.061 168.639 140.657C168.802 142.252 169.704 151.896 167.41 155.618Z" fill="#344AB7"/>
<path d="M180.227 118.694C180.227 118.694 174.777 114.593 174.427 110.449C174.427 110.449 170.01 110.513 169.965 114.758C169.965 114.758 175.175 120.072 180.227 118.694Z" fill="#5A71E5"/>
<path d="M180.227 118.694C180.227 118.694 181.886 114.044 181.839 111.946C181.839 111.946 184.475 113.078 184.59 115.082C184.59 115.086 184.574 118.903 180.227 118.694Z" fill="#5A71E5"/>
<path d="M179.52 118.701C179.521 118.562 179.563 118.426 179.642 118.312C179.72 118.197 179.831 118.107 179.96 118.055C180.088 118.002 180.23 117.989 180.367 118.016C180.503 118.044 180.629 118.111 180.727 118.209C180.826 118.307 180.893 118.432 180.92 118.569C180.948 118.705 180.934 118.846 180.882 118.975C180.829 119.103 180.74 119.214 180.624 119.292C180.509 119.37 180.373 119.412 180.234 119.414C180.14 119.415 180.046 119.397 179.959 119.362C179.872 119.326 179.793 119.274 179.726 119.207C179.66 119.141 179.607 119.062 179.572 118.975C179.536 118.888 179.518 118.795 179.52 118.701Z" fill="#163560"/>
<path d="M270.173 137.077C270.723 135.776 274.746 132.827 274.746 132.827C274.746 132.827 275.445 137.763 274.889 139.064C274.761 139.378 274.572 139.663 274.332 139.904C274.093 140.144 273.808 140.334 273.495 140.464C273.181 140.594 272.845 140.66 272.505 140.659C272.166 140.658 271.83 140.59 271.517 140.458C271.204 140.327 270.92 140.134 270.682 139.893C270.444 139.651 270.257 139.365 270.131 139.05C270.005 138.736 269.943 138.399 269.948 138.061C269.953 137.722 270.026 137.388 270.162 137.077H270.173Z" fill="white"/>
<path d="M302.737 101.596C303.288 100.293 307.317 97.3453 307.317 97.3453C307.317 97.3453 308.016 102.28 307.46 103.583C307.16 104.152 306.657 104.587 306.051 104.804C305.444 105.021 304.778 105.002 304.184 104.752C303.59 104.503 303.112 104.04 302.844 103.455C302.577 102.871 302.538 102.207 302.737 101.596Z" fill="white"/>
<path d="M252.946 118.345C253.496 117.043 257.519 114.094 257.519 114.094C257.519 114.094 258.218 119.03 257.662 120.332C257.534 120.645 257.345 120.931 257.106 121.171C256.866 121.411 256.582 121.602 256.268 121.731C255.954 121.861 255.618 121.927 255.278 121.926C254.939 121.925 254.603 121.857 254.29 121.725C253.977 121.594 253.693 121.402 253.456 121.16C253.218 120.918 253.03 120.632 252.904 120.317C252.778 120.003 252.716 119.667 252.721 119.328C252.727 118.989 252.799 118.655 252.935 118.345H252.946Z" fill="white"/>
<path d="M118.077 53.1204C118.627 51.8176 122.649 48.8699 122.649 48.8699C122.649 48.8699 123.348 53.8061 122.792 55.1075C122.679 55.4413 122.498 55.7483 122.26 56.0093C122.023 56.2702 121.734 56.4796 121.411 56.6242C121.089 56.7688 120.74 56.8456 120.387 56.8499C120.034 56.8541 119.683 56.7857 119.358 56.6488C119.032 56.512 118.738 56.3096 118.494 56.0544C118.25 55.7993 118.062 55.4967 117.94 55.1656C117.819 54.8346 117.767 54.4821 117.789 54.1302C117.81 53.7783 117.903 53.4346 118.064 53.1204H118.077Z" fill="white"/>
<path d="M226.681 130.8C227.231 129.497 231.254 126.549 231.254 126.549C231.254 126.549 231.953 131.484 231.397 132.787C231.102 133.365 230.599 133.81 229.988 134.033C229.378 134.255 228.705 134.239 228.106 133.987C227.507 133.736 227.026 133.267 226.759 132.676C226.492 132.084 226.46 131.414 226.668 130.8H226.681Z" fill="white"/>
<path d="M292.956 119.756C293.506 118.453 297.528 115.505 297.528 115.505C297.528 115.505 298.227 120.441 297.671 121.743C297.558 122.077 297.377 122.384 297.139 122.645C296.902 122.905 296.613 123.115 296.29 123.259C295.968 123.404 295.619 123.481 295.266 123.485C294.913 123.489 294.562 123.421 294.236 123.284C293.911 123.147 293.617 122.945 293.373 122.69C293.129 122.434 292.941 122.132 292.819 121.801C292.698 121.47 292.646 121.117 292.667 120.765C292.689 120.414 292.782 120.07 292.943 119.756H292.956Z" fill="white"/>
<path d="M223.876 192.175C224.426 190.874 228.449 187.925 228.449 187.925C228.449 187.925 229.148 192.861 228.592 194.162C228.479 194.496 228.297 194.803 228.06 195.064C227.822 195.325 227.533 195.534 227.211 195.679C226.889 195.824 226.54 195.9 226.187 195.905C225.833 195.909 225.483 195.841 225.157 195.704C224.831 195.567 224.537 195.364 224.294 195.109C224.05 194.854 223.861 194.552 223.74 194.22C223.619 193.889 223.567 193.537 223.588 193.185C223.609 192.833 223.703 192.489 223.863 192.175H223.876Z" fill="white"/>
<path d="M221.973 173.461C222.523 172.158 226.546 169.21 226.546 169.21C226.546 169.21 227.244 174.145 226.688 175.448C226.394 176.026 225.89 176.471 225.28 176.694C224.669 176.917 223.997 176.9 223.398 176.649C222.798 176.397 222.317 175.928 222.05 175.337C221.784 174.745 221.751 174.075 221.96 173.461H221.973Z" fill="white"/>
<path d="M237.046 187.501C237.596 186.2 241.619 183.251 241.619 183.251C241.619 183.251 242.317 188.187 241.762 189.488C241.634 189.802 241.445 190.087 241.205 190.327C240.966 190.568 240.681 190.758 240.367 190.888C240.054 191.018 239.717 191.084 239.378 191.083C239.038 191.082 238.702 191.013 238.39 190.882C238.077 190.75 237.793 190.558 237.555 190.317C237.317 190.075 237.13 189.788 237.004 189.474C236.878 189.16 236.816 188.823 236.821 188.485C236.826 188.146 236.899 187.812 237.034 187.501H237.046Z" fill="white"/>
<path d="M267.602 179.097C268.152 177.794 272.175 174.846 272.175 174.846C272.175 174.846 272.875 179.783 272.318 181.084C272.19 181.398 272.001 181.683 271.762 181.923C271.522 182.164 271.238 182.354 270.924 182.484C270.61 182.613 270.274 182.68 269.934 182.679C269.595 182.678 269.259 182.609 268.946 182.478C268.633 182.346 268.349 182.154 268.112 181.912C267.874 181.671 267.686 181.384 267.56 181.07C267.434 180.755 267.372 180.419 267.377 180.08C267.383 179.742 267.455 179.408 267.591 179.097H267.602Z" fill="white"/>
<path d="M278.523 189.991C279.073 188.689 283.096 185.741 283.096 185.741C283.096 185.741 283.795 190.676 283.239 191.978C282.944 192.556 282.44 193.002 281.83 193.224C281.219 193.447 280.547 193.431 279.948 193.179C279.349 192.927 278.867 192.459 278.6 191.867C278.334 191.276 278.301 190.606 278.51 189.991H278.523Z" fill="white"/>
<path d="M173.892 58.9504C174.443 57.6476 178.472 54.6999 178.472 54.6999C178.472 54.6999 179.171 59.6346 178.615 60.9375C178.315 61.5063 177.812 61.942 177.206 62.1586C176.599 62.3752 175.933 62.3567 175.339 62.107C174.746 61.8572 174.267 61.3943 174 60.8098C173.732 60.2252 173.693 59.5617 173.892 58.9504Z" fill="white"/>
<path d="M226.447 57.0233C226.997 55.7204 231.02 52.7713 231.02 52.7713C231.02 52.7713 231.719 57.7075 231.163 59.0103C230.868 59.5882 230.364 60.0333 229.754 60.256C229.143 60.4788 228.471 60.4627 227.872 60.2109C227.273 59.9591 226.791 59.4904 226.525 58.899C226.258 58.3077 226.225 57.6375 226.434 57.0233H226.447Z" fill="white"/>
<path d="M196.515 31.0294C197.065 29.7266 201.088 26.7788 201.088 26.7788C201.088 26.7788 201.787 31.7136 201.231 33.0164C200.961 33.6334 200.458 34.1195 199.832 34.3693C199.205 34.6192 198.505 34.6127 197.883 34.3514C197.262 34.09 196.768 33.5948 196.51 32.973C196.252 32.3512 196.249 31.6529 196.504 31.0294H196.515Z" fill="white"/>
<path d="M199.902 46.0432C200.452 44.7404 204.482 41.7927 204.482 41.7927C204.482 41.7927 205.181 46.7274 204.625 48.0303C204.33 48.6082 203.827 49.0533 203.216 49.276C202.605 49.4988 201.933 49.4826 201.334 49.2309C200.735 48.9791 200.253 48.5104 199.987 47.919C199.72 47.3276 199.688 46.6574 199.896 46.0432H199.902Z" fill="white"/>
<path d="M282.85 83.4589C283.4 82.1561 287.43 79.2083 287.43 79.2083C287.43 79.2083 288.129 84.1431 287.573 85.446C287.278 86.0239 286.775 86.469 286.164 86.6917C285.553 86.9145 284.881 86.8983 284.282 86.6466C283.683 86.3948 283.201 85.9261 282.935 85.3347C282.668 84.7433 282.636 84.0731 282.844 83.4589H282.85Z" fill="white"/>
<path d="M301.205 53.5752C301.756 52.2738 305.778 49.3246 305.778 49.3246C305.778 49.3246 306.477 54.2608 305.921 55.5622C305.808 55.8961 305.627 56.2031 305.389 56.464C305.151 56.725 304.862 56.9343 304.54 57.0789C304.218 57.2236 303.869 57.3004 303.516 57.3046C303.162 57.3089 302.812 57.2404 302.486 57.1036C302.161 56.9667 301.867 56.7644 301.623 56.5092C301.379 56.254 301.191 55.9514 301.069 55.6204C300.948 55.2893 300.896 54.9368 300.917 54.585C300.938 54.2331 301.032 53.8893 301.192 53.5752H301.205Z" fill="white"/>
<path d="M304.269 70.0928C304.819 68.79 308.849 65.8422 308.849 65.8422C308.849 65.8422 309.548 70.7784 308.992 72.0798C308.878 72.4137 308.697 72.7207 308.46 72.9817C308.222 73.2426 307.933 73.4519 307.611 73.5966C307.289 73.7412 306.94 73.818 306.587 73.8222C306.233 73.8265 305.883 73.758 305.557 73.6212C305.231 73.4843 304.937 73.282 304.694 73.0268C304.45 72.7716 304.261 72.4691 304.14 72.138C304.019 71.8069 303.967 71.4545 303.988 71.1026C304.009 70.7507 304.103 70.407 304.263 70.0928H304.269Z" fill="white"/>
<path d="M142.09 123.664C142.64 122.361 146.663 119.412 146.663 119.412C146.663 119.412 147.362 124.348 146.806 125.651C146.511 126.229 146.007 126.674 145.397 126.897C144.786 127.12 144.114 127.104 143.515 126.852C142.916 126.6 142.434 126.131 142.168 125.54C141.901 124.949 141.869 124.278 142.077 123.664H142.09Z" fill="white"/>
<path d="M143.09 83.8766C143.64 82.5752 147.663 79.626 147.663 79.626C147.663 79.626 148.362 84.5622 147.806 85.8636C147.678 86.1773 147.489 86.4626 147.249 86.7029C147.01 86.9431 146.725 87.1336 146.412 87.2632C146.098 87.3929 145.762 87.4591 145.422 87.4581C145.083 87.4571 144.747 87.3888 144.434 87.2573C144.121 87.1258 143.837 86.9336 143.599 86.6919C143.361 86.4502 143.174 86.1638 143.048 85.8494C142.922 85.5349 142.86 85.1986 142.865 84.8599C142.87 84.5213 142.943 84.187 143.079 83.8766H143.09Z" fill="white"/>
<path d="M209.469 84.2258C210.019 82.9244 214.042 79.9753 214.042 79.9753C214.042 79.9753 214.74 84.9115 214.185 86.2143C213.89 86.7932 213.387 87.2392 212.775 87.4625C212.164 87.6858 211.491 87.6697 210.892 87.4175C210.292 87.1653 209.81 86.6958 209.544 86.1035C209.278 85.5113 209.246 84.8403 209.456 84.2258H209.469Z" fill="white"/>
<path d="M94.7924 158.587C95.3425 157.284 99.3652 154.336 99.3652 154.336C99.3652 154.336 100.064 159.271 99.5081 160.574C99.2029 161.133 98.7002 161.559 98.0978 161.769C97.4953 161.979 96.8362 161.958 96.2483 161.71C95.6604 161.462 95.1859 161.006 94.9168 160.428C94.6478 159.851 94.6034 159.195 94.7924 158.587Z" fill="white"/>
<path d="M89.651 126.353C90.2012 125.05 94.2239 122.102 94.2239 122.102C94.2239 122.102 94.9226 127.037 94.3668 128.34C94.0718 128.917 93.5685 129.363 92.9579 129.585C92.3474 129.808 91.6749 129.792 91.0758 129.54C90.4767 129.288 89.9954 128.82 89.7286 128.228C89.4619 127.637 89.4296 126.967 89.6382 126.353H89.651Z" fill="white"/>
<path d="M99.3996 138.52C99.9497 137.218 103.972 134.269 103.972 134.269C103.972 134.269 104.671 139.205 104.115 140.508C103.999 140.839 103.816 141.142 103.577 141.4C103.339 141.657 103.05 141.863 102.729 142.004C102.407 142.146 102.06 142.221 101.709 142.224C101.358 142.226 101.01 142.157 100.686 142.021C100.363 141.884 100.071 141.683 99.8279 141.43C99.5853 141.176 99.3974 140.876 99.2756 140.547C99.1539 140.218 99.1009 139.868 99.12 139.518C99.1391 139.169 99.2299 138.826 99.3867 138.513L99.3996 138.52Z" fill="white"/>
<path d="M89.6509 187.694C90.201 186.392 94.2237 183.443 94.2237 183.443C94.2237 183.443 94.9225 188.379 94.3666 189.681C94.2532 190.015 94.0721 190.322 93.8345 190.583C93.5969 190.844 93.3079 191.053 92.9856 191.197C92.6633 191.342 92.3146 191.419 91.9613 191.423C91.6079 191.427 91.2574 191.359 90.9317 191.222C90.6061 191.085 90.3122 190.883 90.0683 190.628C89.8245 190.373 89.636 190.07 89.5147 189.739C89.3933 189.408 89.3416 189.055 89.3628 188.704C89.384 188.352 89.4777 188.008 89.638 187.694H89.6509Z" fill="white"/>
<path d="M76.5099 156.372C77.06 155.069 81.0898 152.121 81.0898 152.121C81.0898 152.121 81.7886 157.056 81.2327 158.359C80.9378 158.937 80.4345 159.382 79.8239 159.605C79.2134 159.827 78.5409 159.811 77.9418 159.559C77.3427 159.308 76.8613 158.839 76.5946 158.248C76.3279 157.656 76.2956 156.986 76.5041 156.372H76.5099Z" fill="white"/>
<path d="M99.3997 168.405C99.9498 167.104 103.972 164.154 103.972 164.154C103.972 164.154 104.671 169.091 104.115 170.392C104.002 170.726 103.821 171.033 103.583 171.294C103.346 171.555 103.057 171.764 102.734 171.909C102.412 172.053 102.063 172.13 101.71 172.134C101.357 172.139 101.006 172.07 100.681 171.933C100.355 171.796 100.061 171.594 99.8171 171.339C99.5733 171.084 99.3848 170.781 99.2634 170.45C99.142 170.119 99.0904 169.767 99.1116 169.415C99.1328 169.063 99.2265 168.719 99.3868 168.405H99.3997Z" fill="white"/>
</svg>
