<svg width="384" height="241" viewBox="0 0 384 241" fill="none" xmlns="http://www.w3.org/2000/svg">
<path d="M369 241C369 241 408.043 160.327 359.073 101.31C310.102 42.2935 267.98 74.991 246.617 73.3604C225.255 71.7298 234.716 20.0895 171.5 4.5C108.284 -11.0895 -22.9759 15.7722 30 128.5C55.5701 182.916 -12.2538 152.414 1.99998 241H369Z" fill="#F4F2FF" fill-opacity="0.45"/>
<path d="M72 241L307 241V50L72 50L72 241Z" fill="#8E86D8"/>
<path d="M307 49.9108L352 35V241H307V49.9108Z" fill="#E4DFFF"/>
<path d="M352 241H356V35H352V241Z" fill="#C8BEFF"/>
<path d="M72 49.9108L26 35V241H72V49.9108Z" fill="#E4DFFF"/>
<path d="M26 35H23V241H26V35Z" fill="#C8BEFF"/>
<path d="M186 241H189L189 50H186L186 241Z" fill="#E4DFFF"/>
<path d="M307 241V237L71 237V241H307Z" fill="#E4DFFF"/>
<path d="M124.68 171.244V143.753H71V139.743H124.68V112.253H71V108.242H124.68V80.1868H71V76.1783H124.68V54.0085H71.7617V50H124.68H128.371H307V54.0085H128.371V171.244H186.289H307V175.252H186.289H128.371V206.951H307V210.959H128.371V241H124.68V210.959V206.951V175.252H71V171.244H124.68Z" fill="#E4DFFF"/>
<path d="M113 214.01V235.611C113 236.245 112.759 236.852 112.329 237.3C111.9 237.748 111.318 238 110.711 238H79.1254C78.8464 238 78.5701 237.943 78.3122 237.832C78.0544 237.721 77.82 237.558 77.6226 237.352C77.4253 237.146 77.2687 236.902 77.1618 236.633C77.055 236.364 77 236.076 77 235.785V214L113 214.01Z" fill="#4656CC"/>
<path d="M78.8625 209H111.451C111.862 209 112.256 209.179 112.546 209.497C112.837 209.815 113 210.246 113 210.695V216H77V211.034C77.0015 210.494 77.1983 209.977 77.5474 209.596C77.8964 209.215 78.3693 209.001 78.8625 209Z" fill="#344AB7"/>
<path d="M88.0885 221H102.911C103.2 221.001 103.477 221.16 103.681 221.441C103.885 221.722 103.999 222.103 104 222.5C103.999 222.897 103.885 223.278 103.681 223.559C103.477 223.84 103.2 223.999 102.911 224H88.0885C87.7998 223.999 87.5233 223.84 87.3193 223.559C87.1153 223.278 87.0005 222.897 87 222.5C87.0005 222.103 87.1153 221.722 87.3193 221.441C87.5233 221.16 87.7998 221.001 88.0885 221Z" fill="#344AB7"/>
<path d="M241 151V169.009C241 169.537 240.813 170.043 240.479 170.416C240.145 170.789 239.693 170.999 239.221 171H214.652C214.214 171 213.794 170.805 213.484 170.459C213.174 170.113 213 169.643 213 169.153V151H241Z" fill="#EF7E29"/>
<path d="M214.449 148H239.796C239.954 148 240.111 148.025 240.257 148.074C240.403 148.123 240.536 148.194 240.648 148.284C240.76 148.374 240.848 148.481 240.909 148.598C240.969 148.716 241 148.842 241 148.969V152H213V149.164C213 148.856 213.153 148.56 213.425 148.341C213.697 148.123 214.065 148 214.449 148Z" fill="#CE5A19"/>
<path d="M220.837 156H232.163C232.385 156 232.598 156.105 232.755 156.293C232.912 156.48 233 156.735 233 157C233 157.265 232.912 157.52 232.755 157.707C232.598 157.895 232.385 158 232.163 158H220.837C220.615 158 220.402 157.895 220.245 157.707C220.088 157.52 220 157.265 220 157C220 156.735 220.088 156.48 220.245 156.293C220.402 156.105 220.615 156 220.837 156Z" fill="#CE5A19"/>
<path d="M285 185V204.812C285 205.392 284.785 205.949 284.403 206.359C284.021 206.77 283.504 207 282.964 207H254.883C254.384 207 253.905 206.787 253.552 206.406C253.198 206.026 253 205.511 253 204.974V185.006L285 185Z" fill="#4656CC"/>
<path d="M254.662 181H283.624C283.805 181 283.984 181.038 284.151 181.111C284.318 181.184 284.47 181.291 284.598 181.426C284.725 181.561 284.827 181.721 284.896 181.898C284.965 182.074 285 182.263 285 182.454V187H253V182.748C253 182.518 253.043 182.29 253.126 182.077C253.21 181.865 253.332 181.672 253.487 181.509C253.641 181.347 253.825 181.218 254.026 181.131C254.228 181.043 254.444 180.999 254.662 181Z" fill="#344AB7"/>
<path d="M262.858 191.001H275.062C275.183 190.995 275.304 191.016 275.417 191.064C275.531 191.111 275.635 191.184 275.723 191.277C275.81 191.371 275.88 191.483 275.928 191.607C275.975 191.731 276 191.865 276 192C276 192.135 275.975 192.269 275.928 192.393C275.88 192.517 275.81 192.629 275.723 192.723C275.635 192.816 275.531 192.889 275.417 192.936C275.304 192.984 275.183 193.005 275.062 192.999H262.858C262.627 192.987 262.409 192.877 262.249 192.691C262.089 192.505 262 192.257 262 192C262 191.743 262.089 191.495 262.249 191.309C262.409 191.123 262.627 191.013 262.858 191.001Z" fill="#344AB7"/>
<path d="M192.65 159H221.623C222.377 159 223 159.304 223 159.679V169.995C223 170.549 222.09 171 220.966 171H192.883C191.84 171 191 170.581 191 170.067V159.816C190.994 159.365 191.736 159 192.65 159Z" fill="#CE5A19"/>
<path d="M232.598 227H260.664C261.394 227 262 227.278 262 227.623V237.079C262 237.588 261.117 238 260.028 238H232.825C231.814 238 231 237.618 231 237.145V227.75C230.995 227.336 231.713 227 232.598 227Z" fill="#D3A17F"/>
<path d="M196.652 217H225.623C226.377 217 227 217.532 227 218.189V236.242C227 237.214 226.088 238 224.964 238H196.883C195.84 238 195 237.269 195 236.368V218.429C194.994 217.639 195.736 217 196.652 217Z" fill="#4656CC"/>
<path d="M131.379 217H173.021C174.114 217 175 217.532 175 218.189V236.242C175 237.214 173.69 238 172.074 238H131.715C130.216 238 129 237.269 129 236.368V218.429C129 217.639 130.073 217 131.379 217Z" fill="#4656CC"/>
<path d="M240 185V204.812C240 205.392 239.785 205.949 239.403 206.359C239.021 206.77 238.503 207 237.964 207H209.884C209.384 207 208.905 206.787 208.552 206.406C208.198 206.026 208 205.511 208 204.974V185.006L240 185Z" fill="#EF7E29"/>
<path d="M209.657 181H238.624C238.989 181.001 239.339 181.154 239.597 181.427C239.855 181.699 240 182.069 240 182.454V187H208V182.748C208 182.284 208.175 181.84 208.485 181.512C208.796 181.184 209.218 181 209.657 181Z" fill="#CE5A19"/>
<path d="M217.933 191.001H230.067C230.187 190.995 230.308 191.016 230.421 191.064C230.534 191.111 230.637 191.184 230.724 191.277C230.811 191.371 230.881 191.483 230.928 191.607C230.976 191.731 231 191.865 231 192C231 192.135 230.976 192.269 230.928 192.393C230.881 192.517 230.811 192.629 230.724 192.723C230.637 192.816 230.534 192.889 230.421 192.936C230.308 192.984 230.187 193.005 230.067 192.999H217.933C217.813 193.005 217.692 192.984 217.579 192.936C217.466 192.889 217.363 192.816 217.276 192.723C217.189 192.629 217.119 192.517 217.072 192.393C217.024 192.269 217 192.135 217 192C217 191.865 217.024 191.731 217.072 191.607C217.119 191.483 217.189 191.371 217.276 191.277C217.363 191.184 217.466 191.111 217.579 191.064C217.692 191.016 217.813 190.995 217.933 191.001Z" fill="#CE5A19"/>
<path d="M234.5 224.5C234.5 224.5 237.809 223.219 239.363 222.972C240.917 222.725 241.83 215.378 241.996 214.455C242.161 213.532 244.5 212 244.5 212L242.857 223.181L240.294 226H235.646L234.5 224.5Z" fill="#2A2E40"/>
<path d="M247.205 217.263C246.923 218.926 246.766 221.344 246.684 223.36C246.665 223.803 246.651 224.223 246.639 224.614C246.616 225.383 246.602 226.023 246.594 226.456C246.594 226.74 246.594 226.93 246.594 227H245.715V226.456L245.695 224.705L245.682 223.573L245.639 219.83C245.574 219.913 245.513 219.985 245.458 220.048C244.983 220.595 244.417 222.411 243.872 224.062C243.8 224.286 243.728 224.507 243.655 224.721C243.465 225.312 243.244 225.891 242.991 226.456C242.911 226.638 242.808 226.807 242.686 226.962C242.662 226.98 242.636 226.993 242.607 227H233.504C233.279 226.962 233.138 226.915 233.113 226.865C232.476 225.721 234.5 224.5 234.5 224.5C234.5 224.5 237.877 225.089 241.01 224.282C242.298 223.948 244.466 212.352 244.534 212C244.534 212 247.626 213.931 247.969 214.819C248.114 215.219 247.736 216.226 247.205 217.263Z" fill="#3E4563"/>
<path d="M241.5 225C241.5 225 244.809 223.219 246.361 222.972C247.914 222.725 248.83 215.378 248.996 214.455C249.161 213.532 251.5 213 251.5 213L249.857 223.181L247.294 226H242.646L241.5 225Z" fill="#2A2E40"/>
<path d="M254.22 217.909C253.672 220.916 253.605 226.556 253.599 227H252.72L252.636 220.305C252.573 220.383 252.513 220.45 252.458 220.509C251.606 221.422 250.463 226.135 249.687 226.964C249.664 226.981 249.637 226.993 249.609 227H240.505C240.278 226.964 240.139 226.921 240.114 226.874C240.043 226.76 240.004 226.631 240 226.498C239.988 225.573 241.744 224.753 241.744 224.753L241.837 224.767C242.032 224.791 242.53 224.847 243.221 224.878C243.9 224.908 244.581 224.903 245.261 224.862C245.568 224.844 245.891 224.817 246.218 224.778C246.82 224.713 247.418 224.609 248.006 224.468C249.294 224.156 251.461 213.329 251.53 213C251.53 213 254.619 214.803 254.962 215.632C255.124 216 254.748 216.94 254.22 217.909Z" fill="#3E4563"/>
<path d="M101.389 75.8934C101.389 75.8934 102.344 74.9232 101.866 74.043C101.389 73.1628 100.625 73 99.1456 73H76.1931C76.1931 73 75 73.4733 75 74.4456C75 75.4179 75.4776 75.6535 75.8586 75.8934C76.2395 76.1333 101.389 75.8934 101.389 75.8934Z" fill="#344AB7"/>
<path d="M99.1562 73.9005C99.1562 73.9005 101.392 73.9988 100.939 72.0431C100.707 71.0427 99.6966 71 98.2133 71H75.1963C75.1963 71 74 71.4745 74 72.4449C74 73.4153 74.4789 73.6483 74.8609 73.8898C75.2429 74.1313 99.1562 73.9005 99.1562 73.9005Z" fill="#4656CC"/>
<path d="M100.156 70.9005C100.156 70.9005 102.392 70.9988 101.939 69.0431C101.707 68.0427 100.695 68 99.2114 68H76.1963C76.1963 68 75 68.4745 75 69.4449C75 70.4153 75.4789 70.6483 75.8609 70.8898C76.2429 71.1313 100.156 70.9005 100.156 70.9005Z" fill="#4656CC"/>
<path d="M121.361 107.964C121.361 107.964 122.349 106.906 121.868 106.03C121.387 105.154 120.619 105 119.13 105H79.2006C79.2006 105 78 105.468 78 106.428C78 107.388 78.4806 107.621 78.864 107.858C79.2474 108.095 121.361 107.964 121.361 107.964Z" fill="#4656CC"/>
<path d="M120.159 104.9C120.159 104.9 122.392 104.999 121.94 103.043C121.707 102.043 120.696 102 119.215 102H83.1948C83.1948 102 82 102.475 82 103.445C82 104.415 82.4783 104.648 82.8598 104.89C83.2413 105.131 120.159 104.9 120.159 104.9Z" fill="#344AB7"/>
<path d="M120.155 102C120.155 102 122.392 102 121.94 100.696C121.708 100.029 120.701 100 119.224 100H85.1907C85.1907 100 84 100.316 84 100.964C84 101.611 84.5564 101.84 84.9273 102C85.569 101.999 120.155 102 120.155 102Z" fill="#4656CC"/>
<path d="M118.165 99.9005C118.165 99.9005 120.39 99.9988 119.94 98.0431C119.708 97.0427 118.701 97 117.225 97H83.1906C83.1906 97 82 97.4745 82 98.4449C82 99.4153 82.4748 99.6483 82.8568 99.8898C83.2389 100.131 118.165 99.9005 118.165 99.9005Z" fill="#344AB7"/>
<path d="M114.156 96.9014C114.156 96.9014 116.392 96.9998 115.939 95.0434C115.707 94.0428 114.695 94 113.211 94H90.1963C90.1963 94 89 94.4747 89 95.4454C89 96.4161 89.4789 96.6513 89.8609 96.8907C90.2429 97.1302 114.156 96.9014 114.156 96.9014Z" fill="#4656CC"/>
<path d="M121.479 139.893C121.479 139.893 122.293 138.925 121.887 138.045C121.481 137.165 120.829 137 119.568 137H100.016C100.016 137 99 137.475 99 138.448C99 139.42 99.406 139.654 99.7315 139.893C100.057 140.133 121.479 139.893 121.479 139.893Z" fill="#4656CC"/>
<path d="M120.429 136.901C120.429 136.901 122.335 137 121.948 135.043C121.749 134.043 120.888 134 119.624 134H100.019C100.019 134 99 134.475 99 135.445C99 136.416 99.4071 136.651 99.7335 136.891C100.06 137.13 120.429 136.901 120.429 136.901Z" fill="#2A4570"/>
<path d="M120.429 133.901C120.429 133.901 122.335 134 121.948 132.043C121.749 131.043 120.888 131 119.624 131H100.019C100.019 131 99 131.475 99 132.445C99 133.416 99.4071 133.651 99.7335 133.891C100.06 134.13 120.429 133.901 120.429 133.901Z" fill="#474F75"/>
<path d="M122.479 124.893C122.479 124.893 123.293 123.924 122.887 123.044C122.481 122.165 121.829 122 120.568 122H101.016C101.016 122 100 122.475 100 123.447C100 124.418 100.406 124.654 100.732 124.893C101.057 125.133 122.479 124.893 122.479 124.893Z" fill="#4656CC"/>
<path d="M121.429 122.903C121.429 122.903 123.335 123.001 122.948 121.044C122.749 120.043 121.888 120 120.624 120H101.019C101.019 120 100 120.475 100 121.446C100 122.417 100.407 122.65 100.733 122.89C101.06 123.13 121.429 122.903 121.429 122.903Z" fill="#2A4570"/>
<path d="M121.429 119.901C121.429 119.901 123.335 119.999 122.948 118.043C122.749 117.043 121.888 117 120.624 117H101.019C101.019 117 100 117.475 100 118.445C100 119.415 100.407 119.648 100.733 119.89C101.06 120.131 121.429 119.901 121.429 119.901Z" fill="#474F75"/>
<path d="M119.43 130.901C119.43 130.901 121.336 131 120.948 129.043C120.76 128.043 119.888 128 118.625 128H99.0186C99.0186 128 98 128.475 98 129.445C98 130.416 98.409 130.651 98.7335 130.891C99.058 131.13 119.43 130.901 119.43 130.901Z" fill="#474F75"/>
<path d="M120.429 116.934C120.429 116.934 122.335 117 121.948 115.696C121.749 115.029 120.888 115 119.624 115H100.019C100.019 115 99 115.316 99 115.964C99 116.611 99.4071 116.768 99.7335 116.927C100.06 117.087 120.429 116.934 120.429 116.934Z" fill="#474F75"/>
<path d="M120.429 127.903C120.429 127.903 122.335 127.999 121.948 126.043C121.749 125.043 120.888 125 119.624 125H100.019C100.019 125 99 125.475 99 126.445C99 127.416 99.4071 127.651 99.7335 127.89C100.06 128.13 120.429 127.903 120.429 127.903Z" fill="#4656CC"/>
<path d="M96.5026 139.891C96.5026 139.891 97.2798 138.921 96.8912 138.051C96.5026 137.181 95.879 137 94.6706 137H75.9734C75.9734 137 75 137.476 75 138.445C75 139.415 75.3905 139.651 75.7013 139.893C76.0122 140.135 96.5026 139.891 96.5026 139.891Z" fill="#ED9443"/>
<path d="M95.4977 136.939C95.4977 136.939 97.3199 137.004 96.9506 135.7C96.7651 135.033 95.9356 135 94.724 135H75.976C75.976 135 75 135.315 75 135.963C75 136.61 75.3915 136.766 75.7032 136.925C76.015 137.085 95.4977 136.939 95.4977 136.939Z" fill="#ED9443"/>
<path d="M95.4977 134.937C95.4977 134.937 97.3199 135.003 96.9506 133.7C96.7651 133.031 95.9356 133 94.724 133H75.976C75.976 133 75 133.317 75 133.964C75 134.611 75.3915 134.767 75.7032 134.926C76.015 135.086 95.4977 134.937 95.4977 134.937Z" fill="#FFB27D"/>
<path d="M93.4971 132.909C93.4971 132.909 95.3213 133.006 94.9502 131.05C94.7646 130.05 93.9369 130 92.7232 130H73.9743C73.9743 130 73 130.473 73 131.444C73 132.415 73.3897 132.649 73.7015 132.888C74.0132 133.127 93.4971 132.909 93.4971 132.909Z" fill="#ED9443"/>
<path d="M95.4977 129.939C95.4977 129.939 97.3199 130.004 96.9506 128.7C96.7651 128.033 95.9356 128 94.724 128H75.976C75.976 128 75 128.315 75 128.963C75 129.61 75.3915 129.766 75.7032 129.925C76.015 130.085 95.4977 129.939 95.4977 129.939Z" fill="#EF7E29"/>
<path d="M95.4977 127.938C95.4977 127.938 97.3199 128.003 96.9506 126.7C96.7651 126.033 95.9356 126 94.724 126H75.976C75.976 126 75 126.317 75 126.964C75 127.611 75.3915 127.767 75.7032 127.926C76.015 128.085 95.4977 127.938 95.4977 127.938Z" fill="#ED9443"/>
<path d="M93.4971 125.904C93.4971 125.904 95.3213 126.001 94.9502 124.049C94.7646 123.047 93.9369 123 92.7232 123H73.9743C73.9743 123 73 123.475 73 124.443C73 125.411 73.3897 125.647 73.7015 125.888C74.0132 126.13 93.4971 125.904 93.4971 125.904Z" fill="#EF7E29"/>
<path d="M95.4977 122.939C95.4977 122.939 97.3199 123.004 96.9506 121.7C96.7651 121.033 95.9356 121 94.724 121H75.976C75.976 121 75 121.315 75 121.963C75 122.61 75.3915 122.766 75.7032 122.925C76.015 123.085 95.4977 122.939 95.4977 122.939Z" fill="#FFB27D"/>
<path d="M122.57 75.9643C122.57 75.9643 123.241 75.642 122.906 75.3478C122.571 75.0535 122.034 75 120.992 75H104.839C104.839 75 104 75.158 104 75.4828C104 75.8076 104.337 75.8841 104.604 75.9643C104.871 76.0446 122.57 75.9643 122.57 75.9643Z" fill="#3E4563"/>
<path d="M121.702 74.9343C121.702 74.9343 123.277 75.0005 122.957 73.6974C122.793 73.028 122.082 73 121.038 73H104.842C104.842 73 104 73.3156 104 73.9646C104 74.6136 104.338 74.7664 104.605 74.9267C104.873 75.087 121.702 74.9343 121.702 74.9343Z" fill="#3E4563"/>
<path d="M121.702 72.9372C121.702 72.9372 123.277 73.0009 122.957 71.6959C122.793 71.028 122.082 71 121.038 71H104.842C104.842 71 104 71.3161 104 71.9635C104 72.6109 104.338 72.769 104.605 72.927C104.873 73.0851 121.702 72.9372 121.702 72.9372Z" fill="#3E4563"/>
<path d="M120.702 70.9672C120.702 70.9672 122.277 70.999 121.957 70.3474C121.793 70.014 121.081 70 120.038 70H103.842C103.842 70 103 70.1578 103 70.481C103 70.8043 103.336 70.8832 103.605 70.9634C103.875 71.0435 120.702 70.9672 120.702 70.9672Z" fill="#3E4563"/>
<path d="M121.702 69.9343C121.702 69.9343 123.277 70.0005 122.957 68.6948C122.793 68.028 122.082 68 121.038 68H104.842C104.842 68 104 68.3156 104 68.9621C104 69.6086 104.338 69.7664 104.605 69.9267C104.873 70.087 121.702 69.9343 121.702 69.9343Z" fill="#474F75"/>
<path d="M121.702 67.9672C121.702 67.9672 123.277 68.0003 122.957 67.3474C122.793 67.014 122.082 67 121.038 67H104.842C104.842 67 104 67.1578 104 67.4823C104 67.8068 104.338 67.8832 104.605 67.9633C104.873 68.0435 121.702 67.9672 121.702 67.9672Z" fill="#3E4563"/>
<path d="M120.702 66.9343C120.702 66.9343 122.277 67.0005 121.957 65.6948C121.793 65.028 121.081 65 120.038 65H103.842C103.842 65 103 65.3156 103 65.9646C103 66.6136 103.336 66.7664 103.605 66.9267C103.875 67.087 120.702 66.9343 120.702 66.9343Z" fill="#474F75"/>
<path d="M121.702 64.9343C121.702 64.9343 123.277 65.0005 122.957 63.6974C122.793 63.028 122.082 63 121.038 63H104.842C104.842 63 104 63.3181 104 63.9646C104 64.6111 104.338 64.7664 104.605 64.9267C104.873 65.087 121.702 64.9343 121.702 64.9343Z" fill="#3E4563"/>
<path d="M342.499 145C342.897 144.999 343.278 144.852 343.559 144.592C343.84 144.332 343.999 143.979 344 143.611V133.387C343.999 133.019 343.84 132.666 343.559 132.407C343.277 132.147 342.896 132.001 342.499 132C342.102 132.001 341.721 132.148 341.44 132.407C341.16 132.667 341.001 133.019 341 133.387V143.611C341.001 143.979 341.159 144.331 341.44 144.591C341.721 144.851 342.101 144.998 342.499 145Z" fill="#C8BEFF"/>
<path d="M30.4977 133C30.8949 133.001 31.2758 133.146 31.5569 133.404C31.838 133.663 31.9965 134.013 31.9977 134.378V144.543C32.009 144.73 31.9787 144.918 31.9085 145.094C31.8383 145.271 31.7298 145.432 31.5897 145.568C31.4495 145.705 31.2805 145.813 31.0932 145.887C30.9058 145.962 30.704 146 30.5 146C30.296 146 30.0942 145.962 29.9068 145.887C29.7195 145.813 29.5505 145.705 29.4104 145.568C29.2702 145.432 29.1617 145.271 29.0915 145.094C29.0214 144.918 28.991 144.73 29.0023 144.543V134.378C29.0035 134.014 29.1614 133.664 29.4415 133.406C29.7216 133.148 30.1013 133.002 30.4977 133Z" fill="#C8BEFF"/>
<path d="M98.0237 167.193L99.2938 156.41H102.575C102.725 155.496 102.964 154.6 103.289 153.736C104.255 151.232 105.799 149.941 107.766 150.002C109.696 150.062 111.325 151.282 112.452 153.528C112.902 154.443 113.244 155.411 113.47 156.41H118L112.647 171H101.319C100.85 171.001 100.386 170.899 99.9579 170.702C99.53 170.505 99.1477 170.217 98.8362 169.857C98.5248 169.498 98.2913 169.074 98.1513 168.615C98.0112 168.155 97.9677 167.671 98.0237 167.193ZM112.651 156.41C112.279 154.897 110.991 150.915 107.741 150.814C104.785 150.719 103.728 154.494 103.382 156.41H112.651Z" fill="#2A2E40"/>
<path d="M118 156C118 156 117.871 159.818 112.268 159.995C106.665 160.171 101 156 101 156H118Z" fill="#2A2E40"/>
<path d="M104.117 156.41C104.263 155.496 104.496 154.6 104.813 153.736C105.754 151.232 107.26 149.941 109.178 150.002C111.06 150.062 112.648 151.282 113.745 153.528C114.185 154.443 114.519 155.411 114.739 156.41H117.818L120.846 166.492C121.003 167.011 121.04 167.561 120.957 168.098C120.873 168.636 120.67 169.144 120.364 169.584C120.059 170.023 119.659 170.38 119.198 170.626C118.736 170.872 118.226 171 117.709 171H107.486C106.54 171 105.623 170.662 104.884 170.042C104.145 169.421 103.628 168.555 103.418 167.585L101 156.41H104.117ZM113.943 156.41C113.58 154.897 112.322 150.915 109.155 150.814C106.274 150.719 105.242 154.494 104.905 156.41H113.943Z" fill="#3E4563"/>
<path d="M79.0228 167.193L80.2293 156.41H83.3467C83.4907 155.497 83.718 154.601 84.0252 153.736C84.942 151.232 86.409 149.941 88.2794 150.002C90.1131 150.062 91.659 151.282 92.7299 153.528C93.1578 154.443 93.4829 155.411 93.6981 156.41H98L92.9151 171H82.1511C81.7056 171.001 81.2651 170.899 80.8586 170.702C80.4522 170.505 80.0891 170.217 79.7933 169.857C79.4976 169.498 79.276 169.074 79.1432 168.615C79.0103 168.155 78.9693 167.671 79.0228 167.193ZM92.9169 156.41C92.563 154.897 91.3399 150.915 88.2519 150.814C85.4463 150.719 84.4414 154.494 84.1132 156.41H92.9169Z" fill="#2A4570"/>
<path d="M84.1188 156.41C84.2667 155.497 84.4999 154.601 84.8152 153.736C85.7563 151.232 87.262 149.941 89.1819 150.002C91.0641 150.062 92.6507 151.282 93.7499 153.528C94.1884 154.444 94.522 155.411 94.7437 156.41H97.8192L100.848 166.492C101.003 167.011 101.04 167.561 100.956 168.098C100.872 168.635 100.669 169.144 100.363 169.583C100.057 170.022 99.6576 170.379 99.1964 170.625C98.7352 170.871 98.2254 171 97.7082 171H87.4842C86.539 171 85.6219 170.662 84.8832 170.042C84.1445 169.421 83.6281 168.555 83.4186 167.585L81 156.41H84.1188ZM93.9457 156.41C93.5824 154.897 92.327 150.915 89.1574 150.814C86.2777 150.719 85.2462 154.494 84.9074 156.41H93.9457Z" fill="#4656CC"/>
<path d="M195.023 62.3466H301.543C301.948 62.3451 302.335 62.1836 302.621 61.8973C302.908 61.611 303.069 61.2232 303.071 60.8183C303.069 60.4136 302.908 60.026 302.621 59.74C302.335 59.454 301.947 59.2929 301.543 59.2919H195.023C194.619 59.2929 194.231 59.454 193.945 59.74C193.659 60.026 193.497 60.4136 193.496 60.8183C193.497 61.2232 193.658 61.611 193.945 61.8973C194.231 62.1836 194.619 62.3451 195.023 62.3466Z" fill="#7165E3"/>
<path d="M230.644 77.5027C228.617 76.2033 226.492 75.0639 224.288 74.0948C223.051 73.5524 221.787 73.0758 220.5 72.6669C218.084 71.8772 215.57 71.4243 213.031 71.3209V65.0982C213.031 64.427 212.705 63.1368 211.47 63.0531C211.231 63.037 210.999 62.9725 210.786 62.8635C210.574 62.7545 210.386 62.6033 210.234 62.4191C209.896 62.0355 209.718 61.5373 209.736 61.0266C209.858 59.7047 210.737 58.8829 212.029 58.8829C212.196 58.8828 212.362 58.9183 212.514 58.9873C212.667 59.0562 212.803 59.1569 212.914 59.2827H214.068C213.486 58.182 212.661 57.9273 212.023 57.9273C210.222 57.9273 208.949 59.1097 208.78 60.9392C208.739 61.7069 208.998 62.4607 209.503 63.0401C209.739 63.3213 210.029 63.5519 210.356 63.7181C210.683 63.8842 211.04 63.9824 211.406 64.0068C212.055 64.0459 212.07 65.048 212.072 65.0889V71.3097C209.2 71.3469 206.353 71.9735 203.755 72.8454C202.55 73.2507 201.4 73.7062 200.324 74.184C198.427 75.0295 196.588 75.9977 194.817 77.0825C194.479 77.2895 194.219 77.6013 194.075 77.9703C193.931 78.3393 193.911 78.7454 194.019 79.1265C194.127 79.5077 194.357 79.8431 194.673 80.0816C194.989 80.3201 195.375 80.4487 195.771 80.4476H229.782C230.127 80.4476 230.463 80.3356 230.74 80.1284C231.016 79.9211 231.218 79.6299 231.315 79.2982C231.412 78.9666 231.399 78.6124 231.278 78.2887C231.157 77.965 230.935 77.6892 230.644 77.5027ZM229.925 78.8915C229.918 78.924 229.9 78.953 229.874 78.9729C229.847 78.9928 229.815 79.0022 229.782 78.9993H195.771C195.689 79.0023 195.609 78.9769 195.544 78.9274C195.48 78.8778 195.434 78.8073 195.416 78.7279C195.39 78.6518 195.392 78.5691 195.421 78.4943C195.45 78.4196 195.505 78.3575 195.575 78.3189C197.296 77.2641 199.084 76.3238 200.928 75.5041C201.995 75.03 203.14 74.5745 204.333 74.1822C206.853 73.3455 209.602 72.7599 212.354 72.7599H212.622C215.138 72.8262 217.631 73.2551 220.024 74.0335C221.435 74.4823 222.818 75.0144 224.165 75.6268C226.134 76.5226 228.036 77.5577 229.858 78.7242C229.888 78.7384 229.912 78.7636 229.924 78.7946C229.937 78.8257 229.937 78.8603 229.925 78.8915Z" fill="#F5F6FA"/>
<path d="M232.447 131.787C232.447 131.787 230.188 134.23 226.752 133.089C223.316 131.947 219.732 133.076 218.991 133.537C214.923 136.071 210.475 138.185 208.62 134.95C207.383 132.787 203.465 135.383 195.349 133.702C195.349 133.702 203.595 105.738 203.786 100.88C203.978 96.0221 198.276 90.2827 200.948 80.6429C200.948 80.6429 200.961 80.5759 200.978 80.4569C201.013 80.1892 201.078 79.6593 201.121 79.0086C201.192 77.96 201.201 76.5917 200.935 75.5134C200.839 75.0326 200.632 74.5808 200.331 74.1933C201.407 73.7155 202.562 73.2637 203.762 72.8547C203.913 73.208 204.106 73.6653 204.34 74.1915C204.924 75.5115 205.754 77.2759 206.717 79.0086C206.987 79.4976 207.275 79.9829 207.563 80.4569C209.079 82.9334 210.817 85.0398 212.395 85.2295C212.395 85.2295 214.484 84.9487 217.123 80.4569C217.381 80.0169 217.645 79.5342 217.915 79.0086C218.722 77.4003 219.426 75.7423 220.022 74.0446C220.178 73.6058 220.336 73.1485 220.493 72.6762C221.779 73.0851 223.044 73.5617 224.28 74.1041C224.334 74.1802 224.381 74.2604 224.421 74.3439C224.421 74.3439 224.293 74.8441 224.163 75.6454C223.978 76.7591 223.892 77.8871 223.907 79.0161C223.916 79.5004 223.952 79.9838 224.013 80.4644L224.04 80.6503C224.04 80.6503 225.288 83.0672 224.905 87.4586C224.522 91.85 222.74 96.3344 222.86 100.888C223.044 106.991 232.257 124.339 232.447 131.787ZM201.735 81.1374L201.069 80.7154C201.197 80.8009 201.424 80.9478 201.735 81.1374Z" fill="#344AB7"/>
<path d="M285.249 77.0955C281.759 74.9538 274.949 71.4102 267.996 71.3321V65.1112C267.996 65.0703 268.011 64.0664 268.662 64.0273C269.027 64.0032 269.384 63.9053 269.711 63.7395C270.038 63.5736 270.328 63.3433 270.563 63.0624C271.068 62.4828 271.328 61.7294 271.288 60.9615C271.119 59.1321 269.845 57.9496 268.045 57.9496C267.415 57.9496 266.593 58.2006 266.011 59.292H267.169C267.28 59.1698 267.415 59.0721 267.566 59.0052C267.717 58.9383 267.88 58.9036 268.045 58.9034C269.336 58.9034 270.215 59.7252 270.336 61.0489C270.354 61.5591 270.176 62.0569 269.838 62.4396C269.687 62.624 269.499 62.7755 269.287 62.8845C269.074 62.9936 268.842 63.0579 268.604 63.0736C267.368 63.1498 267.041 64.4382 267.041 65.1187V71.3414C259.774 71.5682 252.916 75.294 249.43 77.5232C249.139 77.7096 248.916 77.9852 248.795 78.3087C248.674 78.6322 248.661 78.9862 248.758 79.3178C248.855 79.6494 249.057 79.9406 249.333 80.148C249.609 80.3553 249.945 80.4677 250.29 80.4681H284.301C284.697 80.4691 285.083 80.3406 285.399 80.1021C285.715 79.8636 285.945 79.5282 286.053 79.147C286.161 78.7659 286.141 78.3598 285.997 77.9908C285.853 77.6218 285.592 77.31 285.255 77.103L285.249 77.0955ZM284.651 78.7409C284.632 78.82 284.586 78.8901 284.521 78.9392C284.457 78.9884 284.377 79.0136 284.296 79.0105H250.284C250.253 79.0102 250.222 78.9997 250.196 78.9804C250.171 78.9611 250.152 78.9342 250.143 78.9035C250.134 78.8729 250.135 78.8402 250.146 78.8102C250.157 78.7803 250.178 78.7547 250.205 78.7372C253.615 76.5527 260.389 72.8733 267.439 72.7729H267.708C274.399 72.7729 281.078 76.244 284.487 78.3338C284.558 78.3717 284.613 78.4332 284.643 78.5077C284.672 78.5821 284.675 78.6646 284.651 78.7409Z" fill="#F5F6FA"/>
<path d="M279.187 73.8475C279.187 73.8475 273.888 78.5736 266.253 78.2873C258.618 78.001 254.99 74.1822 254.99 74.1822C254.99 74.1822 248.976 77.2368 247.742 78.9547C246.508 80.6726 245.928 98.2419 245.928 98.2419C245.928 98.2419 248.887 99.389 251.941 99.2942L253.182 95.5759L249.42 158.045C249.42 158.045 254.067 158.23 256.873 156.63C259.57 155.081 263.634 157.143 267.262 157.63C270.89 158.117 272.972 155.356 276.534 156.501C282.093 158.288 286.398 157.266 286.398 157.266L280.67 95.3862L282.22 99.0042C282.22 99.0042 287.539 99.0042 289.256 97.1896C289.256 97.1896 287.212 78.5066 286.074 77.3595C284.937 76.2124 279.187 73.8475 279.187 73.8475Z" fill="#F26E6B"/>
<path d="M264.554 77.1066C266.324 76.0214 268.163 75.0532 270.059 74.2082C271.135 73.7304 272.29 73.2786 273.492 72.8696C276.094 71.9976 278.936 71.3711 281.807 71.3339V65.1223C281.807 65.0814 281.79 64.0793 281.142 64.0403C280.776 64.0159 280.419 63.9176 280.092 63.7515C279.765 63.5853 279.476 63.3547 279.24 63.0735C278.735 62.4943 278.475 61.7406 278.516 60.9726C278.685 59.1432 279.958 57.9608 281.759 57.9608C282.493 57.9608 283.489 58.301 284.061 59.9185C284.259 60.4922 284.378 61.0901 284.415 61.6959C284.418 61.7585 284.408 61.8212 284.387 61.8802C284.366 61.9392 284.333 61.9934 284.29 62.0397C284.248 62.086 284.197 62.1235 284.14 62.15C284.083 62.1765 284.022 62.1915 283.959 62.1941C283.833 62.1982 283.711 62.1529 283.618 62.0678C283.524 61.9827 283.468 61.8645 283.461 61.7386C283.461 61.7052 283.312 58.9164 281.759 58.9164C280.458 58.9164 279.588 59.7381 279.467 61.06C279.449 61.5709 279.627 62.0695 279.965 62.4525C280.117 62.6367 280.305 62.788 280.517 62.897C280.729 63.006 280.961 63.0705 281.199 63.0865C282.435 63.1609 282.761 64.4512 282.761 65.1316V71.3543C285.3 71.4581 287.814 71.911 290.23 72.7004C291.517 73.1084 292.781 73.585 294.018 74.1282C296.221 75.0972 298.346 76.2367 300.372 77.5361C300.663 77.7225 300.885 77.9981 301.006 78.3217C301.127 78.6452 301.14 78.9992 301.043 79.3308C300.946 79.6623 300.745 79.9536 300.469 80.1609C300.193 80.3683 299.857 80.4806 299.511 80.4811H265.5C265.105 80.4817 264.719 80.3528 264.403 80.1142C264.087 79.8755 263.858 79.5401 263.75 79.1591C263.643 78.778 263.662 78.3722 263.806 78.0033C263.951 77.6345 264.211 77.3229 264.549 77.1159L264.554 77.1066ZM265.151 78.752C265.17 78.8313 265.215 78.9016 265.28 78.9511C265.345 79.0005 265.425 79.0261 265.506 79.0235H299.517C299.549 79.0232 299.58 79.0126 299.605 78.9934C299.631 78.9741 299.649 78.9471 299.658 78.9165C299.667 78.8858 299.666 78.8531 299.655 78.8232C299.644 78.7932 299.624 78.7676 299.597 78.7502C297.773 77.5834 295.868 76.5483 293.897 75.6528C292.549 75.0401 291.167 74.508 289.756 74.0594C287.363 73.2813 284.871 72.8523 282.355 72.7859H282.086C279.333 72.7859 276.585 73.3715 274.064 74.2082C272.871 74.6042 271.728 75.056 270.662 75.5301C268.817 76.3494 267.029 77.2898 265.309 78.3449C265.24 78.3842 265.186 78.4462 265.158 78.5203C265.129 78.5945 265.127 78.6763 265.151 78.752Z" fill="#E4DFFF"/>
<path d="M302.178 144.826C302.178 144.826 299.92 147.269 296.484 146.127C293.048 144.986 289.462 146.114 288.723 146.575C284.654 149.109 280.205 149.364 278.35 146.129C277.113 143.967 273.197 148.421 265.079 146.741C265.079 146.741 273.325 105.762 273.516 100.904C273.708 96.0462 268.008 90.3069 270.68 80.667C270.68 80.667 270.691 80.6001 270.708 80.4811C270.745 80.2134 270.81 79.6835 270.851 79.0328C270.922 77.9842 270.931 76.6159 270.665 75.5375C270.569 75.0564 270.361 74.6045 270.059 74.2175C271.136 73.7397 272.29 73.2879 273.492 72.8789C273.641 73.2321 273.836 73.6895 274.068 74.2157C274.652 75.5357 275.483 77.3 276.445 79.0328C276.715 79.5218 277.003 80.007 277.291 80.4811C278.808 82.9576 280.545 85.064 282.134 85.2536C282.134 85.2536 284.221 84.9729 286.86 80.4811C287.121 80.0405 287.383 79.5515 287.652 79.0328C288.459 77.4244 289.163 75.7664 289.76 74.0688C289.916 73.63 290.076 73.1726 290.232 72.7004C291.519 73.1084 292.783 73.5851 294.02 74.1283C294.072 74.2052 294.119 74.2853 294.161 74.3681C294.161 74.3681 294.031 74.8682 293.901 75.6695C293.715 76.7832 293.629 77.9113 293.644 79.0402C293.654 79.5246 293.69 80.0081 293.752 80.4885C293.752 80.5518 293.769 80.615 293.778 80.6745C293.778 80.6745 295.025 83.0914 294.642 87.4828C294.259 91.8742 292.477 96.3586 292.598 100.912C292.782 107.015 301.987 137.378 302.178 144.826ZM271.465 81.1616L270.799 80.7395C270.927 80.8251 271.154 80.9719 271.465 81.1616Z" fill="#FBAA50"/>
<path d="M221.721 78.1664C223.747 76.8637 225.872 75.7211 228.075 74.7492C229.312 74.2068 230.576 73.7302 231.863 73.3214C234.279 72.5319 236.793 72.079 239.332 71.9753V65.7601C239.332 65.0889 239.659 63.7986 240.895 63.7243C241.133 63.7086 241.366 63.6443 241.578 63.5352C241.79 63.4262 241.978 63.2747 242.129 63.0903C242.467 62.7074 242.645 62.2098 242.628 61.6996C242.505 60.3759 241.628 59.5541 240.334 59.5541C238.782 59.5541 238.634 62.3429 238.632 62.3763C238.621 62.499 238.563 62.6127 238.47 62.6938C238.378 62.7749 238.257 62.8171 238.135 62.8116C238.012 62.8061 237.895 62.7533 237.81 62.6642C237.725 62.5752 237.678 62.4567 237.678 62.3336C237.717 61.7281 237.836 61.1305 238.031 60.5562C238.606 58.9387 239.6 58.6003 240.334 58.6003C242.137 58.6003 243.41 59.7809 243.579 61.6104C243.62 62.3783 243.36 63.1319 242.854 63.7112C242.619 63.9924 242.329 64.223 242.002 64.3892C241.676 64.5553 241.319 64.6536 240.953 64.678C240.303 64.7171 240.288 65.7192 240.288 65.7601V71.9735C243.159 72.0088 246.004 72.6353 248.603 73.5073C249.807 73.9126 250.957 74.37 252.035 74.8459C253.931 75.6923 255.77 76.6611 257.54 77.7462C257.878 77.9532 258.138 78.2648 258.283 78.6336C258.427 79.0025 258.446 79.4083 258.339 79.7894C258.231 80.1704 258.002 80.5058 257.686 80.7445C257.37 80.9831 256.985 81.112 256.589 81.1114H222.578C222.232 81.1123 221.895 81.0007 221.618 80.7935C221.341 80.5863 221.138 80.2946 221.041 79.9624C220.944 79.6302 220.958 79.2754 221.079 78.9515C221.201 78.6276 221.425 78.3521 221.717 78.1664H221.721ZM222.438 79.5534C222.445 79.5857 222.463 79.6144 222.49 79.6343C222.516 79.6541 222.549 79.6637 222.582 79.6612H256.592C256.674 79.6638 256.754 79.6383 256.818 79.5888C256.883 79.5393 256.929 79.469 256.947 79.3898C256.972 79.3134 256.969 79.2308 256.94 79.1562C256.91 79.0816 256.856 79.0196 256.786 78.9807C255.065 77.9263 253.277 76.9861 251.433 76.1659C250.366 75.6918 249.223 75.2363 248.03 74.8459C245.51 74.0093 242.761 73.4218 240.009 73.4218H239.739C237.224 73.4882 234.732 73.9171 232.339 74.6953C230.928 75.1447 229.546 75.6767 228.198 76.2886C226.228 77.1879 224.324 78.2267 222.502 79.3972C222.474 79.4115 222.453 79.4351 222.441 79.4637C222.43 79.4923 222.429 79.5241 222.438 79.5534Z" fill="#E4DFFF"/>
<path d="M250.907 79.6612C250.907 79.6612 248.237 90.5449 248.108 91.4373H230.674L228.127 79.6612H250.907Z" fill="#344AB7"/>
<path d="M250.907 79.6612C250.907 79.6612 252.054 98.5004 250.907 109.927C250.907 109.927 247.727 110.596 244.926 109.927L240.633 79.6612H250.907Z" fill="#4656CC"/>
<path d="M237.756 79.6612L236.654 109.927C236.654 109.927 232.963 110.723 230.928 109.927L228.127 79.6612H237.756Z" fill="#4656CC"/>
<path d="M178.588 132.53C177.57 137.213 168.18 148.333 168.149 148.365C168.034 148.429 167.908 148.471 167.777 148.485H167.76C166.984 148.619 165.471 148.564 164.642 149.264C163.634 150.114 161.033 150.38 160.237 149.742C159.442 149.105 160.503 147.991 161.616 146.344C162.729 144.696 164.961 145.176 165.649 145.282C166.06 145.345 166.417 144.975 166.634 144.667C166.638 144.66 166.642 144.654 166.647 144.648C166.688 144.589 166.727 144.531 166.757 144.481C167.705 141.703 169.844 137.728 172.054 133.011C172.271 132.547 172.37 132.035 172.339 131.523C172.309 131.011 172.15 130.515 171.879 130.079C170.403 127.72 167.405 122.818 165.478 118.885C165.253 117.747 165.028 116.68 164.856 115.87C169.091 115.189 170.844 112.611 171.411 111.512C173.416 115.401 179.592 127.915 178.588 132.53Z" fill="#FAC8AF"/>
<path d="M129.066 128.549C124.496 129.988 110.18 127.354 110.142 127.335C110.03 127.269 109.933 127.181 109.854 127.077C109.852 127.072 109.848 127.067 109.843 127.064C109.343 126.456 108.641 125.114 107.613 124.742C106.377 124.286 104.855 122.159 105.011 121.152C105.167 120.144 106.663 120.512 108.646 120.665C110.629 120.817 111.319 122.99 111.568 123.639C111.718 124.028 112.215 124.152 112.592 124.197H112.612L112.813 124.208C115.694 123.65 120.206 123.541 125.397 123.121C125.908 123.08 126.401 122.911 126.83 122.63C127.259 122.35 127.611 121.966 127.854 121.514C129.17 119.062 131.943 114.027 134.394 110.402C135.272 109.642 136.087 108.915 136.704 108.357C139.396 111.703 142.503 111.943 143.739 111.889C141.368 115.559 133.578 127.131 129.066 128.549Z" fill="#FAC8AF"/>
<path d="M157.215 102.539C156.628 102.236 156.323 99.6446 156.18 97.8096C156.18 97.7278 156.167 97.6497 156.161 97.5716L156.147 97.3467C156.147 97.2351 156.13 97.131 156.124 97.0306V96.9321H155.938L156.005 96.8688C158.094 94.8702 156.422 93.6469 157.256 87.4837C157.628 84.7228 154.818 83.4697 149.264 83.9512C146.235 84.2152 144.776 84.9868 144.447 86.6935C144.172 88.1214 144.767 89.6366 144.843 92.113C144.904 94.2046 144.832 95.6604 145.908 96.6086C146.6 97.2316 147.346 97.7916 148.138 98.2818C148.051 100.327 148.071 102.236 147.352 102.437C147.287 102.458 144.826 102.809 144.826 102.809L152.907 108.598C152.907 108.598 160.588 104.586 161.438 103.973C159.806 102.684 157.553 102.71 157.215 102.539Z" fill="#FAC8AF"/>
<path d="M160.642 83.8564C159.902 82.8166 158.889 82.0009 157.715 81.4989C159.226 80.5024 158.802 79.121 158.726 77.6188C158.639 75.8619 156.927 75.1164 156.927 75.1164C157.432 75.2256 157.909 75.4342 158.332 75.7299C157.717 74.501 156.005 73.8856 153.108 74.0176C150.21 74.1496 149.019 76.2486 149.019 76.2486C149.019 75.4138 150.337 74.0176 150.337 74.0176C150.337 74.0176 146.824 75.5997 146.473 78.7604C146.347 79.9019 146.88 80.6642 147.612 81.1903C145.8 81.7072 143.728 82.8022 143.265 85.1188C142.406 89.4154 145.425 91.1946 145.776 92.1205C145.776 92.1205 146.404 92.5202 146.815 91.3266C147.226 90.133 148.556 90.9418 147.93 92.1837C147.304 93.4256 147.521 95.3648 149.173 96.6588C150.826 97.9528 154.424 97.7259 154.71 98.345C154.71 98.345 156.126 96.7275 157.392 95.8128C159.97 93.9685 163.696 88.2273 160.642 83.8564Z" fill="#103663"/>
<path d="M148.658 230.898C148.591 231.509 148.695 232.127 148.958 232.682C152.651 240.482 149.368 240.465 149.368 240.465C149.368 240.465 146.61 240.45 143.676 240.45C141.04 240.45 142.319 237.013 142.826 235.499C143.144 234.553 143.538 233.369 143.787 232.617C143.95 232.133 143.99 231.617 143.904 231.113C143.551 229.038 143.237 227.103 142.958 225.294C139.613 203.542 141.379 200.147 141.553 197.778C141.739 195.192 135.42 161.199 135.606 159.144C135.792 157.09 138.931 145.282 138.931 145.282C144.523 146.052 155.544 158.296 155.544 158.296C155.544 158.296 150.712 194.58 151.218 199.163C151.567 202.324 150.168 216.64 149.261 225.244C149.004 227.752 148.781 229.778 148.658 230.898Z" fill="#FAC8AF"/>
<path d="M194.5 241L178.144 240.465C178.144 240.465 176.745 239.374 177.38 236.827C177.625 235.737 177.712 234.617 177.638 233.502C177.568 232.236 177.198 231.005 176.561 229.909C175.797 228.585 174.568 226.357 173.264 223.559C170.498 217.634 167.385 209.156 167.586 201.322C167.586 201.322 156.286 175.665 155.204 167.33C154.123 158.995 169.329 152.219 169.329 152.219C172.573 167.361 174.899 182.686 176.295 198.109C176.605 201.558 178.781 213.962 180.359 222.726C180.969 226.112 181.491 228.953 181.779 230.535C181.94 231.41 182.348 232.221 182.954 232.872C184.541 234.575 187.706 237.86 188.832 238.238C190.362 238.742 194.5 239.232 194.5 241Z" fill="#FAC8AF"/>
<path d="M173.351 168.249C172.182 168.598 170.981 168.899 169.781 169.154C162.46 170.719 155.163 170.69 155.163 170.69L154.927 167.715C154.93 167.708 154.93 167.7 154.927 167.693C154.923 167.664 154.912 167.637 154.895 167.615C154.878 167.592 154.855 167.574 154.829 167.563C154.791 167.546 154.749 167.541 154.709 167.551C154.669 167.56 154.634 167.583 154.608 167.615C154.585 167.643 154.571 167.678 154.57 167.715L154.359 170.69C152.898 170.864 151.43 170.958 149.959 170.972C149.482 170.972 149.01 170.972 148.556 170.959C147.703 170.933 146.884 170.879 146.123 170.803C144.18 170.617 142.26 170.238 140.392 169.673C137.572 168.806 136.128 167.825 136.128 167.825C136.065 167.481 136.009 167.1 135.955 166.691C135.519 163.344 135.385 158.097 135.626 156.177C135.836 154.835 136.147 153.512 136.556 152.217C137.556 148.857 138.959 145.286 138.959 145.286C145.557 147.37 168.61 144.983 168.61 144.983L173.351 168.249Z" fill="#2B478B"/>
<path d="M149.5 241C149.5 241 146.435 241 143.5 241C140.865 241 142.327 237.013 142.834 235.499C143.152 234.553 143.546 233.369 143.795 232.617C143.958 232.133 143.998 231.617 143.912 231.113C143.559 229.038 143.245 227.103 142.966 225.294C144.161 225.508 146.35 225.724 149.285 225.238C149.023 227.752 148.798 229.778 148.675 230.898C148.608 231.509 148.711 232.127 148.974 232.682C152.651 240.482 149.5 241 149.5 241Z" fill="#E9F3FE"/>
<path d="M194.5 241H178C178 241 176.745 239.374 177.38 236.827C177.625 235.737 177.712 234.617 177.639 233.502C177.568 232.236 177.198 231.005 176.561 229.909C175.797 228.585 174.568 226.357 173.264 223.559C174.732 223.803 177.248 223.894 180.361 222.727C180.971 226.112 181.493 228.953 181.781 230.535C181.942 231.41 182.35 232.221 182.956 232.872C184.543 234.575 187.708 237.86 188.834 238.238C190.362 238.742 194.5 239.232 194.5 241Z" fill="#E9F3FE"/>
<path d="M138.054 145.864C138.054 145.864 143.443 152.587 153.526 151.613C163.608 150.638 168.913 146.567 168.913 146.567L138.054 145.864Z" fill="#233862"/>
<path d="M165.863 117.984L165.88 117.878C170.124 116.948 171.981 112.629 171.981 112.629C170.582 109.74 167.365 106.046 166.084 104.635C165.964 104.391 165.776 104.187 165.543 104.047C163.11 102.746 147.737 100.061 137.836 104.977C137.836 104.977 134.262 108.353 132.564 112.722C133.279 114.04 134.275 115.184 135.483 116.073C136.69 116.962 138.079 117.573 139.55 117.863C140.238 120.432 143.325 132.134 142.984 133.831C142.613 135.741 137.29 142.384 138.054 145.862C138.425 147.535 147.649 149.906 158.065 148.926C161.767 148.602 165.412 147.808 168.915 146.565C169.669 146.29 169.606 144.741 169.331 143.984C168.798 142.517 167.177 139.708 164.551 133.64C164.164 132.746 165.136 122.92 165.863 117.985V117.984Z" fill="#E9F3FE"/>
<path d="M154.591 167.613C154.568 167.641 154.555 167.677 154.554 167.713L154.342 170.688C152.882 170.862 151.413 170.956 149.943 170.97C149.465 170.97 148.993 170.97 148.54 170.957C149.919 168.853 153.651 167.841 154.591 167.613Z" fill="#233862"/>
<path d="M142.985 133.833C142.613 135.743 137.29 142.385 138.054 145.864C138.426 147.537 147.649 149.908 158.065 148.928C143.299 148.688 142.985 133.833 142.985 133.833Z" fill="#D1E2F2"/>
<path d="M137.979 112.828C136.989 112.588 135.218 113.825 134.036 114.78C135.483 116.406 137.437 117.495 139.581 117.87C139.565 117.151 139.412 113.176 137.979 112.828Z" fill="#D1E2F2"/>
<path d="M165.863 117.984C165.863 117.984 162.692 117.348 161.445 121.038C160.198 124.729 163.748 133.069 164.551 133.642C164.164 132.747 165.136 122.922 165.863 117.987V117.984Z" fill="#D1E2F2"/>
</svg>
