<svg width="51" height="52" viewBox="0 0 51 52" fill="none" xmlns="http://www.w3.org/2000/svg">
<g filter="url(#filter0_d_1284_581)">
<path d="M6.91528 13.1874C6.91528 8.04656 11.0828 3.87908 16.2236 3.87908C21.3645 3.87908 25.5319 8.04656 25.5319 13.1874V31.8041C25.5319 36.9449 21.3645 41.1124 16.2236 41.1124C11.0828 41.1124 6.91528 36.9449 6.91528 31.8041L6.91528 13.1874Z" fill="white" fill-opacity="0.4"/>
<path d="M25.5317 13.1874C25.5317 8.04656 29.6992 3.87908 34.8401 3.87908C39.9809 3.87908 44.1484 8.04656 44.1484 13.1874V31.8041C44.1484 36.9449 39.9809 41.1124 34.8401 41.1124C29.6992 41.1124 25.5317 36.9449 25.5317 31.8041V13.1874Z" fill="white" fill-opacity="0.4"/>
<path d="M9.12518 19.2595C5.74234 15.3885 6.13807 9.50804 10.0091 6.1252C13.8801 2.74235 19.7605 3.13808 23.1433 7.00909L32.5667 17.7923C35.9495 21.6633 35.5538 27.5437 31.6828 30.9265C27.8118 34.3094 21.9314 33.9136 18.5485 30.0426L9.12518 19.2595Z" fill="white" fill-opacity="0.4"/>
<path d="M18.4334 17.7926C15.0506 21.6637 15.4465 27.5441 19.3176 30.9268C23.1886 34.3096 29.069 33.9137 32.4518 30.0427L41.8749 19.2593C45.2577 15.3882 44.8618 9.50779 40.9907 6.12503C37.1197 2.74227 31.2393 3.13813 27.8565 7.00921L18.4334 17.7926Z" fill="white" fill-opacity="0.4"/>
</g>
<defs>
<filter id="filter0_d_1284_581" x="0.825684" y="1.82578" width="49.3484" height="49.2866" filterUnits="userSpaceOnUse" color-interpolation-filters="sRGB">
<feFlood flood-opacity="0" result="BackgroundImageFix"/>
<feColorMatrix in="SourceAlpha" type="matrix" values="0 0 0 0 0 0 0 0 0 0 0 0 0 0 0 0 0 0 127 0" result="hardAlpha"/>
<feOffset dy="4"/>
<feGaussianBlur stdDeviation="3"/>
<feComposite in2="hardAlpha" operator="out"/>
<feColorMatrix type="matrix" values="0 0 0 0 0.164706 0 0 0 0 0.180392 0 0 0 0 0.25098 0 0 0 0.25 0"/>
<feBlend mode="normal" in2="BackgroundImageFix" result="effect1_dropShadow_1284_581"/>
<feBlend mode="normal" in="SourceGraphic" in2="effect1_dropShadow_1284_581" result="shape"/>
</filter>
</defs>
</svg>
